NotoSansCham-Light.ufo
<glyph name="quotedbl" format="2">
  <advance width="320"/>
  <unicode hex="0022"/>
  <outline>
    <contour>
      <point x="97" y="456" type="line"/>
      <point x="101" y="714" type="line"/>
      <point x="73" y="714" type="line"/>
      <point x="77" y="456" type="line"/>
    </contour>
    <contour>
      <point x="243" y="456" type="line"/>
      <point x="247" y="714" type="line"/>
      <point x="219" y="714" type="line"/>
      <point x="223" y="456" type="line"/>
    </contour>
  </outline>
</glyph>
<glyph name="quotesingle" format="2">
  <advance width="172"/>
  <unicode hex="0027"/>
  <outline>
    <contour>
      <point x="97" y="456" type="line"/>
      <point x="101" y="714" type="line"/>
      <point x="73" y="714" type="line"/>
      <point x="77" y="456" type="line"/>
    </contour>
  </outline>
</glyph>
<glyph name="uni25CC" format="2">
  <advance width="594"/>
  <unicode hex="25CC"/>
  <outline>
    <contour>
      <point x="213" y="504" type="curve" smooth="yes"/>
      <point x="199" y="504"/>
      <point x="187" y="492"/>
      <point x="187" y="478" type="curve" smooth="yes"/>
      <point x="187" y="464"/>
      <point x="199" y="452"/>
      <point x="213" y="452" type="curve" smooth="yes"/>
      <point x="227" y="452"/>
      <point x="239" y="464"/>
      <point x="239" y="478" type="curve" smooth="yes"/>
      <point x="239" y="492"/>
      <point x="227" y="504"/>
    </contour>
    <contour>
      <point x="381" y="504" type="curve" smooth="yes"/>
      <point x="367" y="504"/>
      <point x="355" y="492"/>
      <point x="355" y="478" type="curve" smooth="yes"/>
      <point x="355" y="464"/>
      <point x="367" y="452"/>
      <point x="381" y="452" type="curve" smooth="yes"/>
      <point x="395" y="452"/>
      <point x="407" y="464"/>
      <point x="407" y="478" type="curve" smooth="yes"/>
      <point x="407" y="492"/>
      <point x="395" y="504"/>
    </contour>
    <contour>
      <point x="213" y="94" type="curve" smooth="yes"/>
      <point x="199" y="94"/>
      <point x="187" y="82"/>
      <point x="187" y="68" type="curve" smooth="yes"/>
      <point x="187" y="54"/>
      <point x="199" y="42"/>
      <point x="213" y="42" type="curve" smooth="yes"/>
      <point x="227" y="42"/>
      <point x="239" y="54"/>
      <point x="239" y="68" type="curve" smooth="yes"/>
      <point x="239" y="82"/>
      <point x="227" y="94"/>
    </contour>
    <contour>
      <point x="381" y="94" type="curve" smooth="yes"/>
      <point x="367" y="94"/>
      <point x="355" y="82"/>
      <point x="355" y="68" type="curve" smooth="yes"/>
      <point x="355" y="54"/>
      <point x="367" y="42"/>
      <point x="381" y="42" type="curve" smooth="yes"/>
      <point x="395" y="42"/>
      <point x="407" y="54"/>
      <point x="407" y="68" type="curve" smooth="yes"/>
      <point x="407" y="82"/>
      <point x="395" y="94"/>
    </contour>
    <contour>
      <point x="297" y="522" type="curve" smooth="yes"/>
      <point x="283" y="522"/>
      <point x="271" y="510"/>
      <point x="271" y="496" type="curve" smooth="yes"/>
      <point x="271" y="482"/>
      <point x="283" y="470"/>
      <point x="297" y="470" type="curve" smooth="yes"/>
      <point x="311" y="470"/>
      <point x="323" y="482"/>
      <point x="323" y="496" type="curve" smooth="yes"/>
      <point x="323" y="510"/>
      <point x="311" y="522"/>
    </contour>
    <contour>
      <point x="297" y="76" type="curve" smooth="yes"/>
      <point x="283" y="76"/>
      <point x="271" y="64"/>
      <point x="271" y="50" type="curve" smooth="yes"/>
      <point x="271" y="36"/>
      <point x="283" y="24"/>
      <point x="297" y="24" type="curve" smooth="yes"/>
      <point x="311" y="24"/>
      <point x="323" y="36"/>
      <point x="323" y="50" type="curve" smooth="yes"/>
      <point x="323" y="64"/>
      <point x="311" y="76"/>
    </contour>
    <contour>
      <point x="48" y="273" type="curve" smooth="yes"/>
      <point x="48" y="259"/>
      <point x="60" y="247"/>
      <point x="74" y="247" type="curve" smooth="yes"/>
      <point x="88" y="247"/>
      <point x="100" y="259"/>
      <point x="100" y="273" type="curve" smooth="yes"/>
      <point x="100" y="287"/>
      <point x="88" y="299"/>
      <point x="74" y="299" type="curve" smooth="yes"/>
      <point x="60" y="299"/>
      <point x="48" y="287"/>
    </contour>
    <contour>
      <point x="494" y="273" type="curve" smooth="yes"/>
      <point x="494" y="259"/>
      <point x="506" y="247"/>
      <point x="520" y="247" type="curve" smooth="yes"/>
      <point x="534" y="247"/>
      <point x="546" y="259"/>
      <point x="546" y="273" type="curve" smooth="yes"/>
      <point x="546" y="287"/>
      <point x="534" y="299"/>
      <point x="520" y="299" type="curve" smooth="yes"/>
      <point x="506" y="299"/>
      <point x="494" y="287"/>
    </contour>
    <contour>
      <point x="113" y="115" type="curve" smooth="yes"/>
      <point x="113" y="101"/>
      <point x="125" y="89"/>
      <point x="139" y="89" type="curve" smooth="yes"/>
      <point x="153" y="89"/>
      <point x="165" y="101"/>
      <point x="165" y="115" type="curve" smooth="yes"/>
      <point x="165" y="129"/>
      <point x="153" y="141"/>
      <point x="139" y="141" type="curve" smooth="yes"/>
      <point x="125" y="141"/>
      <point x="113" y="129"/>
    </contour>
    <contour>
      <point x="113" y="431" type="curve" smooth="yes"/>
      <point x="113" y="417"/>
      <point x="125" y="405"/>
      <point x="139" y="405" type="curve" smooth="yes"/>
      <point x="153" y="405"/>
      <point x="165" y="417"/>
      <point x="165" y="431" type="curve" smooth="yes"/>
      <point x="165" y="445"/>
      <point x="153" y="457"/>
      <point x="139" y="457" type="curve" smooth="yes"/>
      <point x="125" y="457"/>
      <point x="113" y="445"/>
    </contour>
    <contour>
      <point x="429" y="115" type="curve" smooth="yes"/>
      <point x="429" y="101"/>
      <point x="441" y="89"/>
      <point x="455" y="89" type="curve" smooth="yes"/>
      <point x="469" y="89"/>
      <point x="481" y="101"/>
      <point x="481" y="115" type="curve" smooth="yes"/>
      <point x="481" y="129"/>
      <point x="469" y="141"/>
      <point x="455" y="141" type="curve" smooth="yes"/>
      <point x="441" y="141"/>
      <point x="429" y="129"/>
    </contour>
    <contour>
      <point x="429" y="431" type="curve" smooth="yes"/>
      <point x="429" y="417"/>
      <point x="441" y="405"/>
      <point x="455" y="405" type="curve" smooth="yes"/>
      <point x="469" y="405"/>
      <point x="481" y="417"/>
      <point x="481" y="431" type="curve" smooth="yes"/>
      <point x="481" y="445"/>
      <point x="469" y="457"/>
      <point x="455" y="457" type="curve" smooth="yes"/>
      <point x="441" y="457"/>
      <point x="429" y="445"/>
    </contour>
    <contour>
      <point x="66" y="189" type="curve" smooth="yes"/>
      <point x="66" y="175"/>
      <point x="78" y="163"/>
      <point x="92" y="163" type="curve" smooth="yes"/>
      <point x="106" y="163"/>
      <point x="118" y="175"/>
      <point x="118" y="189" type="curve" smooth="yes"/>
      <point x="118" y="203"/>
      <point x="106" y="215"/>
      <point x="92" y="215" type="curve" smooth="yes"/>
      <point x="78" y="215"/>
      <point x="66" y="203"/>
    </contour>
    <contour>
      <point x="66" y="357" type="curve" smooth="yes"/>
      <point x="66" y="343"/>
      <point x="78" y="331"/>
      <point x="92" y="331" type="curve" smooth="yes"/>
      <point x="106" y="331"/>
      <point x="118" y="343"/>
      <point x="118" y="357" type="curve" smooth="yes"/>
      <point x="118" y="371"/>
      <point x="106" y="383"/>
      <point x="92" y="383" type="curve" smooth="yes"/>
      <point x="78" y="383"/>
      <point x="66" y="371"/>
    </contour>
    <contour>
      <point x="476" y="189" type="curve" smooth="yes"/>
      <point x="476" y="175"/>
      <point x="488" y="163"/>
      <point x="502" y="163" type="curve" smooth="yes"/>
      <point x="516" y="163"/>
      <point x="528" y="175"/>
      <point x="528" y="189" type="curve" smooth="yes"/>
      <point x="528" y="203"/>
      <point x="516" y="215"/>
      <point x="502" y="215" type="curve" smooth="yes"/>
      <point x="488" y="215"/>
      <point x="476" y="203"/>
    </contour>
    <contour>
      <point x="476" y="357" type="curve" smooth="yes"/>
      <point x="476" y="343"/>
      <point x="488" y="331"/>
      <point x="502" y="331" type="curve" smooth="yes"/>
      <point x="516" y="331"/>
      <point x="528" y="343"/>
      <point x="528" y="357" type="curve" smooth="yes"/>
      <point x="528" y="371"/>
      <point x="516" y="383"/>
      <point x="502" y="383" type="curve" smooth="yes"/>
      <point x="488" y="383"/>
      <point x="476" y="371"/>
    </contour>
  </outline>
</glyph>
<glyph name="i_cham" format="2">
  <advance width="884"/>
  <unicode hex="AA01"/>
  <note>
uniAA01
</note>
  <outline>
    <contour>
      <point x="794" y="329" type="curve" smooth="yes"/>
      <point x="794" y="451"/>
      <point x="729" y="556"/>
      <point x="624" y="556" type="curve" smooth="yes"/>
      <point x="527" y="556"/>
      <point x="512" y="475"/>
      <point x="450" y="475" type="curve" smooth="yes"/>
      <point x="388" y="475"/>
      <point x="373" y="556"/>
      <point x="276" y="556" type="curve" smooth="yes"/>
      <point x="161" y="556"/>
      <point x="90" y="457"/>
      <point x="90" y="294" type="curve" smooth="yes"/>
      <point x="90" y="105"/>
      <point x="182" y="-10"/>
      <point x="304" y="-10" type="curve" smooth="yes"/>
      <point x="354" y="-10"/>
      <point x="386" y="19"/>
      <point x="386" y="62" type="curve" smooth="yes"/>
      <point x="386" y="105"/>
      <point x="354" y="133"/>
      <point x="304" y="133" type="curve" smooth="yes"/>
      <point x="252" y="133"/>
      <point x="214" y="95"/>
      <point x="201" y="33" type="curve"/>
      <point x="224" y="33" type="line"/>
      <point x="234" y="82"/>
      <point x="264" y="112"/>
      <point x="304" y="112" type="curve" smooth="yes"/>
      <point x="340" y="112"/>
      <point x="363" y="94"/>
      <point x="363" y="63" type="curve" smooth="yes"/>
      <point x="363" y="32"/>
      <point x="339" y="12"/>
      <point x="303" y="12" type="curve" smooth="yes"/>
      <point x="197" y="12"/>
      <point x="114" y="117"/>
      <point x="114" y="294" type="curve" smooth="yes"/>
      <point x="114" y="444"/>
      <point x="176" y="534"/>
      <point x="278" y="534" type="curve" smooth="yes"/>
      <point x="363" y="534"/>
      <point x="378" y="454"/>
      <point x="450" y="454" type="curve" smooth="yes"/>
      <point x="522" y="454"/>
      <point x="537" y="534"/>
      <point x="622" y="534" type="curve" smooth="yes"/>
      <point x="714" y="534"/>
      <point x="770" y="438"/>
      <point x="770" y="329" type="curve" smooth="yes"/>
      <point x="770" y="197"/>
      <point x="718" y="93"/>
      <point x="599" y="23" type="curve" smooth="yes"/>
      <point x="443" y="-69"/>
      <point x="406" y="-120"/>
      <point x="406" y="-170" type="curve" smooth="yes"/>
      <point x="406" y="-214"/>
      <point x="438" y="-248"/>
      <point x="490" y="-248" type="curve" smooth="yes"/>
      <point x="597" y="-248"/>
      <point x="608" y="-82"/>
      <point x="687" y="-82" type="curve" smooth="yes"/>
      <point x="712" y="-82"/>
      <point x="731" y="-100"/>
      <point x="731" y="-124" type="curve" smooth="yes"/>
      <point x="731" y="-139"/>
      <point x="724" y="-157"/>
      <point x="713" y="-171" type="curve"/>
      <point x="731" y="-185" type="line"/>
      <point x="746" y="-166"/>
      <point x="755" y="-144"/>
      <point x="755" y="-124" type="curve" smooth="yes"/>
      <point x="755" y="-87"/>
      <point x="725" y="-60"/>
      <point x="687" y="-60" type="curve" smooth="yes"/>
      <point x="589" y="-60"/>
      <point x="578" y="-226"/>
      <point x="489" y="-226" type="curve" smooth="yes"/>
      <point x="452" y="-226"/>
      <point x="430" y="-201"/>
      <point x="430" y="-170" type="curve" smooth="yes"/>
      <point x="430" y="-131"/>
      <point x="457" y="-87"/>
      <point x="613" y="5" type="curve" smooth="yes"/>
      <point x="742" y="81"/>
      <point x="794" y="190"/>
    </contour>
  </outline>
</glyph>
<glyph name="u_cham" format="2">
  <advance width="535"/>
  <unicode hex="AA02"/>
  <note>
uniAA02
</note>
  <outline>
    <contour>
      <point x="475" y="376" type="curve" smooth="yes"/>
      <point x="475" y="485"/>
      <point x="393" y="556"/>
      <point x="265" y="556" type="curve" smooth="yes"/>
      <point x="131" y="556"/>
      <point x="48" y="486"/>
      <point x="48" y="374" type="curve" smooth="yes"/>
      <point x="48" y="343"/>
      <point x="62" y="300"/>
      <point x="86" y="259" type="curve"/>
      <point x="106" y="269" type="line"/>
      <point x="85" y="307"/>
      <point x="72" y="348"/>
      <point x="72" y="374" type="curve" smooth="yes"/>
      <point x="72" y="474"/>
      <point x="144" y="534"/>
      <point x="265" y="534" type="curve" smooth="yes"/>
      <point x="379" y="534"/>
      <point x="451" y="473"/>
      <point x="451" y="376" type="curve" smooth="yes"/>
      <point x="451" y="281"/>
      <point x="378" y="239"/>
      <point x="285" y="189" type="curve" smooth="yes"/>
      <point x="201" y="144"/>
      <point x="153" y="117"/>
      <point x="153" y="68" type="curve" smooth="yes"/>
      <point x="153" y="20"/>
      <point x="195" y="-10"/>
      <point x="263" y="-10" type="curve" smooth="yes"/>
      <point x="335" y="-10"/>
      <point x="380" y="35"/>
      <point x="380" y="106" type="curve"/>
      <point x="356" y="106" type="line"/>
      <point x="356" y="47"/>
      <point x="322" y="12"/>
      <point x="263" y="12" type="curve" smooth="yes"/>
      <point x="208" y="12"/>
      <point x="177" y="33"/>
      <point x="177" y="68" type="curve" smooth="yes"/>
      <point x="177" y="107"/>
      <point x="219" y="131"/>
      <point x="299" y="172" type="curve" smooth="yes"/>
      <point x="394" y="221"/>
      <point x="475" y="267"/>
    </contour>
  </outline>
</glyph>
<glyph name="e_cham" format="2">
  <advance width="820"/>
  <unicode hex="AA03"/>
  <note>
uniAA03
</note>
  <outline>
    <contour>
      <point x="760" y="676" type="curve" smooth="yes"/>
      <point x="760" y="757"/>
      <point x="698" y="813"/>
      <point x="605" y="813" type="curve" smooth="yes"/>
      <point x="517" y="813"/>
      <point x="453" y="757"/>
      <point x="453" y="674" type="curve" smooth="yes"/>
      <point x="453" y="528"/>
      <point x="636" y="474"/>
      <point x="636" y="325" type="curve" smooth="yes"/>
      <point x="636" y="258"/>
      <point x="594" y="216"/>
      <point x="531" y="216" type="curve" smooth="yes"/>
      <point x="479" y="216"/>
      <point x="443" y="237"/>
      <point x="443" y="269" type="curve" smooth="yes"/>
      <point x="443" y="292"/>
      <point x="460" y="311"/>
      <point x="493" y="311" type="curve" smooth="yes"/>
      <point x="533" y="311"/>
      <point x="556" y="285"/>
      <point x="556" y="247" type="curve" smooth="yes"/>
      <point x="556" y="186"/>
      <point x="527" y="172"/>
      <point x="475" y="147" type="curve" smooth="yes"/>
      <point x="426" y="123"/>
      <point x="404" y="104"/>
      <point x="404" y="66" type="curve" smooth="yes"/>
      <point x="404" y="32"/>
      <point x="427" y="13"/>
      <point x="456" y="-8" type="curve"/>
      <point x="441" y="12" type="line"/>
      <point x="436" y="12"/>
      <point x="433" y="12"/>
      <point x="428" y="12" type="curve"/>
      <point x="334" y="12"/>
      <point x="277" y="65"/>
      <point x="277" y="150" type="curve" smooth="yes"/>
      <point x="277" y="245"/>
      <point x="366" y="299"/>
      <point x="366" y="405" type="curve" smooth="yes"/>
      <point x="366" y="496"/>
      <point x="307" y="556"/>
      <point x="216" y="556" type="curve" smooth="yes"/>
      <point x="122" y="556"/>
      <point x="60" y="499"/>
      <point x="60" y="407" type="curve" smooth="yes"/>
      <point x="60" y="362"/>
      <point x="79" y="316"/>
      <point x="109" y="283" type="curve"/>
      <point x="126" y="298" type="line"/>
      <point x="101" y="326"/>
      <point x="84" y="367"/>
      <point x="84" y="407" type="curve" smooth="yes"/>
      <point x="84" y="487"/>
      <point x="136" y="534"/>
      <point x="216" y="534" type="curve" smooth="yes"/>
      <point x="294" y="534"/>
      <point x="342" y="484"/>
      <point x="342" y="405" type="curve" smooth="yes"/>
      <point x="342" y="306"/>
      <point x="253" y="251"/>
      <point x="253" y="153" type="curve" smooth="yes"/>
      <point x="253" y="52"/>
      <point x="321" y="-10"/>
      <point x="428" y="-10" type="curve"/>
      <point x="439" y="-10"/>
      <point x="451" y="-10"/>
      <point x="462" y="-10" type="curve"/>
      <point x="467" y="3" type="line"/>
      <point x="440" y="25"/>
      <point x="427" y="44"/>
      <point x="427" y="64" type="curve" smooth="yes"/>
      <point x="427" y="97"/>
      <point x="447" y="110"/>
      <point x="494" y="133" type="curve" smooth="yes"/>
      <point x="546" y="158"/>
      <point x="579" y="180"/>
      <point x="579" y="246" type="curve" smooth="yes"/>
      <point x="579" y="295"/>
      <point x="544" y="332"/>
      <point x="493" y="332" type="curve" smooth="yes"/>
      <point x="449" y="332"/>
      <point x="420" y="302"/>
      <point x="420" y="269" type="curve" smooth="yes"/>
      <point x="420" y="227"/>
      <point x="468" y="195"/>
      <point x="531" y="195" type="curve" smooth="yes"/>
      <point x="606" y="195"/>
      <point x="660" y="248"/>
      <point x="660" y="328" type="curve" smooth="yes"/>
      <point x="660" y="481"/>
      <point x="477" y="535"/>
      <point x="477" y="677" type="curve" smooth="yes"/>
      <point x="477" y="746"/>
      <point x="529" y="791"/>
      <point x="605" y="791" type="curve" smooth="yes"/>
      <point x="686" y="791"/>
      <point x="736" y="746"/>
      <point x="736" y="676" type="curve" smooth="yes"/>
      <point x="736" y="646"/>
      <point x="726" y="619"/>
      <point x="707" y="596" type="curve"/>
      <point x="724" y="582" type="line"/>
      <point x="747" y="607"/>
      <point x="760" y="641"/>
    </contour>
  </outline>
</glyph>
<glyph name="ai_cham" format="2">
  <advance width="884"/>
  <unicode hex="AA04"/>
  <outline>
    <contour>
      <point x="794" y="329" type="curve" smooth="yes"/>
      <point x="794" y="451"/>
      <point x="729" y="556"/>
      <point x="624" y="556" type="curve" smooth="yes"/>
      <point x="527" y="556"/>
      <point x="512" y="475"/>
      <point x="450" y="475" type="curve" smooth="yes"/>
      <point x="388" y="475"/>
      <point x="373" y="556"/>
      <point x="276" y="556" type="curve" smooth="yes"/>
      <point x="161" y="556"/>
      <point x="90" y="457"/>
      <point x="90" y="294" type="curve" smooth="yes"/>
      <point x="90" y="105"/>
      <point x="182" y="-10"/>
      <point x="304" y="-10" type="curve" smooth="yes"/>
      <point x="354" y="-10"/>
      <point x="386" y="19"/>
      <point x="386" y="62" type="curve" smooth="yes"/>
      <point x="386" y="105"/>
      <point x="354" y="133"/>
      <point x="304" y="133" type="curve" smooth="yes"/>
      <point x="252" y="133"/>
      <point x="214" y="95"/>
      <point x="201" y="33" type="curve"/>
      <point x="224" y="33" type="line"/>
      <point x="234" y="82"/>
      <point x="264" y="112"/>
      <point x="304" y="112" type="curve" smooth="yes"/>
      <point x="340" y="112"/>
      <point x="363" y="94"/>
      <point x="363" y="63" type="curve" smooth="yes"/>
      <point x="363" y="32"/>
      <point x="339" y="12"/>
      <point x="303" y="12" type="curve" smooth="yes"/>
      <point x="197" y="12"/>
      <point x="114" y="117"/>
      <point x="114" y="294" type="curve" smooth="yes"/>
      <point x="114" y="444"/>
      <point x="176" y="534"/>
      <point x="278" y="534" type="curve" smooth="yes"/>
      <point x="363" y="534"/>
      <point x="378" y="454"/>
      <point x="450" y="454" type="curve" smooth="yes"/>
      <point x="522" y="454"/>
      <point x="537" y="534"/>
      <point x="622" y="534" type="curve" smooth="yes"/>
      <point x="714" y="534"/>
      <point x="770" y="438"/>
      <point x="770" y="329" type="curve" smooth="yes"/>
      <point x="770" y="164"/>
      <point x="680" y="66"/>
      <point x="493" y="-30" type="curve" smooth="yes"/>
      <point x="405" y="-75"/>
      <point x="361" y="-115"/>
      <point x="361" y="-166" type="curve" smooth="yes"/>
      <point x="361" y="-216"/>
      <point x="404" y="-248"/>
      <point x="471" y="-248" type="curve" smooth="yes"/>
      <point x="542" y="-248"/>
      <point x="588" y="-203"/>
      <point x="588" y="-132" type="curve"/>
      <point x="564" y="-132" type="line"/>
      <point x="564" y="-192"/>
      <point x="530" y="-226"/>
      <point x="471" y="-226" type="curve" smooth="yes"/>
      <point x="416" y="-226"/>
      <point x="385" y="-205"/>
      <point x="385" y="-165" type="curve" smooth="yes"/>
      <point x="385" y="-123"/>
      <point x="427" y="-88"/>
      <point x="507" y="-47" type="curve" smooth="yes"/>
      <point x="703" y="54"/>
      <point x="794" y="157"/>
    </contour>
  </outline>
</glyph>
<glyph name="o_cham" format="2">
  <advance width="525"/>
  <unicode hex="AA05"/>
  <outline>
    <contour>
      <point x="448" y="375" type="curve" smooth="yes"/>
      <point x="448" y="489"/>
      <point x="367" y="556"/>
      <point x="249" y="556" type="curve" smooth="yes"/>
      <point x="135" y="556"/>
      <point x="57" y="481"/>
      <point x="57" y="381" type="curve" smooth="yes"/>
      <point x="57" y="292"/>
      <point x="113" y="224"/>
      <point x="185" y="224" type="curve" smooth="yes"/>
      <point x="225" y="224"/>
      <point x="257" y="251"/>
      <point x="257" y="290" type="curve" smooth="yes"/>
      <point x="257" y="327"/>
      <point x="229" y="351"/>
      <point x="190" y="351" type="curve" smooth="yes"/>
      <point x="146" y="351"/>
      <point x="118" y="319"/>
      <point x="107" y="269" type="curve"/>
      <point x="127" y="255" type="line"/>
      <point x="134" y="300"/>
      <point x="154" y="330"/>
      <point x="190" y="330" type="curve" smooth="yes"/>
      <point x="217" y="330"/>
      <point x="235" y="316"/>
      <point x="235" y="290" type="curve" smooth="yes"/>
      <point x="235" y="262"/>
      <point x="213" y="245"/>
      <point x="185" y="245" type="curve" smooth="yes"/>
      <point x="125" y="245"/>
      <point x="81" y="303"/>
      <point x="81" y="381" type="curve" smooth="yes"/>
      <point x="81" y="470"/>
      <point x="147" y="534"/>
      <point x="249" y="534" type="curve" smooth="yes"/>
      <point x="355" y="534"/>
      <point x="424" y="478"/>
      <point x="424" y="374" type="curve" smooth="yes"/>
      <point x="424" y="314"/>
      <point x="395" y="247"/>
      <point x="325" y="220" type="curve"/>
      <point x="325" y="208" type="line"/>
      <point x="381" y="182"/>
      <point x="408" y="142"/>
      <point x="408" y="97" type="curve" smooth="yes"/>
      <point x="408" y="48"/>
      <point x="378" y="12"/>
      <point x="321" y="12" type="curve" smooth="yes"/>
      <point x="278" y="12"/>
      <point x="253" y="23"/>
      <point x="253" y="47" type="curve" smooth="yes"/>
      <point x="253" y="65"/>
      <point x="267" y="78"/>
      <point x="295" y="78" type="curve" smooth="yes"/>
      <point x="328" y="78"/>
      <point x="342" y="61"/>
      <point x="342" y="31" type="curve" smooth="yes"/>
      <point x="342" y="23"/>
      <point x="340" y="13"/>
      <point x="337" y="3" type="curve"/>
      <point x="360" y="8" type="line"/>
      <point x="362" y="16"/>
      <point x="363" y="24"/>
      <point x="363" y="32" type="curve" smooth="yes"/>
      <point x="363" y="74"/>
      <point x="339" y="99"/>
      <point x="294" y="99" type="curve" smooth="yes"/>
      <point x="254" y="99"/>
      <point x="230" y="77"/>
      <point x="230" y="46" type="curve" smooth="yes"/>
      <point x="230" y="12"/>
      <point x="267" y="-10"/>
      <point x="321" y="-10" type="curve" smooth="yes"/>
      <point x="390" y="-10"/>
      <point x="432" y="37"/>
      <point x="432" y="96" type="curve" smooth="yes"/>
      <point x="432" y="145"/>
      <point x="403" y="187"/>
      <point x="347" y="218" type="curve"/>
      <point x="348" y="207" type="line"/>
      <point x="414" y="235"/>
      <point x="448" y="313"/>
    </contour>
  </outline>
</glyph>
<glyph name="ka_cham" format="2">
  <advance width="792"/>
  <unicode hex="AA06"/>
  <note>
uniAA06
</note>
  <guideline x="-478" y="-33" angle="0"/>
  <outline>
    <contour>
      <point x="732" y="402" type="curve" smooth="yes"/>
      <point x="732" y="494"/>
      <point x="671" y="556"/>
      <point x="575" y="556" type="curve" smooth="yes"/>
      <point x="480" y="556"/>
      <point x="411" y="491"/>
      <point x="411" y="374" type="curve"/>
      <point x="426" y="374" type="line"/>
      <point x="427" y="490"/>
      <point x="359" y="556"/>
      <point x="264" y="556" type="curve" smooth="yes"/>
      <point x="172" y="556"/>
      <point x="108" y="495"/>
      <point x="108" y="406" type="curve" smooth="yes"/>
      <point x="108" y="316"/>
      <point x="170" y="244"/>
      <point x="170" y="151" type="curve" smooth="yes"/>
      <point x="170" y="65"/>
      <point x="126" y="5"/>
      <point x="51" y="-11" type="curve"/>
      <point x="56" y="-33" type="line"/>
      <point x="141" y="-15"/>
      <point x="194" y="54"/>
      <point x="194" y="151" type="curve" smooth="yes"/>
      <point x="194" y="250"/>
      <point x="132" y="322"/>
      <point x="132" y="406" type="curve" smooth="yes"/>
      <point x="132" y="484"/>
      <point x="184" y="534"/>
      <point x="266" y="534" type="curve" smooth="yes"/>
      <point x="347" y="534"/>
      <point x="407" y="478"/>
      <point x="407" y="372" type="curve"/>
      <point x="430" y="372" type="line"/>
      <point x="430" y="479"/>
      <point x="492" y="534"/>
      <point x="573" y="534" type="curve" smooth="yes"/>
      <point x="659" y="534"/>
      <point x="708" y="483"/>
      <point x="708" y="402" type="curve" smooth="yes"/>
      <point x="708" y="359"/>
      <point x="694" y="319"/>
      <point x="668" y="290" type="curve"/>
      <point x="685" y="275" type="line"/>
      <point x="717" y="310"/>
      <point x="732" y="353"/>
    </contour>
  </outline>
</glyph>
<glyph name="kha_cham" format="2">
  <advance width="1216"/>
  <unicode hex="AA07"/>
  <note>
uniAA07
</note>
  <outline>
    <contour>
      <point x="1156" y="402" type="curve" smooth="yes"/>
      <point x="1156" y="494"/>
      <point x="1095" y="556"/>
      <point x="1000" y="556" type="curve" smooth="yes"/>
      <point x="917" y="556"/>
      <point x="857" y="509"/>
      <point x="843" y="415" type="curve" smooth="yes"/>
      <point x="828" y="316"/>
      <point x="799" y="304"/>
      <point x="681" y="274" type="curve" smooth="yes"/>
      <point x="557" y="243"/>
      <point x="488" y="174"/>
      <point x="488" y="82" type="curve" smooth="yes"/>
      <point x="488" y="26"/>
      <point x="520" y="-10"/>
      <point x="576" y="-10" type="curve" smooth="yes"/>
      <point x="680" y="-10"/>
      <point x="744" y="104"/>
      <point x="744" y="293" type="curve" smooth="yes"/>
      <point x="744" y="461"/>
      <point x="679" y="556"/>
      <point x="572" y="556" type="curve" smooth="yes"/>
      <point x="480" y="556"/>
      <point x="413" y="491"/>
      <point x="413" y="374" type="curve"/>
      <point x="428" y="374" type="line"/>
      <point x="429" y="490"/>
      <point x="361" y="556"/>
      <point x="265" y="556" type="curve" smooth="yes"/>
      <point x="171" y="556"/>
      <point x="108" y="495"/>
      <point x="108" y="406" type="curve" smooth="yes"/>
      <point x="108" y="316"/>
      <point x="170" y="244"/>
      <point x="170" y="151" type="curve" smooth="yes"/>
      <point x="170" y="65"/>
      <point x="126" y="5"/>
      <point x="51" y="-11" type="curve"/>
      <point x="56" y="-33" type="line"/>
      <point x="141" y="-15"/>
      <point x="194" y="54"/>
      <point x="194" y="151" type="curve" smooth="yes"/>
      <point x="194" y="250"/>
      <point x="132" y="322"/>
      <point x="132" y="406" type="curve" smooth="yes"/>
      <point x="132" y="484"/>
      <point x="183" y="534"/>
      <point x="266" y="534" type="curve" smooth="yes"/>
      <point x="349" y="534"/>
      <point x="409" y="478"/>
      <point x="409" y="372" type="curve"/>
      <point x="432" y="372" type="line"/>
      <point x="432" y="479"/>
      <point x="492" y="534"/>
      <point x="570" y="534" type="curve" smooth="yes"/>
      <point x="666" y="534"/>
      <point x="720" y="449"/>
      <point x="720" y="293" type="curve" smooth="yes"/>
      <point x="720" y="116"/>
      <point x="664" y="12"/>
      <point x="575" y="12" type="curve" smooth="yes"/>
      <point x="535" y="12"/>
      <point x="512" y="43"/>
      <point x="512" y="83" type="curve" smooth="yes"/>
      <point x="512" y="163"/>
      <point x="572" y="225"/>
      <point x="689" y="254" type="curve" smooth="yes"/>
      <point x="813" y="285"/>
      <point x="851" y="304"/>
      <point x="866" y="411" type="curve" smooth="yes"/>
      <point x="878" y="494"/>
      <point x="930" y="534"/>
      <point x="999" y="534" type="curve" smooth="yes"/>
      <point x="1084" y="534"/>
      <point x="1132" y="483"/>
      <point x="1132" y="402" type="curve" smooth="yes"/>
      <point x="1132" y="359"/>
      <point x="1118" y="319"/>
      <point x="1092" y="290" type="curve"/>
      <point x="1109" y="275" type="line"/>
      <point x="1141" y="310"/>
      <point x="1156" y="353"/>
    </contour>
  </outline>
</glyph>
<glyph name="ga_cham" format="2">
  <advance width="837"/>
  <unicode hex="AA08"/>
  <note>
uniAA08
</note>
  <outline>
    <contour>
      <point x="777" y="403" type="curve" smooth="yes"/>
      <point x="777" y="494"/>
      <point x="715" y="556"/>
      <point x="614" y="556" type="curve" smooth="yes"/>
      <point x="511" y="556"/>
      <point x="444" y="484"/>
      <point x="445" y="368" type="curve"/>
      <point x="460" y="368" type="line"/>
      <point x="461" y="483"/>
      <point x="394" y="556"/>
      <point x="289" y="556" type="curve" smooth="yes"/>
      <point x="165" y="556"/>
      <point x="90" y="457"/>
      <point x="90" y="294" type="curve" smooth="yes"/>
      <point x="90" y="105"/>
      <point x="182" y="-10"/>
      <point x="304" y="-10" type="curve" smooth="yes"/>
      <point x="354" y="-10"/>
      <point x="386" y="19"/>
      <point x="386" y="62" type="curve" smooth="yes"/>
      <point x="386" y="105"/>
      <point x="354" y="133"/>
      <point x="304" y="133" type="curve" smooth="yes"/>
      <point x="252" y="133"/>
      <point x="214" y="95"/>
      <point x="201" y="33" type="curve"/>
      <point x="224" y="33" type="line"/>
      <point x="234" y="82"/>
      <point x="264" y="112"/>
      <point x="304" y="112" type="curve" smooth="yes"/>
      <point x="340" y="112"/>
      <point x="363" y="94"/>
      <point x="363" y="63" type="curve" smooth="yes"/>
      <point x="363" y="32"/>
      <point x="339" y="12"/>
      <point x="303" y="12" type="curve" smooth="yes"/>
      <point x="197" y="12"/>
      <point x="114" y="117"/>
      <point x="114" y="294" type="curve" smooth="yes"/>
      <point x="114" y="444"/>
      <point x="180" y="534"/>
      <point x="289" y="534" type="curve" smooth="yes"/>
      <point x="380" y="534"/>
      <point x="441" y="471"/>
      <point x="441" y="368" type="curve"/>
      <point x="464" y="368" type="line"/>
      <point x="464" y="471"/>
      <point x="524" y="534"/>
      <point x="614" y="534" type="curve" smooth="yes"/>
      <point x="701" y="534"/>
      <point x="753" y="482"/>
      <point x="753" y="403" type="curve" smooth="yes"/>
      <point x="753" y="360"/>
      <point x="737" y="321"/>
      <point x="711" y="289" type="curve"/>
      <point x="730" y="275" type="line"/>
      <point x="760" y="312"/>
      <point x="777" y="354"/>
    </contour>
  </outline>
</glyph>
<glyph name="gha_cham" format="2">
  <advance width="1268"/>
  <unicode hex="AA09"/>
  <note>
uniAA09
</note>
  <outline>
    <contour>
      <point x="1208" y="403" type="curve" smooth="yes"/>
      <point x="1208" y="494"/>
      <point x="1148" y="556"/>
      <point x="1049" y="556" type="curve" smooth="yes"/>
      <point x="956" y="556"/>
      <point x="889" y="490"/>
      <point x="889" y="374" type="curve"/>
      <point x="904" y="374" type="line"/>
      <point x="905" y="490"/>
      <point x="837" y="556"/>
      <point x="742" y="556" type="curve" smooth="yes"/>
      <point x="647" y="556"/>
      <point x="588" y="500"/>
      <point x="588" y="416" type="curve" smooth="yes"/>
      <point x="588" y="377"/>
      <point x="603" y="339"/>
      <point x="603" y="313" type="curve" smooth="yes"/>
      <point x="603" y="196"/>
      <point x="429" y="210"/>
      <point x="429" y="94" type="curve" smooth="yes"/>
      <point x="429" y="64"/>
      <point x="441" y="38"/>
      <point x="464" y="4" type="curve"/>
      <point x="467" y="12" type="line"/>
      <point x="462" y="12"/>
      <point x="459" y="12"/>
      <point x="454" y="12" type="curve"/>
      <point x="360" y="12"/>
      <point x="303" y="66"/>
      <point x="303" y="156" type="curve" smooth="yes"/>
      <point x="303" y="240"/>
      <point x="367" y="306"/>
      <point x="367" y="400" type="curve" smooth="yes"/>
      <point x="367" y="496"/>
      <point x="307" y="556"/>
      <point x="217" y="556" type="curve" smooth="yes"/>
      <point x="124" y="556"/>
      <point x="60" y="498"/>
      <point x="60" y="408" type="curve" smooth="yes"/>
      <point x="60" y="360"/>
      <point x="81" y="313"/>
      <point x="113" y="280" type="curve"/>
      <point x="130" y="295" type="line"/>
      <point x="103" y="324"/>
      <point x="84" y="365"/>
      <point x="84" y="408" type="curve" smooth="yes"/>
      <point x="84" y="487"/>
      <point x="136" y="534"/>
      <point x="217" y="534" type="curve" smooth="yes"/>
      <point x="295" y="534"/>
      <point x="343" y="485"/>
      <point x="343" y="400" type="curve" smooth="yes"/>
      <point x="343" y="313"/>
      <point x="279" y="246"/>
      <point x="279" y="157" type="curve" smooth="yes"/>
      <point x="279" y="55"/>
      <point x="348" y="-10"/>
      <point x="454" y="-10" type="curve"/>
      <point x="465" y="-10"/>
      <point x="477" y="-10"/>
      <point x="488" y="-10" type="curve"/>
      <point x="493" y="3" type="line"/>
      <point x="466" y="35"/>
      <point x="453" y="65"/>
      <point x="453" y="94" type="curve" smooth="yes"/>
      <point x="453" y="200"/>
      <point x="626" y="179"/>
      <point x="626" y="313" type="curve" smooth="yes"/>
      <point x="626" y="345"/>
      <point x="612" y="377"/>
      <point x="612" y="417" type="curve" smooth="yes"/>
      <point x="612" y="489"/>
      <point x="659" y="534"/>
      <point x="743" y="534" type="curve" smooth="yes"/>
      <point x="825" y="534"/>
      <point x="885" y="478"/>
      <point x="885" y="372" type="curve"/>
      <point x="908" y="372" type="line"/>
      <point x="908" y="481"/>
      <point x="969" y="534"/>
      <point x="1049" y="534" type="curve" smooth="yes"/>
      <point x="1133" y="534"/>
      <point x="1184" y="482"/>
      <point x="1184" y="403" type="curve" smooth="yes"/>
      <point x="1184" y="359"/>
      <point x="1170" y="319"/>
      <point x="1144" y="290" type="curve"/>
      <point x="1161" y="275" type="line"/>
      <point x="1193" y="310"/>
      <point x="1208" y="353"/>
    </contour>
  </outline>
</glyph>
<glyph name="ngue_cham" format="2">
  <advance width="951"/>
  <unicode hex="AA0A"/>
  <note>
uniAA0A
</note>
  <outline>
    <contour>
      <point x="891" y="391" type="curve" smooth="yes"/>
      <point x="891" y="489"/>
      <point x="820" y="556"/>
      <point x="717" y="556" type="curve" smooth="yes"/>
      <point x="614" y="556"/>
      <point x="543" y="488"/>
      <point x="543" y="391" type="curve" smooth="yes"/>
      <point x="543" y="307"/>
      <point x="598" y="243"/>
      <point x="667" y="243" type="curve" smooth="yes"/>
      <point x="707" y="243"/>
      <point x="739" y="271"/>
      <point x="739" y="309" type="curve" smooth="yes"/>
      <point x="739" y="347"/>
      <point x="709" y="373"/>
      <point x="667" y="373" type="curve" smooth="yes"/>
      <point x="621" y="373"/>
      <point x="590" y="339"/>
      <point x="583" y="286" type="curve" smooth="yes"/>
      <point x="578" y="246"/>
      <point x="578" y="205"/>
      <point x="575" y="178" type="curve" smooth="yes"/>
      <point x="564" y="62"/>
      <point x="492" y="12"/>
      <point x="347" y="-13" type="curve"/>
      <point x="355" y="-30" type="line"/>
      <point x="406" y="27"/>
      <point x="435" y="89"/>
      <point x="435" y="154" type="curve" smooth="yes"/>
      <point x="435" y="231"/>
      <point x="385" y="285"/>
      <point x="311" y="285" type="curve" smooth="yes"/>
      <point x="299" y="285"/>
      <point x="286" y="283"/>
      <point x="272" y="280" type="curve"/>
      <point x="278" y="269" type="line"/>
      <point x="337" y="293"/>
      <point x="370" y="350"/>
      <point x="370" y="412" type="curve" smooth="yes"/>
      <point x="370" y="498"/>
      <point x="306" y="556"/>
      <point x="215" y="556" type="curve" smooth="yes"/>
      <point x="124" y="556"/>
      <point x="60" y="496"/>
      <point x="60" y="409" type="curve" smooth="yes"/>
      <point x="60" y="360"/>
      <point x="81" y="312"/>
      <point x="115" y="280" type="curve"/>
      <point x="132" y="295" type="line"/>
      <point x="103" y="322"/>
      <point x="84" y="364"/>
      <point x="84" y="409" type="curve" smooth="yes"/>
      <point x="84" y="484"/>
      <point x="136" y="534"/>
      <point x="215" y="534" type="curve" smooth="yes"/>
      <point x="294" y="534"/>
      <point x="346" y="486"/>
      <point x="346" y="412" type="curve" smooth="yes"/>
      <point x="346" y="358"/>
      <point x="318" y="306"/>
      <point x="266" y="280" type="curve"/>
      <point x="270" y="262" type="line"/>
      <point x="285" y="265"/>
      <point x="298" y="266"/>
      <point x="311" y="266" type="curve" smooth="yes"/>
      <point x="373" y="266"/>
      <point x="411" y="222"/>
      <point x="411" y="154" type="curve" smooth="yes"/>
      <point x="411" y="95"/>
      <point x="385" y="38"/>
      <point x="340" y="-14" type="curve"/>
      <point x="351" y="-33" type="line"/>
      <point x="506" y="-8"/>
      <point x="588" y="48"/>
      <point x="598" y="179" type="curve" smooth="yes"/>
      <point x="600" y="206"/>
      <point x="601" y="252"/>
      <point x="604" y="279" type="curve" smooth="yes"/>
      <point x="609" y="323"/>
      <point x="631" y="352"/>
      <point x="668" y="352" type="curve" smooth="yes"/>
      <point x="698" y="352"/>
      <point x="716" y="337"/>
      <point x="716" y="309" type="curve" smooth="yes"/>
      <point x="716" y="281"/>
      <point x="696" y="264"/>
      <point x="667" y="264" type="curve" smooth="yes"/>
      <point x="610" y="264"/>
      <point x="567" y="317"/>
      <point x="567" y="391" type="curve" smooth="yes"/>
      <point x="567" y="477"/>
      <point x="626" y="534"/>
      <point x="717" y="534" type="curve" smooth="yes"/>
      <point x="808" y="534"/>
      <point x="867" y="478"/>
      <point x="867" y="391" type="curve" smooth="yes"/>
      <point x="867" y="341"/>
      <point x="845" y="293"/>
      <point x="812" y="263" type="curve"/>
      <point x="829" y="248" type="line"/>
      <point x="867" y="284"/>
      <point x="891" y="337"/>
    </contour>
  </outline>
</glyph>
<glyph name="nga_cham" format="2">
  <advance width="951"/>
  <unicode hex="AA0B"/>
  <note>
uniAA0B
</note>
  <outline>
    <contour>
      <point x="891" y="391" type="curve" smooth="yes"/>
      <point x="891" y="489"/>
      <point x="820" y="556"/>
      <point x="717" y="556" type="curve" smooth="yes"/>
      <point x="614" y="556"/>
      <point x="543" y="488"/>
      <point x="543" y="391" type="curve" smooth="yes"/>
      <point x="543" y="307"/>
      <point x="598" y="243"/>
      <point x="667" y="243" type="curve" smooth="yes"/>
      <point x="707" y="243"/>
      <point x="739" y="271"/>
      <point x="739" y="309" type="curve" smooth="yes"/>
      <point x="739" y="347"/>
      <point x="709" y="373"/>
      <point x="667" y="373" type="curve" smooth="yes"/>
      <point x="621" y="373"/>
      <point x="589" y="339"/>
      <point x="583" y="286" type="curve" smooth="yes"/>
      <point x="580" y="263"/>
      <point x="577" y="236"/>
      <point x="576" y="203" type="curve" smooth="yes"/>
      <point x="572" y="110"/>
      <point x="563" y="69"/>
      <point x="501" y="40" type="curve" smooth="yes"/>
      <point x="461" y="21"/>
      <point x="414" y="13"/>
      <point x="364" y="-15" type="curve"/>
      <point x="364" y="-25" type="line"/>
      <point x="415" y="14"/>
      <point x="435" y="96"/>
      <point x="435" y="154" type="curve" smooth="yes"/>
      <point x="435" y="231"/>
      <point x="385" y="285"/>
      <point x="311" y="285" type="curve" smooth="yes"/>
      <point x="299" y="285"/>
      <point x="286" y="283"/>
      <point x="272" y="280" type="curve"/>
      <point x="278" y="269" type="line"/>
      <point x="337" y="293"/>
      <point x="370" y="350"/>
      <point x="370" y="412" type="curve" smooth="yes"/>
      <point x="370" y="498"/>
      <point x="306" y="556"/>
      <point x="215" y="556" type="curve" smooth="yes"/>
      <point x="124" y="556"/>
      <point x="60" y="496"/>
      <point x="60" y="409" type="curve" smooth="yes"/>
      <point x="60" y="360"/>
      <point x="81" y="312"/>
      <point x="115" y="280" type="curve"/>
      <point x="132" y="295" type="line"/>
      <point x="103" y="322"/>
      <point x="84" y="364"/>
      <point x="84" y="409" type="curve" smooth="yes"/>
      <point x="84" y="484"/>
      <point x="136" y="534"/>
      <point x="215" y="534" type="curve" smooth="yes"/>
      <point x="294" y="534"/>
      <point x="346" y="486"/>
      <point x="346" y="412" type="curve" smooth="yes"/>
      <point x="346" y="358"/>
      <point x="318" y="306"/>
      <point x="266" y="280" type="curve"/>
      <point x="270" y="262" type="line"/>
      <point x="285" y="265"/>
      <point x="298" y="266"/>
      <point x="311" y="266" type="curve" smooth="yes"/>
      <point x="373" y="266"/>
      <point x="411" y="222"/>
      <point x="411" y="154" type="curve" smooth="yes"/>
      <point x="411" y="75"/>
      <point x="374" y="1"/>
      <point x="323" y="-34" type="curve" smooth="yes"/>
      <point x="254" y="-81"/>
      <point x="219" y="-120"/>
      <point x="219" y="-168" type="curve" smooth="yes"/>
      <point x="219" y="-212"/>
      <point x="253" y="-248"/>
      <point x="302" y="-248" type="curve" smooth="yes"/>
      <point x="411" y="-248"/>
      <point x="420" y="-82"/>
      <point x="501" y="-82" type="curve" smooth="yes"/>
      <point x="528" y="-82"/>
      <point x="545" y="-100"/>
      <point x="545" y="-124" type="curve" smooth="yes"/>
      <point x="545" y="-139"/>
      <point x="538" y="-157"/>
      <point x="527" y="-171" type="curve"/>
      <point x="545" y="-185" type="line"/>
      <point x="560" y="-166"/>
      <point x="569" y="-144"/>
      <point x="569" y="-124" type="curve" smooth="yes"/>
      <point x="569" y="-89"/>
      <point x="540" y="-60"/>
      <point x="503" y="-60" type="curve" smooth="yes"/>
      <point x="403" y="-60"/>
      <point x="394" y="-226"/>
      <point x="303" y="-226" type="curve" smooth="yes"/>
      <point x="264" y="-226"/>
      <point x="243" y="-199"/>
      <point x="243" y="-167" type="curve" smooth="yes"/>
      <point x="243" y="-131"/>
      <point x="267" y="-100"/>
      <point x="336" y="-53" type="curve" smooth="yes"/>
      <point x="399" y="-10"/>
      <point x="456" y="-5"/>
      <point x="509" y="19" type="curve" smooth="yes"/>
      <point x="581" y="52"/>
      <point x="593" y="95"/>
      <point x="598" y="198" type="curve" smooth="yes"/>
      <point x="600" y="237"/>
      <point x="602" y="262"/>
      <point x="604" y="279" type="curve" smooth="yes"/>
      <point x="608" y="323"/>
      <point x="631" y="352"/>
      <point x="668" y="352" type="curve" smooth="yes"/>
      <point x="698" y="352"/>
      <point x="716" y="337"/>
      <point x="716" y="309" type="curve" smooth="yes"/>
      <point x="716" y="281"/>
      <point x="696" y="264"/>
      <point x="667" y="264" type="curve" smooth="yes"/>
      <point x="610" y="264"/>
      <point x="567" y="317"/>
      <point x="567" y="391" type="curve" smooth="yes"/>
      <point x="567" y="477"/>
      <point x="626" y="534"/>
      <point x="717" y="534" type="curve" smooth="yes"/>
      <point x="808" y="534"/>
      <point x="867" y="478"/>
      <point x="867" y="391" type="curve" smooth="yes"/>
      <point x="867" y="341"/>
      <point x="845" y="293"/>
      <point x="812" y="263" type="curve"/>
      <point x="829" y="248" type="line"/>
      <point x="867" y="284"/>
      <point x="891" y="337"/>
    </contour>
  </outline>
</glyph>
<glyph name="cha_cham" format="2">
  <advance width="902"/>
  <unicode hex="AA0C"/>
  <note>
uniAA0C
</note>
  <outline>
    <contour>
      <point x="842" y="402" type="curve" smooth="yes"/>
      <point x="842" y="494"/>
      <point x="781" y="556"/>
      <point x="686" y="556" type="curve" smooth="yes"/>
      <point x="603" y="556"/>
      <point x="543" y="509"/>
      <point x="529" y="415" type="curve" smooth="yes"/>
      <point x="514" y="316"/>
      <point x="485" y="304"/>
      <point x="367" y="274" type="curve" smooth="yes"/>
      <point x="243" y="243"/>
      <point x="174" y="174"/>
      <point x="174" y="82" type="curve" smooth="yes"/>
      <point x="174" y="26"/>
      <point x="206" y="-10"/>
      <point x="262" y="-10" type="curve" smooth="yes"/>
      <point x="366" y="-10"/>
      <point x="430" y="104"/>
      <point x="430" y="280" type="curve" smooth="yes"/>
      <point x="430" y="453"/>
      <point x="348" y="556"/>
      <point x="225" y="556" type="curve" smooth="yes"/>
      <point x="122" y="556"/>
      <point x="64" y="495"/>
      <point x="64" y="412" type="curve" smooth="yes"/>
      <point x="64" y="368"/>
      <point x="80" y="328"/>
      <point x="106" y="297" type="curve"/>
      <point x="124" y="311" type="line"/>
      <point x="102" y="338"/>
      <point x="88" y="373"/>
      <point x="88" y="412" type="curve" smooth="yes"/>
      <point x="88" y="483"/>
      <point x="135" y="534"/>
      <point x="226" y="534" type="curve" smooth="yes"/>
      <point x="334" y="534"/>
      <point x="406" y="441"/>
      <point x="406" y="280" type="curve" smooth="yes"/>
      <point x="406" y="116"/>
      <point x="350" y="12"/>
      <point x="261" y="12" type="curve" smooth="yes"/>
      <point x="221" y="12"/>
      <point x="198" y="43"/>
      <point x="198" y="83" type="curve" smooth="yes"/>
      <point x="198" y="163"/>
      <point x="258" y="225"/>
      <point x="375" y="254" type="curve" smooth="yes"/>
      <point x="499" y="285"/>
      <point x="537" y="304"/>
      <point x="552" y="411" type="curve" smooth="yes"/>
      <point x="564" y="494"/>
      <point x="616" y="534"/>
      <point x="685" y="534" type="curve" smooth="yes"/>
      <point x="770" y="534"/>
      <point x="818" y="483"/>
      <point x="818" y="402" type="curve" smooth="yes"/>
      <point x="818" y="359"/>
      <point x="804" y="319"/>
      <point x="778" y="290" type="curve"/>
      <point x="795" y="275" type="line"/>
      <point x="827" y="310"/>
      <point x="842" y="353"/>
    </contour>
  </outline>
</glyph>
<glyph name="chha_cham" format="2">
  <advance width="1448"/>
  <unicode hex="AA0D"/>
  <note>
uniAA0D
</note>
  <outline>
    <contour>
      <point x="1388" y="408" type="curve" smooth="yes"/>
      <point x="1388" y="497"/>
      <point x="1327" y="556"/>
      <point x="1238" y="556" type="curve" smooth="yes"/>
      <point x="1148" y="556"/>
      <point x="1088" y="501"/>
      <point x="1088" y="417" type="curve" smooth="yes"/>
      <point x="1088" y="359"/>
      <point x="1121" y="305"/>
      <point x="1121" y="259" type="curve" smooth="yes"/>
      <point x="1121" y="198"/>
      <point x="1087" y="160"/>
      <point x="1026" y="160" type="curve" smooth="yes"/>
      <point x="977" y="160"/>
      <point x="941" y="182"/>
      <point x="941" y="216" type="curve" smooth="yes"/>
      <point x="941" y="243"/>
      <point x="961" y="255"/>
      <point x="985" y="255" type="curve" smooth="yes"/>
      <point x="1028" y="255"/>
      <point x="1054" y="221"/>
      <point x="1054" y="161" type="curve" smooth="yes"/>
      <point x="1054" y="68"/>
      <point x="998" y="12"/>
      <point x="907" y="12" type="curve" smooth="yes"/>
      <point x="817" y="12"/>
      <point x="761" y="70"/>
      <point x="761" y="155" type="curve" smooth="yes"/>
      <point x="761" y="240"/>
      <point x="840" y="305"/>
      <point x="840" y="400" type="curve" smooth="yes"/>
      <point x="840" y="496"/>
      <point x="781" y="556"/>
      <point x="688" y="556" type="curve" smooth="yes"/>
      <point x="603" y="556"/>
      <point x="543" y="509"/>
      <point x="529" y="415" type="curve" smooth="yes"/>
      <point x="514" y="316"/>
      <point x="485" y="304"/>
      <point x="367" y="274" type="curve" smooth="yes"/>
      <point x="243" y="243"/>
      <point x="174" y="174"/>
      <point x="174" y="82" type="curve" smooth="yes"/>
      <point x="174" y="26"/>
      <point x="206" y="-10"/>
      <point x="262" y="-10" type="curve" smooth="yes"/>
      <point x="366" y="-10"/>
      <point x="430" y="104"/>
      <point x="430" y="280" type="curve" smooth="yes"/>
      <point x="430" y="453"/>
      <point x="348" y="556"/>
      <point x="225" y="556" type="curve" smooth="yes"/>
      <point x="122" y="556"/>
      <point x="64" y="495"/>
      <point x="64" y="412" type="curve" smooth="yes"/>
      <point x="64" y="368"/>
      <point x="80" y="328"/>
      <point x="106" y="297" type="curve"/>
      <point x="124" y="311" type="line"/>
      <point x="102" y="338"/>
      <point x="88" y="373"/>
      <point x="88" y="412" type="curve" smooth="yes"/>
      <point x="88" y="483"/>
      <point x="135" y="534"/>
      <point x="226" y="534" type="curve" smooth="yes"/>
      <point x="334" y="534"/>
      <point x="406" y="441"/>
      <point x="406" y="280" type="curve" smooth="yes"/>
      <point x="406" y="116"/>
      <point x="350" y="12"/>
      <point x="261" y="12" type="curve" smooth="yes"/>
      <point x="221" y="12"/>
      <point x="198" y="43"/>
      <point x="198" y="83" type="curve" smooth="yes"/>
      <point x="198" y="163"/>
      <point x="258" y="225"/>
      <point x="375" y="254" type="curve" smooth="yes"/>
      <point x="499" y="285"/>
      <point x="537" y="304"/>
      <point x="552" y="411" type="curve" smooth="yes"/>
      <point x="564" y="494"/>
      <point x="616" y="534"/>
      <point x="687" y="534" type="curve" smooth="yes"/>
      <point x="769" y="534"/>
      <point x="816" y="485"/>
      <point x="816" y="400" type="curve" smooth="yes"/>
      <point x="816" y="312"/>
      <point x="737" y="246"/>
      <point x="737" y="158" type="curve" smooth="yes"/>
      <point x="737" y="59"/>
      <point x="805" y="-10"/>
      <point x="907" y="-10" type="curve" smooth="yes"/>
      <point x="1010" y="-10"/>
      <point x="1077" y="57"/>
      <point x="1077" y="161" type="curve" smooth="yes"/>
      <point x="1077" y="231"/>
      <point x="1040" y="276"/>
      <point x="985" y="276" type="curve" smooth="yes"/>
      <point x="947" y="276"/>
      <point x="918" y="253"/>
      <point x="918" y="217" type="curve" smooth="yes"/>
      <point x="918" y="171"/>
      <point x="965" y="139"/>
      <point x="1026" y="139" type="curve" smooth="yes"/>
      <point x="1099" y="139"/>
      <point x="1144" y="187"/>
      <point x="1144" y="259" type="curve" smooth="yes"/>
      <point x="1144" y="308"/>
      <point x="1112" y="362"/>
      <point x="1112" y="417" type="curve" smooth="yes"/>
      <point x="1112" y="490"/>
      <point x="1160" y="534"/>
      <point x="1238" y="534" type="curve" smooth="yes"/>
      <point x="1315" y="534"/>
      <point x="1364" y="486"/>
      <point x="1364" y="408" type="curve" smooth="yes"/>
      <point x="1364" y="363"/>
      <point x="1344" y="321"/>
      <point x="1315" y="292" type="curve"/>
      <point x="1331" y="276" type="line"/>
      <point x="1365" y="309"/>
      <point x="1388" y="357"/>
    </contour>
  </outline>
</glyph>
<glyph name="ja_cham" format="2">
  <advance width="1227"/>
  <unicode hex="AA0E"/>
  <note>
uniAA0E
</note>
  <outline>
    <contour>
      <point x="1167" y="403" type="curve" smooth="yes"/>
      <point x="1167" y="494"/>
      <point x="1107" y="556"/>
      <point x="1008" y="556" type="curve" smooth="yes"/>
      <point x="915" y="556"/>
      <point x="848" y="490"/>
      <point x="848" y="374" type="curve"/>
      <point x="863" y="374" type="line"/>
      <point x="864" y="490"/>
      <point x="796" y="556"/>
      <point x="701" y="556" type="curve" smooth="yes"/>
      <point x="608" y="556"/>
      <point x="545" y="495"/>
      <point x="545" y="406" type="curve" smooth="yes"/>
      <point x="545" y="319"/>
      <point x="587" y="259"/>
      <point x="587" y="187" type="curve" smooth="yes"/>
      <point x="587" y="92"/>
      <point x="495" y="14"/>
      <point x="347" y="-13" type="curve"/>
      <point x="355" y="-30" type="line"/>
      <point x="406" y="27"/>
      <point x="435" y="89"/>
      <point x="435" y="154" type="curve" smooth="yes"/>
      <point x="435" y="231"/>
      <point x="385" y="285"/>
      <point x="311" y="285" type="curve" smooth="yes"/>
      <point x="299" y="285"/>
      <point x="286" y="283"/>
      <point x="272" y="280" type="curve"/>
      <point x="278" y="269" type="line"/>
      <point x="337" y="293"/>
      <point x="370" y="350"/>
      <point x="370" y="412" type="curve" smooth="yes"/>
      <point x="370" y="498"/>
      <point x="306" y="556"/>
      <point x="215" y="556" type="curve" smooth="yes"/>
      <point x="124" y="556"/>
      <point x="60" y="496"/>
      <point x="60" y="409" type="curve" smooth="yes"/>
      <point x="60" y="360"/>
      <point x="81" y="312"/>
      <point x="115" y="280" type="curve"/>
      <point x="132" y="295" type="line"/>
      <point x="103" y="322"/>
      <point x="84" y="364"/>
      <point x="84" y="409" type="curve" smooth="yes"/>
      <point x="84" y="484"/>
      <point x="136" y="534"/>
      <point x="215" y="534" type="curve" smooth="yes"/>
      <point x="294" y="534"/>
      <point x="346" y="486"/>
      <point x="346" y="412" type="curve" smooth="yes"/>
      <point x="346" y="358"/>
      <point x="318" y="306"/>
      <point x="266" y="280" type="curve"/>
      <point x="270" y="262" type="line"/>
      <point x="285" y="265"/>
      <point x="298" y="266"/>
      <point x="311" y="266" type="curve" smooth="yes"/>
      <point x="373" y="266"/>
      <point x="411" y="222"/>
      <point x="411" y="154" type="curve" smooth="yes"/>
      <point x="411" y="95"/>
      <point x="385" y="38"/>
      <point x="340" y="-14" type="curve"/>
      <point x="351" y="-33" type="line"/>
      <point x="513" y="-6"/>
      <point x="611" y="80"/>
      <point x="611" y="187" type="curve" smooth="yes"/>
      <point x="611" y="264"/>
      <point x="569" y="322"/>
      <point x="569" y="405" type="curve" smooth="yes"/>
      <point x="569" y="484"/>
      <point x="620" y="534"/>
      <point x="703" y="534" type="curve" smooth="yes"/>
      <point x="784" y="534"/>
      <point x="844" y="478"/>
      <point x="844" y="372" type="curve"/>
      <point x="867" y="372" type="line"/>
      <point x="867" y="481"/>
      <point x="928" y="534"/>
      <point x="1008" y="534" type="curve" smooth="yes"/>
      <point x="1092" y="534"/>
      <point x="1143" y="482"/>
      <point x="1143" y="403" type="curve" smooth="yes"/>
      <point x="1143" y="359"/>
      <point x="1129" y="319"/>
      <point x="1103" y="290" type="curve"/>
      <point x="1120" y="275" type="line"/>
      <point x="1152" y="310"/>
      <point x="1167" y="353"/>
    </contour>
  </outline>
</glyph>
<glyph name="jha_cham" format="2">
  <advance width="1346"/>
  <unicode hex="AA0F"/>
  <note>
uniAA0F
</note>
  <outline>
    <contour>
      <point x="715" y="397" type="curve" smooth="yes"/>
      <point x="715" y="492"/>
      <point x="653" y="556"/>
      <point x="557" y="556" type="curve" smooth="yes"/>
      <point x="459" y="556"/>
      <point x="393" y="495"/>
      <point x="393" y="406" type="curve" smooth="yes"/>
      <point x="393" y="319"/>
      <point x="437" y="263"/>
      <point x="437" y="178" type="curve" smooth="yes"/>
      <point x="437" y="72"/>
      <point x="376" y="12"/>
      <point x="262" y="12" type="curve" smooth="yes"/>
      <point x="157" y="12"/>
      <point x="84" y="64"/>
      <point x="84" y="147" type="curve" smooth="yes"/>
      <point x="84" y="209"/>
      <point x="123" y="255"/>
      <point x="193" y="255" type="curve" smooth="yes"/>
      <point x="257" y="255"/>
      <point x="300" y="210"/>
      <point x="300" y="134" type="curve" smooth="yes"/>
      <point x="300" y="91"/>
      <point x="283" y="39"/>
      <point x="269" y="8" type="curve"/>
      <point x="293" y="8" type="line"/>
      <point x="306" y="37"/>
      <point x="324" y="85"/>
      <point x="324" y="134" type="curve" smooth="yes"/>
      <point x="324" y="221"/>
      <point x="269" y="276"/>
      <point x="192" y="276" type="curve" smooth="yes"/>
      <point x="111" y="276"/>
      <point x="60" y="220"/>
      <point x="60" y="147" type="curve" smooth="yes"/>
      <point x="60" y="53"/>
      <point x="145" y="-10"/>
      <point x="261" y="-10" type="curve" smooth="yes"/>
      <point x="388" y="-10"/>
      <point x="461" y="61"/>
      <point x="461" y="177" type="curve" smooth="yes"/>
      <point x="461" y="268"/>
      <point x="417" y="324"/>
      <point x="417" y="405" type="curve" smooth="yes"/>
      <point x="417" y="483"/>
      <point x="471" y="534"/>
      <point x="558" y="534" type="curve" smooth="yes"/>
      <point x="641" y="534"/>
      <point x="691" y="480"/>
      <point x="691" y="397" type="curve" smooth="yes"/>
      <point x="691" y="311"/>
      <point x="625" y="242"/>
      <point x="625" y="147" type="curve"/>
      <point x="645" y="147" type="line"/>
      <point x="645" y="235"/>
      <point x="715" y="304"/>
    </contour>
    <component base="ra_cham" xOffset="565"/>
  </outline>
</glyph>
<glyph name="nhue_cham" format="2">
  <advance width="1281"/>
  <unicode hex="AA10"/>
  <note>
uniAA10
</note>
  <outline>
    <contour>
      <point x="1221" y="402" type="curve" smooth="yes"/>
      <point x="1221" y="494"/>
      <point x="1160" y="556"/>
      <point x="1065" y="556" type="curve" smooth="yes"/>
      <point x="982" y="556"/>
      <point x="922" y="509"/>
      <point x="908" y="415" type="curve" smooth="yes"/>
      <point x="893" y="316"/>
      <point x="864" y="304"/>
      <point x="746" y="274" type="curve" smooth="yes"/>
      <point x="622" y="243"/>
      <point x="553" y="174"/>
      <point x="553" y="82" type="curve" smooth="yes"/>
      <point x="553" y="26"/>
      <point x="585" y="-10"/>
      <point x="641" y="-10" type="curve" smooth="yes"/>
      <point x="745" y="-10"/>
      <point x="809" y="104"/>
      <point x="809" y="280" type="curve" smooth="yes"/>
      <point x="809" y="454"/>
      <point x="738" y="556"/>
      <point x="624" y="556" type="curve" smooth="yes"/>
      <point x="527" y="556"/>
      <point x="512" y="475"/>
      <point x="450" y="475" type="curve" smooth="yes"/>
      <point x="388" y="475"/>
      <point x="373" y="556"/>
      <point x="276" y="556" type="curve" smooth="yes"/>
      <point x="161" y="556"/>
      <point x="90" y="457"/>
      <point x="90" y="294" type="curve" smooth="yes"/>
      <point x="90" y="105"/>
      <point x="182" y="-10"/>
      <point x="304" y="-10" type="curve" smooth="yes"/>
      <point x="354" y="-10"/>
      <point x="386" y="19"/>
      <point x="386" y="62" type="curve" smooth="yes"/>
      <point x="386" y="105"/>
      <point x="354" y="133"/>
      <point x="304" y="133" type="curve" smooth="yes"/>
      <point x="252" y="133"/>
      <point x="214" y="95"/>
      <point x="201" y="33" type="curve"/>
      <point x="224" y="33" type="line"/>
      <point x="234" y="82"/>
      <point x="264" y="112"/>
      <point x="304" y="112" type="curve" smooth="yes"/>
      <point x="340" y="112"/>
      <point x="363" y="94"/>
      <point x="363" y="63" type="curve" smooth="yes"/>
      <point x="363" y="32"/>
      <point x="339" y="12"/>
      <point x="303" y="12" type="curve" smooth="yes"/>
      <point x="197" y="12"/>
      <point x="114" y="117"/>
      <point x="114" y="294" type="curve" smooth="yes"/>
      <point x="114" y="444"/>
      <point x="176" y="534"/>
      <point x="278" y="534" type="curve" smooth="yes"/>
      <point x="363" y="534"/>
      <point x="378" y="454"/>
      <point x="450" y="454" type="curve" smooth="yes"/>
      <point x="522" y="454"/>
      <point x="537" y="534"/>
      <point x="622" y="534" type="curve" smooth="yes"/>
      <point x="723" y="534"/>
      <point x="785" y="441"/>
      <point x="785" y="280" type="curve" smooth="yes"/>
      <point x="785" y="116"/>
      <point x="729" y="12"/>
      <point x="640" y="12" type="curve" smooth="yes"/>
      <point x="600" y="12"/>
      <point x="577" y="43"/>
      <point x="577" y="83" type="curve" smooth="yes"/>
      <point x="577" y="163"/>
      <point x="637" y="225"/>
      <point x="754" y="254" type="curve" smooth="yes"/>
      <point x="878" y="285"/>
      <point x="916" y="304"/>
      <point x="931" y="411" type="curve" smooth="yes"/>
      <point x="943" y="494"/>
      <point x="995" y="534"/>
      <point x="1064" y="534" type="curve" smooth="yes"/>
      <point x="1149" y="534"/>
      <point x="1197" y="483"/>
      <point x="1197" y="402" type="curve" smooth="yes"/>
      <point x="1197" y="359"/>
      <point x="1183" y="319"/>
      <point x="1157" y="290" type="curve"/>
      <point x="1174" y="275" type="line"/>
      <point x="1206" y="310"/>
      <point x="1221" y="353"/>
    </contour>
  </outline>
</glyph>
<glyph name="nhja_cham" format="2">
  <advance width="1281"/>
  <unicode hex="AA12"/>
  <note>
uniAA12
</note>
  <outline>
    <contour>
      <point x="1221" y="402" type="curve" smooth="yes"/>
      <point x="1221" y="494"/>
      <point x="1160" y="556"/>
      <point x="1065" y="556" type="curve" smooth="yes"/>
      <point x="982" y="556"/>
      <point x="922" y="509"/>
      <point x="908" y="415" type="curve" smooth="yes"/>
      <point x="893" y="316"/>
      <point x="864" y="304"/>
      <point x="746" y="274" type="curve" smooth="yes"/>
      <point x="622" y="243"/>
      <point x="553" y="175"/>
      <point x="553" y="87" type="curve" smooth="yes"/>
      <point x="553" y="30"/>
      <point x="590" y="-10"/>
      <point x="641" y="-10" type="curve" smooth="yes"/>
      <point x="653" y="-10"/>
      <point x="664" y="-9"/>
      <point x="674" y="-6" type="curve"/>
      <point x="672" y="9" type="line"/>
      <point x="548" y="-70"/>
      <point x="517" y="-114"/>
      <point x="517" y="-167" type="curve" smooth="yes"/>
      <point x="517" y="-211"/>
      <point x="551" y="-248"/>
      <point x="600" y="-248" type="curve" smooth="yes"/>
      <point x="710" y="-248"/>
      <point x="718" y="-82"/>
      <point x="799" y="-82" type="curve" smooth="yes"/>
      <point x="826" y="-82"/>
      <point x="843" y="-100"/>
      <point x="843" y="-124" type="curve" smooth="yes"/>
      <point x="843" y="-139"/>
      <point x="836" y="-157"/>
      <point x="825" y="-171" type="curve"/>
      <point x="843" y="-185" type="line"/>
      <point x="858" y="-166"/>
      <point x="867" y="-144"/>
      <point x="867" y="-124" type="curve" smooth="yes"/>
      <point x="867" y="-89"/>
      <point x="838" y="-60"/>
      <point x="801" y="-60" type="curve" smooth="yes"/>
      <point x="701" y="-60"/>
      <point x="692" y="-226"/>
      <point x="601" y="-226" type="curve" smooth="yes"/>
      <point x="562" y="-226"/>
      <point x="541" y="-199"/>
      <point x="541" y="-165" type="curve" smooth="yes"/>
      <point x="541" y="-100"/>
      <point x="594" y="-72"/>
      <point x="707" y="8" type="curve" smooth="yes"/>
      <point x="780" y="60"/>
      <point x="809" y="162"/>
      <point x="809" y="280" type="curve" smooth="yes"/>
      <point x="809" y="454"/>
      <point x="738" y="556"/>
      <point x="624" y="556" type="curve" smooth="yes"/>
      <point x="527" y="556"/>
      <point x="512" y="475"/>
      <point x="450" y="475" type="curve" smooth="yes"/>
      <point x="388" y="475"/>
      <point x="373" y="556"/>
      <point x="276" y="556" type="curve" smooth="yes"/>
      <point x="161" y="556"/>
      <point x="90" y="457"/>
      <point x="90" y="294" type="curve" smooth="yes"/>
      <point x="90" y="105"/>
      <point x="182" y="-10"/>
      <point x="304" y="-10" type="curve" smooth="yes"/>
      <point x="354" y="-10"/>
      <point x="386" y="19"/>
      <point x="386" y="62" type="curve" smooth="yes"/>
      <point x="386" y="105"/>
      <point x="354" y="133"/>
      <point x="304" y="133" type="curve" smooth="yes"/>
      <point x="252" y="133"/>
      <point x="214" y="95"/>
      <point x="201" y="33" type="curve"/>
      <point x="224" y="33" type="line"/>
      <point x="234" y="82"/>
      <point x="264" y="112"/>
      <point x="304" y="112" type="curve" smooth="yes"/>
      <point x="340" y="112"/>
      <point x="363" y="94"/>
      <point x="363" y="63" type="curve" smooth="yes"/>
      <point x="363" y="32"/>
      <point x="339" y="12"/>
      <point x="303" y="12" type="curve" smooth="yes"/>
      <point x="197" y="12"/>
      <point x="114" y="117"/>
      <point x="114" y="294" type="curve" smooth="yes"/>
      <point x="114" y="444"/>
      <point x="176" y="534"/>
      <point x="278" y="534" type="curve" smooth="yes"/>
      <point x="363" y="534"/>
      <point x="378" y="454"/>
      <point x="450" y="454" type="curve" smooth="yes"/>
      <point x="522" y="454"/>
      <point x="537" y="534"/>
      <point x="622" y="534" type="curve" smooth="yes"/>
      <point x="723" y="534"/>
      <point x="785" y="441"/>
      <point x="785" y="280" type="curve" smooth="yes"/>
      <point x="785" y="116"/>
      <point x="729" y="12"/>
      <point x="640" y="12" type="curve" smooth="yes"/>
      <point x="600" y="12"/>
      <point x="577" y="45"/>
      <point x="577" y="88" type="curve" smooth="yes"/>
      <point x="577" y="165"/>
      <point x="637" y="225"/>
      <point x="754" y="254" type="curve" smooth="yes"/>
      <point x="878" y="285"/>
      <point x="916" y="304"/>
      <point x="931" y="411" type="curve" smooth="yes"/>
      <point x="943" y="494"/>
      <point x="995" y="534"/>
      <point x="1064" y="534" type="curve" smooth="yes"/>
      <point x="1149" y="534"/>
      <point x="1197" y="483"/>
      <point x="1197" y="402" type="curve" smooth="yes"/>
      <point x="1197" y="359"/>
      <point x="1183" y="319"/>
      <point x="1157" y="290" type="curve"/>
      <point x="1174" y="275" type="line"/>
      <point x="1206" y="310"/>
      <point x="1221" y="353"/>
    </contour>
    <contour>
      <point x="641" y="-10" type="line"/>
      <point x="611" y="12" type="line"/>
      <point x="566" y="12" type="line" smooth="yes"/>
      <point x="473" y="12"/>
      <point x="449" y="-8"/>
      <point x="426" y="-117" type="curve" smooth="yes"/>
      <point x="406" y="-212"/>
      <point x="392" y="-226"/>
      <point x="306" y="-226" type="curve" smooth="yes"/>
      <point x="285" y="-226" type="line"/>
      <point x="285" y="-248" type="line"/>
      <point x="312" y="-248" type="line" smooth="yes"/>
      <point x="405" y="-248"/>
      <point x="429" y="-228"/>
      <point x="452" y="-119" type="curve" smooth="yes"/>
      <point x="472" y="-24"/>
      <point x="486" y="-10"/>
      <point x="572" y="-10" type="curve" smooth="yes"/>
    </contour>
  </outline>
</glyph>
<glyph name="ta_cham" format="2">
  <advance width="815"/>
  <unicode hex="AA13"/>
  <note>
uniAA13
</note>
  <outline>
    <contour>
      <point x="755" y="402" type="curve" smooth="yes"/>
      <point x="755" y="494"/>
      <point x="694" y="556"/>
      <point x="599" y="556" type="curve" smooth="yes"/>
      <point x="503" y="556"/>
      <point x="434" y="491"/>
      <point x="434" y="374" type="curve"/>
      <point x="449" y="374" type="line"/>
      <point x="450" y="490"/>
      <point x="382" y="556"/>
      <point x="288" y="556" type="curve" smooth="yes"/>
      <point x="166" y="556"/>
      <point x="90" y="456"/>
      <point x="90" y="294" type="curve" smooth="yes"/>
      <point x="90" y="106"/>
      <point x="169" y="-10"/>
      <point x="292" y="-10" type="curve" smooth="yes"/>
      <point x="374" y="-10"/>
      <point x="428" y="44"/>
      <point x="428" y="129" type="curve" smooth="yes"/>
      <point x="428" y="215"/>
      <point x="367" y="272"/>
      <point x="272" y="272" type="curve" smooth="yes"/>
      <point x="206" y="272"/>
      <point x="149" y="244"/>
      <point x="109" y="194" type="curve"/>
      <point x="119" y="170" type="line"/>
      <point x="156" y="223"/>
      <point x="209" y="251"/>
      <point x="272" y="251" type="curve" smooth="yes"/>
      <point x="355" y="251"/>
      <point x="404" y="204"/>
      <point x="404" y="129" type="curve" smooth="yes"/>
      <point x="404" y="55"/>
      <point x="362" y="12"/>
      <point x="292" y="12" type="curve" smooth="yes"/>
      <point x="181" y="12"/>
      <point x="114" y="117"/>
      <point x="114" y="294" type="curve" smooth="yes"/>
      <point x="114" y="445"/>
      <point x="178" y="534"/>
      <point x="289" y="534" type="curve" smooth="yes"/>
      <point x="370" y="534"/>
      <point x="430" y="478"/>
      <point x="430" y="372" type="curve"/>
      <point x="453" y="372" type="line"/>
      <point x="453" y="479"/>
      <point x="515" y="534"/>
      <point x="597" y="534" type="curve" smooth="yes"/>
      <point x="682" y="534"/>
      <point x="731" y="483"/>
      <point x="731" y="402" type="curve" smooth="yes"/>
      <point x="731" y="359"/>
      <point x="717" y="319"/>
      <point x="691" y="290" type="curve"/>
      <point x="708" y="275" type="line"/>
      <point x="740" y="310"/>
      <point x="755" y="353"/>
    </contour>
  </outline>
</glyph>
<glyph name="tha_cham" format="2">
  <advance width="989"/>
  <unicode hex="AA14"/>
  <note>
uniAA14
</note>
  <outline>
    <contour>
      <point x="929" y="408" type="curve" smooth="yes"/>
      <point x="929" y="497"/>
      <point x="868" y="556"/>
      <point x="779" y="556" type="curve" smooth="yes"/>
      <point x="689" y="556"/>
      <point x="629" y="501"/>
      <point x="629" y="417" type="curve" smooth="yes"/>
      <point x="629" y="359"/>
      <point x="662" y="305"/>
      <point x="662" y="259" type="curve" smooth="yes"/>
      <point x="662" y="198"/>
      <point x="628" y="160"/>
      <point x="567" y="160" type="curve" smooth="yes"/>
      <point x="519" y="160"/>
      <point x="483" y="181"/>
      <point x="482" y="215" type="curve" smooth="yes"/>
      <point x="481" y="241"/>
      <point x="500" y="255"/>
      <point x="526" y="255" type="curve" smooth="yes"/>
      <point x="569" y="255"/>
      <point x="595" y="221"/>
      <point x="595" y="161" type="curve" smooth="yes"/>
      <point x="595" y="68"/>
      <point x="539" y="12"/>
      <point x="448" y="12" type="curve" smooth="yes"/>
      <point x="358" y="12"/>
      <point x="302" y="70"/>
      <point x="302" y="155" type="curve" smooth="yes"/>
      <point x="302" y="240"/>
      <point x="366" y="305"/>
      <point x="366" y="400" type="curve" smooth="yes"/>
      <point x="366" y="496"/>
      <point x="307" y="556"/>
      <point x="216" y="556" type="curve" smooth="yes"/>
      <point x="121" y="556"/>
      <point x="60" y="499"/>
      <point x="60" y="407" type="curve" smooth="yes"/>
      <point x="60" y="362"/>
      <point x="79" y="316"/>
      <point x="109" y="283" type="curve"/>
      <point x="126" y="298" type="line"/>
      <point x="101" y="326"/>
      <point x="84" y="367"/>
      <point x="84" y="407" type="curve" smooth="yes"/>
      <point x="84" y="488"/>
      <point x="133" y="534"/>
      <point x="216" y="534" type="curve" smooth="yes"/>
      <point x="295" y="534"/>
      <point x="342" y="485"/>
      <point x="342" y="400" type="curve" smooth="yes"/>
      <point x="342" y="312"/>
      <point x="278" y="246"/>
      <point x="278" y="158" type="curve" smooth="yes"/>
      <point x="278" y="59"/>
      <point x="346" y="-10"/>
      <point x="448" y="-10" type="curve" smooth="yes"/>
      <point x="551" y="-10"/>
      <point x="618" y="57"/>
      <point x="618" y="161" type="curve" smooth="yes"/>
      <point x="618" y="231"/>
      <point x="581" y="276"/>
      <point x="526" y="276" type="curve" smooth="yes"/>
      <point x="488" y="276"/>
      <point x="458" y="252"/>
      <point x="459" y="216" type="curve" smooth="yes"/>
      <point x="460" y="170"/>
      <point x="507" y="139"/>
      <point x="567" y="139" type="curve" smooth="yes"/>
      <point x="640" y="139"/>
      <point x="685" y="187"/>
      <point x="685" y="259" type="curve" smooth="yes"/>
      <point x="685" y="308"/>
      <point x="653" y="362"/>
      <point x="653" y="417" type="curve" smooth="yes"/>
      <point x="653" y="490"/>
      <point x="701" y="534"/>
      <point x="779" y="534" type="curve" smooth="yes"/>
      <point x="856" y="534"/>
      <point x="905" y="486"/>
      <point x="905" y="408" type="curve" smooth="yes"/>
      <point x="905" y="363"/>
      <point x="885" y="321"/>
      <point x="856" y="292" type="curve"/>
      <point x="872" y="276" type="line"/>
      <point x="906" y="309"/>
      <point x="929" y="357"/>
    </contour>
  </outline>
</glyph>
<glyph name="da_cham" format="2">
  <advance width="912"/>
  <unicode hex="AA15"/>
  <note>
uniAA15
</note>
  <outline>
    <contour>
      <point x="852" y="408" type="curve" smooth="yes"/>
      <point x="852" y="498"/>
      <point x="790" y="556"/>
      <point x="698" y="556" type="curve" smooth="yes"/>
      <point x="604" y="556"/>
      <point x="545" y="498"/>
      <point x="545" y="410" type="curve" smooth="yes"/>
      <point x="545" y="330"/>
      <point x="587" y="259"/>
      <point x="587" y="182" type="curve" smooth="yes"/>
      <point x="587" y="92"/>
      <point x="495" y="14"/>
      <point x="347" y="-13" type="curve"/>
      <point x="355" y="-30" type="line"/>
      <point x="406" y="27"/>
      <point x="435" y="89"/>
      <point x="435" y="154" type="curve" smooth="yes"/>
      <point x="435" y="231"/>
      <point x="385" y="285"/>
      <point x="311" y="285" type="curve" smooth="yes"/>
      <point x="299" y="285"/>
      <point x="286" y="283"/>
      <point x="272" y="280" type="curve"/>
      <point x="278" y="269" type="line"/>
      <point x="337" y="293"/>
      <point x="370" y="350"/>
      <point x="370" y="412" type="curve" smooth="yes"/>
      <point x="370" y="498"/>
      <point x="306" y="556"/>
      <point x="215" y="556" type="curve" smooth="yes"/>
      <point x="124" y="556"/>
      <point x="60" y="496"/>
      <point x="60" y="409" type="curve" smooth="yes"/>
      <point x="60" y="360"/>
      <point x="81" y="312"/>
      <point x="115" y="280" type="curve"/>
      <point x="132" y="295" type="line"/>
      <point x="103" y="322"/>
      <point x="84" y="364"/>
      <point x="84" y="409" type="curve" smooth="yes"/>
      <point x="84" y="484"/>
      <point x="136" y="534"/>
      <point x="215" y="534" type="curve" smooth="yes"/>
      <point x="294" y="534"/>
      <point x="346" y="486"/>
      <point x="346" y="412" type="curve" smooth="yes"/>
      <point x="346" y="358"/>
      <point x="318" y="306"/>
      <point x="266" y="280" type="curve"/>
      <point x="270" y="262" type="line"/>
      <point x="285" y="265"/>
      <point x="298" y="266"/>
      <point x="311" y="266" type="curve" smooth="yes"/>
      <point x="373" y="266"/>
      <point x="411" y="222"/>
      <point x="411" y="154" type="curve" smooth="yes"/>
      <point x="411" y="95"/>
      <point x="385" y="38"/>
      <point x="340" y="-14" type="curve"/>
      <point x="351" y="-33" type="line"/>
      <point x="513" y="-6"/>
      <point x="611" y="80"/>
      <point x="611" y="182" type="curve" smooth="yes"/>
      <point x="611" y="264"/>
      <point x="569" y="333"/>
      <point x="569" y="411" type="curve" smooth="yes"/>
      <point x="569" y="487"/>
      <point x="616" y="534"/>
      <point x="698" y="534" type="curve" smooth="yes"/>
      <point x="778" y="534"/>
      <point x="828" y="487"/>
      <point x="828" y="408" type="curve" smooth="yes"/>
      <point x="828" y="365"/>
      <point x="810" y="324"/>
      <point x="783" y="295" type="curve"/>
      <point x="799" y="280" type="line"/>
      <point x="831" y="313"/>
      <point x="852" y="360"/>
    </contour>
  </outline>
</glyph>
<glyph name="dha_cham" format="2">
  <advance width="955"/>
  <unicode hex="AA16"/>
  <note>
uniAA16
</note>
  <outline>
    <contour>
      <point x="895" y="408" type="curve" smooth="yes"/>
      <point x="895" y="498"/>
      <point x="833" y="556"/>
      <point x="742" y="556" type="curve" smooth="yes"/>
      <point x="647" y="556"/>
      <point x="588" y="500"/>
      <point x="588" y="416" type="curve" smooth="yes"/>
      <point x="588" y="377"/>
      <point x="603" y="339"/>
      <point x="603" y="313" type="curve" smooth="yes"/>
      <point x="603" y="196"/>
      <point x="429" y="210"/>
      <point x="429" y="94" type="curve" smooth="yes"/>
      <point x="429" y="64"/>
      <point x="441" y="38"/>
      <point x="464" y="4" type="curve"/>
      <point x="467" y="12" type="line"/>
      <point x="462" y="12"/>
      <point x="459" y="12"/>
      <point x="454" y="12" type="curve"/>
      <point x="360" y="12"/>
      <point x="303" y="66"/>
      <point x="303" y="156" type="curve" smooth="yes"/>
      <point x="303" y="240"/>
      <point x="367" y="306"/>
      <point x="367" y="400" type="curve" smooth="yes"/>
      <point x="367" y="496"/>
      <point x="307" y="556"/>
      <point x="217" y="556" type="curve" smooth="yes"/>
      <point x="124" y="556"/>
      <point x="60" y="498"/>
      <point x="60" y="408" type="curve" smooth="yes"/>
      <point x="60" y="360"/>
      <point x="81" y="313"/>
      <point x="113" y="280" type="curve"/>
      <point x="130" y="295" type="line"/>
      <point x="103" y="324"/>
      <point x="84" y="365"/>
      <point x="84" y="408" type="curve" smooth="yes"/>
      <point x="84" y="487"/>
      <point x="136" y="534"/>
      <point x="217" y="534" type="curve" smooth="yes"/>
      <point x="295" y="534"/>
      <point x="343" y="485"/>
      <point x="343" y="400" type="curve" smooth="yes"/>
      <point x="343" y="313"/>
      <point x="279" y="246"/>
      <point x="279" y="157" type="curve" smooth="yes"/>
      <point x="279" y="55"/>
      <point x="348" y="-10"/>
      <point x="454" y="-10" type="curve"/>
      <point x="465" y="-10"/>
      <point x="477" y="-10"/>
      <point x="488" y="-10" type="curve"/>
      <point x="493" y="3" type="line"/>
      <point x="466" y="35"/>
      <point x="453" y="65"/>
      <point x="453" y="94" type="curve" smooth="yes"/>
      <point x="453" y="200"/>
      <point x="626" y="179"/>
      <point x="626" y="313" type="curve" smooth="yes"/>
      <point x="626" y="345"/>
      <point x="612" y="377"/>
      <point x="612" y="417" type="curve" smooth="yes"/>
      <point x="612" y="489"/>
      <point x="659" y="534"/>
      <point x="742" y="534" type="curve" smooth="yes"/>
      <point x="821" y="534"/>
      <point x="871" y="487"/>
      <point x="871" y="408" type="curve" smooth="yes"/>
      <point x="871" y="365"/>
      <point x="853" y="324"/>
      <point x="826" y="295" type="curve"/>
      <point x="842" y="280" type="line"/>
      <point x="874" y="313"/>
      <point x="895" y="360"/>
    </contour>
  </outline>
</glyph>
<glyph name="na_cham" format="2">
  <advance width="981"/>
  <unicode hex="AA18"/>
  <note>
uniAA18
</note>
  <outline>
    <contour>
      <point x="430" y="269" type="curve" smooth="yes"/>
      <point x="430" y="454"/>
      <point x="347" y="556"/>
      <point x="225" y="556" type="curve" smooth="yes"/>
      <point x="123" y="556"/>
      <point x="64" y="494"/>
      <point x="64" y="412" type="curve" smooth="yes"/>
      <point x="64" y="368"/>
      <point x="80" y="328"/>
      <point x="106" y="297" type="curve"/>
      <point x="124" y="311" type="line"/>
      <point x="102" y="338"/>
      <point x="88" y="373"/>
      <point x="88" y="412" type="curve" smooth="yes"/>
      <point x="88" y="483"/>
      <point x="135" y="534"/>
      <point x="226" y="534" type="curve" smooth="yes"/>
      <point x="335" y="534"/>
      <point x="406" y="442"/>
      <point x="406" y="270" type="curve" smooth="yes"/>
      <point x="406" y="113"/>
      <point x="348" y="12"/>
      <point x="259" y="12" type="curve" smooth="yes"/>
      <point x="215" y="12"/>
      <point x="180" y="47"/>
      <point x="180" y="107" type="curve" smooth="yes"/>
      <point x="180" y="190"/>
      <point x="252" y="267"/>
      <point x="362" y="267" type="curve" smooth="yes"/>
      <point x="487" y="267"/>
      <point x="553" y="157"/>
      <point x="533" y="-4" type="curve"/>
      <point x="555" y="-2" type="line"/>
      <point x="578" y="167"/>
      <point x="501" y="289"/>
      <point x="362" y="289" type="curve" smooth="yes"/>
      <point x="240" y="289"/>
      <point x="156" y="201"/>
      <point x="156" y="107" type="curve" smooth="yes"/>
      <point x="156" y="36"/>
      <point x="203" y="-10"/>
      <point x="259" y="-10" type="curve" smooth="yes"/>
      <point x="359" y="-10"/>
      <point x="430" y="102"/>
    </contour>
    <contour>
      <point x="921" y="408" type="curve" smooth="yes"/>
      <point x="921" y="497"/>
      <point x="858" y="556"/>
      <point x="766" y="556" type="curve" smooth="yes"/>
      <point x="673" y="556"/>
      <point x="615" y="499"/>
      <point x="615" y="412" type="curve" smooth="yes"/>
      <point x="615" y="326"/>
      <point x="654" y="255"/>
      <point x="654" y="180" type="curve" smooth="yes"/>
      <point x="654" y="113"/>
      <point x="617" y="54"/>
      <point x="535" y="2" type="curve" smooth="yes"/>
      <point x="422" y="-70"/>
      <point x="392" y="-124"/>
      <point x="392" y="-167" type="curve" smooth="yes"/>
      <point x="392" y="-211"/>
      <point x="426" y="-248"/>
      <point x="475" y="-248" type="curve" smooth="yes"/>
      <point x="585" y="-248"/>
      <point x="593" y="-82"/>
      <point x="674" y="-82" type="curve" smooth="yes"/>
      <point x="701" y="-82"/>
      <point x="718" y="-100"/>
      <point x="718" y="-124" type="curve" smooth="yes"/>
      <point x="718" y="-139"/>
      <point x="711" y="-157"/>
      <point x="700" y="-171" type="curve"/>
      <point x="718" y="-185" type="line"/>
      <point x="733" y="-166"/>
      <point x="742" y="-144"/>
      <point x="742" y="-124" type="curve" smooth="yes"/>
      <point x="742" y="-89"/>
      <point x="713" y="-60"/>
      <point x="676" y="-60" type="curve" smooth="yes"/>
      <point x="576" y="-60"/>
      <point x="567" y="-226"/>
      <point x="476" y="-226" type="curve" smooth="yes"/>
      <point x="437" y="-226"/>
      <point x="416" y="-199"/>
      <point x="416" y="-167" type="curve" smooth="yes"/>
      <point x="416" y="-133"/>
      <point x="434" y="-91"/>
      <point x="543" y="-20" type="curve" smooth="yes"/>
      <point x="635" y="40"/>
      <point x="678" y="101"/>
      <point x="678" y="180" type="curve" smooth="yes"/>
      <point x="678" y="260"/>
      <point x="639" y="331"/>
      <point x="639" y="413" type="curve" smooth="yes"/>
      <point x="639" y="487"/>
      <point x="685" y="534"/>
      <point x="766" y="534" type="curve" smooth="yes"/>
      <point x="846" y="534"/>
      <point x="897" y="486"/>
      <point x="897" y="408" type="curve" smooth="yes"/>
      <point x="897" y="363"/>
      <point x="877" y="321"/>
      <point x="848" y="292" type="curve"/>
      <point x="864" y="276" type="line"/>
      <point x="898" y="309"/>
      <point x="921" y="357"/>
    </contour>
  </outline>
</glyph>
<glyph name="dda_cham" format="2">
  <advance width="981"/>
  <unicode hex="AA19"/>
  <note>
uniAA19
</note>
  <outline>
    <contour>
      <point x="921" y="408" type="curve" smooth="yes"/>
      <point x="921" y="497"/>
      <point x="858" y="556"/>
      <point x="766" y="556" type="curve" smooth="yes"/>
      <point x="673" y="556"/>
      <point x="615" y="499"/>
      <point x="615" y="412" type="curve" smooth="yes"/>
      <point x="615" y="326"/>
      <point x="654" y="255"/>
      <point x="654" y="180" type="curve" smooth="yes"/>
      <point x="654" y="113"/>
      <point x="609" y="44"/>
      <point x="543" y="10" type="curve"/>
      <point x="555" y="-2" type="line"/>
      <point x="578" y="167"/>
      <point x="501" y="289"/>
      <point x="362" y="289" type="curve" smooth="yes"/>
      <point x="240" y="289"/>
      <point x="156" y="201"/>
      <point x="156" y="107" type="curve" smooth="yes"/>
      <point x="156" y="36"/>
      <point x="203" y="-10"/>
      <point x="259" y="-10" type="curve" smooth="yes"/>
      <point x="269" y="-10"/>
      <point x="285" y="-8"/>
      <point x="294" y="-5" type="curve"/>
      <point x="293" y="9" type="line"/>
      <point x="169" y="-70"/>
      <point x="138" y="-114"/>
      <point x="138" y="-167" type="curve" smooth="yes"/>
      <point x="138" y="-211"/>
      <point x="172" y="-248"/>
      <point x="221" y="-248" type="curve" smooth="yes"/>
      <point x="331" y="-248"/>
      <point x="339" y="-82"/>
      <point x="420" y="-82" type="curve" smooth="yes"/>
      <point x="447" y="-82"/>
      <point x="464" y="-100"/>
      <point x="464" y="-124" type="curve" smooth="yes"/>
      <point x="464" y="-139"/>
      <point x="457" y="-157"/>
      <point x="446" y="-171" type="curve"/>
      <point x="464" y="-185" type="line"/>
      <point x="479" y="-166"/>
      <point x="488" y="-144"/>
      <point x="488" y="-124" type="curve" smooth="yes"/>
      <point x="488" y="-89"/>
      <point x="459" y="-60"/>
      <point x="422" y="-60" type="curve" smooth="yes"/>
      <point x="322" y="-60"/>
      <point x="313" y="-226"/>
      <point x="222" y="-226" type="curve" smooth="yes"/>
      <point x="183" y="-226"/>
      <point x="162" y="-199"/>
      <point x="162" y="-165" type="curve" smooth="yes"/>
      <point x="162" y="-100"/>
      <point x="215" y="-72"/>
      <point x="328" y="8" type="curve" smooth="yes"/>
      <point x="401" y="60"/>
      <point x="430" y="163"/>
      <point x="430" y="269" type="curve" smooth="yes"/>
      <point x="430" y="454"/>
      <point x="347" y="556"/>
      <point x="225" y="556" type="curve" smooth="yes"/>
      <point x="123" y="556"/>
      <point x="64" y="494"/>
      <point x="64" y="412" type="curve" smooth="yes"/>
      <point x="64" y="368"/>
      <point x="80" y="328"/>
      <point x="106" y="297" type="curve"/>
      <point x="124" y="311" type="line"/>
      <point x="102" y="338"/>
      <point x="88" y="373"/>
      <point x="88" y="412" type="curve" smooth="yes"/>
      <point x="88" y="483"/>
      <point x="135" y="534"/>
      <point x="226" y="534" type="curve" smooth="yes"/>
      <point x="335" y="534"/>
      <point x="406" y="442"/>
      <point x="406" y="270" type="curve" smooth="yes"/>
      <point x="406" y="113"/>
      <point x="348" y="12"/>
      <point x="259" y="12" type="curve" smooth="yes"/>
      <point x="215" y="12"/>
      <point x="180" y="47"/>
      <point x="180" y="107" type="curve" smooth="yes"/>
      <point x="180" y="190"/>
      <point x="252" y="267"/>
      <point x="362" y="267" type="curve" smooth="yes"/>
      <point x="487" y="267"/>
      <point x="553" y="157"/>
      <point x="533" y="2" type="curve"/>
      <point x="550" y="-10" type="line"/>
      <point x="628" y="28"/>
      <point x="678" y="101"/>
      <point x="678" y="180" type="curve" smooth="yes"/>
      <point x="678" y="260"/>
      <point x="639" y="331"/>
      <point x="639" y="413" type="curve" smooth="yes"/>
      <point x="639" y="487"/>
      <point x="685" y="534"/>
      <point x="766" y="534" type="curve" smooth="yes"/>
      <point x="846" y="534"/>
      <point x="897" y="486"/>
      <point x="897" y="408" type="curve" smooth="yes"/>
      <point x="897" y="363"/>
      <point x="877" y="321"/>
      <point x="848" y="292" type="curve"/>
      <point x="864" y="276" type="line"/>
      <point x="898" y="309"/>
      <point x="921" y="357"/>
    </contour>
  </outline>
</glyph>
<glyph name="pa_cham" format="2">
  <advance width="1082"/>
  <unicode hex="AA1A"/>
  <note>
uniAA1A
</note>
  <outline>
    <contour>
      <point x="1022" y="402" type="curve" smooth="yes"/>
      <point x="1022" y="494"/>
      <point x="961" y="556"/>
      <point x="865" y="556" type="curve" smooth="yes"/>
      <point x="770" y="556"/>
      <point x="701" y="491"/>
      <point x="701" y="374" type="curve"/>
      <point x="716" y="374" type="line"/>
      <point x="717" y="490"/>
      <point x="649" y="556"/>
      <point x="554" y="556" type="curve" smooth="yes"/>
      <point x="461" y="556"/>
      <point x="398" y="495"/>
      <point x="398" y="406" type="curve" smooth="yes"/>
      <point x="398" y="319"/>
      <point x="437" y="263"/>
      <point x="437" y="178" type="curve" smooth="yes"/>
      <point x="437" y="72"/>
      <point x="376" y="12"/>
      <point x="262" y="12" type="curve" smooth="yes"/>
      <point x="157" y="12"/>
      <point x="84" y="64"/>
      <point x="84" y="147" type="curve" smooth="yes"/>
      <point x="84" y="209"/>
      <point x="123" y="255"/>
      <point x="193" y="255" type="curve" smooth="yes"/>
      <point x="257" y="255"/>
      <point x="300" y="210"/>
      <point x="300" y="134" type="curve" smooth="yes"/>
      <point x="300" y="91"/>
      <point x="283" y="39"/>
      <point x="269" y="8" type="curve"/>
      <point x="293" y="8" type="line"/>
      <point x="306" y="37"/>
      <point x="324" y="85"/>
      <point x="324" y="134" type="curve" smooth="yes"/>
      <point x="324" y="221"/>
      <point x="269" y="276"/>
      <point x="192" y="276" type="curve" smooth="yes"/>
      <point x="111" y="276"/>
      <point x="60" y="220"/>
      <point x="60" y="147" type="curve" smooth="yes"/>
      <point x="60" y="53"/>
      <point x="145" y="-10"/>
      <point x="261" y="-10" type="curve" smooth="yes"/>
      <point x="388" y="-10"/>
      <point x="461" y="61"/>
      <point x="461" y="177" type="curve" smooth="yes"/>
      <point x="461" y="268"/>
      <point x="422" y="324"/>
      <point x="422" y="405" type="curve" smooth="yes"/>
      <point x="422" y="484"/>
      <point x="473" y="534"/>
      <point x="556" y="534" type="curve" smooth="yes"/>
      <point x="637" y="534"/>
      <point x="697" y="478"/>
      <point x="697" y="372" type="curve"/>
      <point x="720" y="372" type="line"/>
      <point x="720" y="479"/>
      <point x="782" y="534"/>
      <point x="863" y="534" type="curve" smooth="yes"/>
      <point x="949" y="534"/>
      <point x="998" y="483"/>
      <point x="998" y="402" type="curve" smooth="yes"/>
      <point x="998" y="359"/>
      <point x="984" y="319"/>
      <point x="958" y="290" type="curve"/>
      <point x="975" y="275" type="line"/>
      <point x="1007" y="310"/>
      <point x="1022" y="353"/>
    </contour>
  </outline>
</glyph>
<glyph name="ppa_cham" format="2">
  <advance width="912"/>
  <unicode hex="AA1B"/>
  <note>
uniAA1B
</note>
  <outline>
    <contour>
      <point x="852" y="408" type="curve" smooth="yes"/>
      <point x="852" y="498"/>
      <point x="790" y="556"/>
      <point x="698" y="556" type="curve" smooth="yes"/>
      <point x="604" y="556"/>
      <point x="545" y="498"/>
      <point x="545" y="407" type="curve" smooth="yes"/>
      <point x="545" y="330"/>
      <point x="604" y="226"/>
      <point x="604" y="135" type="curve" smooth="yes"/>
      <point x="604" y="64"/>
      <point x="569" y="24"/>
      <point x="515" y="24" type="curve" smooth="yes"/>
      <point x="446" y="24"/>
      <point x="375" y="98"/>
      <point x="298" y="98" type="curve" smooth="yes"/>
      <point x="258" y="98"/>
      <point x="224" y="75"/>
      <point x="224" y="36" type="curve" smooth="yes"/>
      <point x="224" y="0"/>
      <point x="259" y="-22"/>
      <point x="296" y="-22" type="curve" smooth="yes"/>
      <point x="372" y="-22"/>
      <point x="435" y="55"/>
      <point x="435" y="154" type="curve" smooth="yes"/>
      <point x="435" y="231"/>
      <point x="385" y="285"/>
      <point x="311" y="285" type="curve" smooth="yes"/>
      <point x="299" y="285"/>
      <point x="286" y="283"/>
      <point x="272" y="280" type="curve"/>
      <point x="278" y="269" type="line"/>
      <point x="337" y="293"/>
      <point x="370" y="350"/>
      <point x="370" y="412" type="curve" smooth="yes"/>
      <point x="370" y="498"/>
      <point x="306" y="556"/>
      <point x="215" y="556" type="curve" smooth="yes"/>
      <point x="124" y="556"/>
      <point x="60" y="496"/>
      <point x="60" y="409" type="curve" smooth="yes"/>
      <point x="60" y="360"/>
      <point x="81" y="312"/>
      <point x="115" y="280" type="curve"/>
      <point x="132" y="295" type="line"/>
      <point x="103" y="322"/>
      <point x="84" y="364"/>
      <point x="84" y="409" type="curve" smooth="yes"/>
      <point x="84" y="484"/>
      <point x="136" y="534"/>
      <point x="215" y="534" type="curve" smooth="yes"/>
      <point x="294" y="534"/>
      <point x="346" y="486"/>
      <point x="346" y="412" type="curve" smooth="yes"/>
      <point x="346" y="358"/>
      <point x="318" y="306"/>
      <point x="266" y="280" type="curve"/>
      <point x="270" y="262" type="line"/>
      <point x="285" y="265"/>
      <point x="298" y="266"/>
      <point x="311" y="266" type="curve" smooth="yes"/>
      <point x="373" y="266"/>
      <point x="411" y="222"/>
      <point x="411" y="154" type="curve" smooth="yes"/>
      <point x="411" y="66"/>
      <point x="360" y="-1"/>
      <point x="296" y="-1" type="curve" smooth="yes"/>
      <point x="271" y="-1"/>
      <point x="246" y="11"/>
      <point x="246" y="36" type="curve" smooth="yes"/>
      <point x="246" y="64"/>
      <point x="270" y="77"/>
      <point x="298" y="77" type="curve" smooth="yes"/>
      <point x="366" y="77"/>
      <point x="440" y="2"/>
      <point x="516" y="2" type="curve" smooth="yes"/>
      <point x="581" y="2"/>
      <point x="628" y="53"/>
      <point x="628" y="134" type="curve" smooth="yes"/>
      <point x="628" y="229"/>
      <point x="569" y="333"/>
      <point x="569" y="407" type="curve" smooth="yes"/>
      <point x="569" y="487"/>
      <point x="616" y="534"/>
      <point x="698" y="534" type="curve" smooth="yes"/>
      <point x="778" y="534"/>
      <point x="828" y="487"/>
      <point x="828" y="408" type="curve" smooth="yes"/>
      <point x="828" y="365"/>
      <point x="810" y="324"/>
      <point x="783" y="295" type="curve"/>
      <point x="799" y="280" type="line"/>
      <point x="831" y="313"/>
      <point x="852" y="360"/>
    </contour>
  </outline>
</glyph>
<glyph name="pha_cham" format="2">
  <advance width="1336"/>
  <unicode hex="AA1C"/>
  <note>
uniAA1C
</note>
  <outline>
    <contour>
      <point x="1276" y="408" type="curve" smooth="yes"/>
      <point x="1276" y="497"/>
      <point x="1215" y="556"/>
      <point x="1126" y="556" type="curve" smooth="yes"/>
      <point x="1036" y="556"/>
      <point x="976" y="501"/>
      <point x="976" y="417" type="curve" smooth="yes"/>
      <point x="976" y="359"/>
      <point x="1009" y="305"/>
      <point x="1009" y="259" type="curve" smooth="yes"/>
      <point x="1009" y="198"/>
      <point x="975" y="160"/>
      <point x="914" y="160" type="curve" smooth="yes"/>
      <point x="866" y="160"/>
      <point x="830" y="181"/>
      <point x="829" y="215" type="curve" smooth="yes"/>
      <point x="828" y="241"/>
      <point x="847" y="255"/>
      <point x="873" y="255" type="curve" smooth="yes"/>
      <point x="916" y="255"/>
      <point x="942" y="221"/>
      <point x="942" y="161" type="curve" smooth="yes"/>
      <point x="942" y="68"/>
      <point x="886" y="12"/>
      <point x="795" y="12" type="curve" smooth="yes"/>
      <point x="705" y="12"/>
      <point x="649" y="70"/>
      <point x="649" y="152" type="curve" smooth="yes"/>
      <point x="649" y="240"/>
      <point x="715" y="304"/>
      <point x="715" y="397" type="curve" smooth="yes"/>
      <point x="715" y="492"/>
      <point x="653" y="556"/>
      <point x="557" y="556" type="curve" smooth="yes"/>
      <point x="459" y="556"/>
      <point x="393" y="495"/>
      <point x="393" y="406" type="curve" smooth="yes"/>
      <point x="393" y="319"/>
      <point x="437" y="263"/>
      <point x="437" y="178" type="curve" smooth="yes"/>
      <point x="437" y="72"/>
      <point x="376" y="12"/>
      <point x="262" y="12" type="curve" smooth="yes"/>
      <point x="157" y="12"/>
      <point x="84" y="64"/>
      <point x="84" y="147" type="curve" smooth="yes"/>
      <point x="84" y="209"/>
      <point x="123" y="255"/>
      <point x="193" y="255" type="curve" smooth="yes"/>
      <point x="257" y="255"/>
      <point x="300" y="210"/>
      <point x="300" y="134" type="curve" smooth="yes"/>
      <point x="300" y="91"/>
      <point x="283" y="39"/>
      <point x="269" y="8" type="curve"/>
      <point x="293" y="8" type="line"/>
      <point x="306" y="37"/>
      <point x="324" y="85"/>
      <point x="324" y="134" type="curve" smooth="yes"/>
      <point x="324" y="221"/>
      <point x="269" y="276"/>
      <point x="192" y="276" type="curve" smooth="yes"/>
      <point x="111" y="276"/>
      <point x="60" y="220"/>
      <point x="60" y="147" type="curve" smooth="yes"/>
      <point x="60" y="53"/>
      <point x="145" y="-10"/>
      <point x="261" y="-10" type="curve" smooth="yes"/>
      <point x="388" y="-10"/>
      <point x="461" y="61"/>
      <point x="461" y="177" type="curve" smooth="yes"/>
      <point x="461" y="268"/>
      <point x="417" y="324"/>
      <point x="417" y="405" type="curve" smooth="yes"/>
      <point x="417" y="483"/>
      <point x="471" y="534"/>
      <point x="558" y="534" type="curve" smooth="yes"/>
      <point x="641" y="534"/>
      <point x="691" y="480"/>
      <point x="691" y="397" type="curve" smooth="yes"/>
      <point x="691" y="311"/>
      <point x="625" y="247"/>
      <point x="625" y="155" type="curve" smooth="yes"/>
      <point x="625" y="59"/>
      <point x="693" y="-10"/>
      <point x="795" y="-10" type="curve" smooth="yes"/>
      <point x="898" y="-10"/>
      <point x="965" y="57"/>
      <point x="965" y="161" type="curve" smooth="yes"/>
      <point x="965" y="231"/>
      <point x="928" y="276"/>
      <point x="873" y="276" type="curve" smooth="yes"/>
      <point x="835" y="276"/>
      <point x="805" y="252"/>
      <point x="806" y="216" type="curve" smooth="yes"/>
      <point x="807" y="170"/>
      <point x="854" y="139"/>
      <point x="914" y="139" type="curve" smooth="yes"/>
      <point x="987" y="139"/>
      <point x="1032" y="187"/>
      <point x="1032" y="259" type="curve" smooth="yes"/>
      <point x="1032" y="308"/>
      <point x="1000" y="362"/>
      <point x="1000" y="417" type="curve" smooth="yes"/>
      <point x="1000" y="490"/>
      <point x="1048" y="534"/>
      <point x="1126" y="534" type="curve" smooth="yes"/>
      <point x="1203" y="534"/>
      <point x="1252" y="486"/>
      <point x="1252" y="408" type="curve" smooth="yes"/>
      <point x="1252" y="363"/>
      <point x="1232" y="321"/>
      <point x="1203" y="292" type="curve"/>
      <point x="1219" y="276" type="line"/>
      <point x="1253" y="309"/>
      <point x="1276" y="357"/>
    </contour>
  </outline>
</glyph>
<glyph name="ba_cham" format="2">
  <advance width="906"/>
  <unicode hex="AA1D"/>
  <note>
uniAA1D
</note>
  <outline>
    <contour>
      <point x="846" y="407" type="curve" smooth="yes"/>
      <point x="846" y="499"/>
      <point x="785" y="556"/>
      <point x="690" y="556" type="curve" smooth="yes"/>
      <point x="599" y="556"/>
      <point x="540" y="496"/>
      <point x="540" y="400" type="curve" smooth="yes"/>
      <point x="540" y="305"/>
      <point x="604" y="240"/>
      <point x="604" y="155" type="curve" smooth="yes"/>
      <point x="604" y="71"/>
      <point x="546" y="12"/>
      <point x="453" y="12" type="curve" smooth="yes"/>
      <point x="360" y="12"/>
      <point x="302" y="71"/>
      <point x="302" y="155" type="curve" smooth="yes"/>
      <point x="302" y="240"/>
      <point x="366" y="305"/>
      <point x="366" y="400" type="curve" smooth="yes"/>
      <point x="366" y="496"/>
      <point x="307" y="556"/>
      <point x="216" y="556" type="curve" smooth="yes"/>
      <point x="121" y="556"/>
      <point x="60" y="499"/>
      <point x="60" y="407" type="curve" smooth="yes"/>
      <point x="60" y="362"/>
      <point x="79" y="316"/>
      <point x="109" y="283" type="curve"/>
      <point x="126" y="298" type="line"/>
      <point x="101" y="326"/>
      <point x="84" y="367"/>
      <point x="84" y="407" type="curve" smooth="yes"/>
      <point x="84" y="488"/>
      <point x="133" y="534"/>
      <point x="216" y="534" type="curve" smooth="yes"/>
      <point x="295" y="534"/>
      <point x="342" y="485"/>
      <point x="342" y="400" type="curve" smooth="yes"/>
      <point x="342" y="312"/>
      <point x="278" y="246"/>
      <point x="278" y="158" type="curve" smooth="yes"/>
      <point x="278" y="59"/>
      <point x="347" y="-10"/>
      <point x="453" y="-10" type="curve" smooth="yes"/>
      <point x="559" y="-10"/>
      <point x="628" y="59"/>
      <point x="628" y="158" type="curve" smooth="yes"/>
      <point x="628" y="246"/>
      <point x="564" y="312"/>
      <point x="564" y="400" type="curve" smooth="yes"/>
      <point x="564" y="485"/>
      <point x="611" y="534"/>
      <point x="690" y="534" type="curve" smooth="yes"/>
      <point x="773" y="534"/>
      <point x="822" y="488"/>
      <point x="822" y="407" type="curve" smooth="yes"/>
      <point x="822" y="367"/>
      <point x="805" y="326"/>
      <point x="780" y="298" type="curve"/>
      <point x="797" y="283" type="line"/>
      <point x="827" y="316"/>
      <point x="846" y="362"/>
    </contour>
  </outline>
</glyph>
<glyph name="bha_cham" format="2">
  <advance width="1223"/>
  <unicode hex="AA1E"/>
  <note>
uniAA1E
</note>
  <outline>
    <contour>
      <point x="1163" y="402" type="curve" smooth="yes"/>
      <point x="1163" y="494"/>
      <point x="1102" y="556"/>
      <point x="1006" y="556" type="curve" smooth="yes"/>
      <point x="911" y="556"/>
      <point x="843" y="493"/>
      <point x="843" y="375" type="curve"/>
      <point x="861" y="375" type="line"/>
      <point x="861" y="492"/>
      <point x="791" y="556"/>
      <point x="695" y="556" type="curve" smooth="yes"/>
      <point x="596" y="556"/>
      <point x="534" y="498"/>
      <point x="534" y="408" type="curve" smooth="yes"/>
      <point x="534" y="325"/>
      <point x="597" y="251"/>
      <point x="597" y="160" type="curve" smooth="yes"/>
      <point x="597" y="71"/>
      <point x="544" y="12"/>
      <point x="453" y="12" type="curve" smooth="yes"/>
      <point x="360" y="12"/>
      <point x="302" y="71"/>
      <point x="302" y="155" type="curve" smooth="yes"/>
      <point x="302" y="240"/>
      <point x="366" y="305"/>
      <point x="366" y="400" type="curve" smooth="yes"/>
      <point x="366" y="496"/>
      <point x="307" y="556"/>
      <point x="216" y="556" type="curve" smooth="yes"/>
      <point x="121" y="556"/>
      <point x="60" y="499"/>
      <point x="60" y="407" type="curve" smooth="yes"/>
      <point x="60" y="362"/>
      <point x="79" y="316"/>
      <point x="109" y="283" type="curve"/>
      <point x="126" y="298" type="line"/>
      <point x="101" y="326"/>
      <point x="84" y="367"/>
      <point x="84" y="407" type="curve" smooth="yes"/>
      <point x="84" y="488"/>
      <point x="133" y="534"/>
      <point x="216" y="534" type="curve" smooth="yes"/>
      <point x="295" y="534"/>
      <point x="342" y="485"/>
      <point x="342" y="400" type="curve" smooth="yes"/>
      <point x="342" y="312"/>
      <point x="278" y="246"/>
      <point x="278" y="158" type="curve" smooth="yes"/>
      <point x="278" y="59"/>
      <point x="347" y="-10"/>
      <point x="453" y="-10" type="curve" smooth="yes"/>
      <point x="557" y="-10"/>
      <point x="621" y="58"/>
      <point x="621" y="160" type="curve" smooth="yes"/>
      <point x="621" y="257"/>
      <point x="558" y="331"/>
      <point x="558" y="408" type="curve" smooth="yes"/>
      <point x="558" y="487"/>
      <point x="608" y="534"/>
      <point x="697" y="534" type="curve" smooth="yes"/>
      <point x="779" y="534"/>
      <point x="840" y="480"/>
      <point x="840" y="372" type="curve"/>
      <point x="864" y="372" type="line"/>
      <point x="864" y="481"/>
      <point x="924" y="534"/>
      <point x="1004" y="534" type="curve" smooth="yes"/>
      <point x="1090" y="534"/>
      <point x="1139" y="483"/>
      <point x="1139" y="402" type="curve" smooth="yes"/>
      <point x="1139" y="359"/>
      <point x="1125" y="319"/>
      <point x="1099" y="290" type="curve"/>
      <point x="1116" y="275" type="line"/>
      <point x="1148" y="310"/>
      <point x="1163" y="353"/>
    </contour>
  </outline>
</glyph>
<glyph name="ma_cham" format="2">
  <advance width="955"/>
  <unicode hex="AA20"/>
  <note>
uniAA20
</note>
  <outline>
    <contour>
      <point x="787" y="-124" type="curve" smooth="yes"/>
      <point x="787" y="-89"/>
      <point x="758" y="-60"/>
      <point x="721" y="-60" type="curve" smooth="yes"/>
      <point x="621" y="-60"/>
      <point x="608" y="-226"/>
      <point x="525" y="-226" type="curve" smooth="yes"/>
      <point x="486" y="-226"/>
      <point x="465" y="-199"/>
      <point x="465" y="-165" type="curve" smooth="yes"/>
      <point x="465" y="-96"/>
      <point x="565" y="18"/>
      <point x="565" y="126" type="curve" smooth="yes"/>
      <point x="565" y="218"/>
      <point x="511" y="284"/>
      <point x="424" y="297" type="curve"/>
      <point x="419" y="276" type="line"/>
      <point x="494" y="265"/>
      <point x="541" y="208"/>
      <point x="541" y="126" type="curve" smooth="yes"/>
      <point x="541" y="21"/>
      <point x="441" y="-93"/>
      <point x="441" y="-165" type="curve" smooth="yes"/>
      <point x="441" y="-211"/>
      <point x="475" y="-248"/>
      <point x="524" y="-248" type="curve" smooth="yes"/>
      <point x="626" y="-248"/>
      <point x="638" y="-82"/>
      <point x="719" y="-82" type="curve" smooth="yes"/>
      <point x="746" y="-82"/>
      <point x="763" y="-100"/>
      <point x="763" y="-124" type="curve" smooth="yes"/>
      <point x="763" y="-139"/>
      <point x="756" y="-157"/>
      <point x="745" y="-171" type="curve"/>
      <point x="763" y="-185" type="line"/>
      <point x="778" y="-166"/>
      <point x="787" y="-144"/>
    </contour>
    <component base="dha_withcrossstroke"/>
  </outline>
</glyph>
<glyph name="ya_cham" format="2">
  <advance width="1189"/>
  <unicode hex="AA22"/>
  <note>
uniAA22
</note>
  <outline>
    <contour>
      <point x="1129" y="403" type="curve" smooth="yes"/>
      <point x="1129" y="494"/>
      <point x="1069" y="556"/>
      <point x="970" y="556" type="curve" smooth="yes"/>
      <point x="877" y="556"/>
      <point x="810" y="490"/>
      <point x="810" y="374" type="curve"/>
      <point x="825" y="374" type="line"/>
      <point x="826" y="490"/>
      <point x="758" y="556"/>
      <point x="663" y="556" type="curve" smooth="yes"/>
      <point x="570" y="556"/>
      <point x="507" y="495"/>
      <point x="507" y="406" type="curve" smooth="yes"/>
      <point x="507" y="319"/>
      <point x="549" y="259"/>
      <point x="549" y="187" type="curve" smooth="yes"/>
      <point x="549" y="92"/>
      <point x="454" y="17"/>
      <point x="302" y="-9" type="curve"/>
      <point x="309" y="-14" type="line"/>
      <point x="359" y="108"/>
      <point x="387" y="241"/>
      <point x="387" y="334" type="curve" smooth="yes"/>
      <point x="387" y="481"/>
      <point x="321" y="556"/>
      <point x="222" y="556" type="curve" smooth="yes"/>
      <point x="126" y="556"/>
      <point x="60" y="498"/>
      <point x="60" y="408" type="curve" smooth="yes"/>
      <point x="60" y="360"/>
      <point x="81" y="313"/>
      <point x="113" y="280" type="curve"/>
      <point x="130" y="295" type="line"/>
      <point x="103" y="324"/>
      <point x="84" y="365"/>
      <point x="84" y="408" type="curve" smooth="yes"/>
      <point x="84" y="487"/>
      <point x="138" y="534"/>
      <point x="222" y="534" type="curve" smooth="yes"/>
      <point x="309" y="534"/>
      <point x="363" y="470"/>
      <point x="363" y="334" type="curve" smooth="yes"/>
      <point x="363" y="237"/>
      <point x="334" y="95"/>
      <point x="283" y="-18" type="curve"/>
      <point x="288" y="-33" type="line"/>
      <point x="475" y="-6"/>
      <point x="573" y="80"/>
      <point x="573" y="187" type="curve" smooth="yes"/>
      <point x="573" y="264"/>
      <point x="531" y="322"/>
      <point x="531" y="405" type="curve" smooth="yes"/>
      <point x="531" y="484"/>
      <point x="582" y="534"/>
      <point x="665" y="534" type="curve" smooth="yes"/>
      <point x="746" y="534"/>
      <point x="806" y="478"/>
      <point x="806" y="372" type="curve"/>
      <point x="829" y="372" type="line"/>
      <point x="829" y="481"/>
      <point x="890" y="534"/>
      <point x="970" y="534" type="curve" smooth="yes"/>
      <point x="1054" y="534"/>
      <point x="1105" y="482"/>
      <point x="1105" y="403" type="curve" smooth="yes"/>
      <point x="1105" y="359"/>
      <point x="1091" y="319"/>
      <point x="1065" y="290" type="curve"/>
      <point x="1082" y="275" type="line"/>
      <point x="1114" y="310"/>
      <point x="1129" y="353"/>
    </contour>
  </outline>
</glyph>
<glyph name="ra_cham" format="2">
  <advance width="781"/>
  <unicode hex="AA23"/>
  <note>
uniAA23
</note>
  <outline>
    <contour>
      <point x="721" y="403" type="curve" smooth="yes"/>
      <point x="721" y="495"/>
      <point x="660" y="556"/>
      <point x="560" y="556" type="curve" smooth="yes"/>
      <point x="461" y="556"/>
      <point x="398" y="495"/>
      <point x="398" y="406" type="curve" smooth="yes"/>
      <point x="398" y="319"/>
      <point x="437" y="263"/>
      <point x="437" y="178" type="curve" smooth="yes"/>
      <point x="437" y="72"/>
      <point x="376" y="12"/>
      <point x="262" y="12" type="curve" smooth="yes"/>
      <point x="157" y="12"/>
      <point x="84" y="64"/>
      <point x="84" y="147" type="curve" smooth="yes"/>
      <point x="84" y="209"/>
      <point x="123" y="255"/>
      <point x="193" y="255" type="curve" smooth="yes"/>
      <point x="257" y="255"/>
      <point x="300" y="210"/>
      <point x="300" y="134" type="curve" smooth="yes"/>
      <point x="300" y="91"/>
      <point x="283" y="39"/>
      <point x="269" y="8" type="curve"/>
      <point x="293" y="8" type="line"/>
      <point x="306" y="37"/>
      <point x="324" y="85"/>
      <point x="324" y="134" type="curve" smooth="yes"/>
      <point x="324" y="221"/>
      <point x="269" y="276"/>
      <point x="192" y="276" type="curve" smooth="yes"/>
      <point x="111" y="276"/>
      <point x="60" y="220"/>
      <point x="60" y="147" type="curve" smooth="yes"/>
      <point x="60" y="53"/>
      <point x="145" y="-10"/>
      <point x="261" y="-10" type="curve" smooth="yes"/>
      <point x="388" y="-10"/>
      <point x="461" y="61"/>
      <point x="461" y="177" type="curve" smooth="yes"/>
      <point x="461" y="268"/>
      <point x="422" y="324"/>
      <point x="422" y="405" type="curve" smooth="yes"/>
      <point x="422" y="484"/>
      <point x="473" y="534"/>
      <point x="559" y="534" type="curve" smooth="yes"/>
      <point x="648" y="534"/>
      <point x="697" y="484"/>
      <point x="697" y="403" type="curve" smooth="yes"/>
      <point x="697" y="360"/>
      <point x="683" y="320"/>
      <point x="657" y="291" type="curve"/>
      <point x="674" y="276" type="line"/>
      <point x="706" y="311"/>
      <point x="721" y="354"/>
    </contour>
  </outline>
</glyph>
<glyph name="la_cham" format="2">
  <advance width="839"/>
  <unicode hex="AA24"/>
  <note>
uniAA24
</note>
  <outline>
    <contour>
      <point x="779" y="402" type="curve" smooth="yes"/>
      <point x="779" y="497"/>
      <point x="721" y="556"/>
      <point x="630" y="556" type="curve" smooth="yes"/>
      <point x="530" y="556"/>
      <point x="508" y="475"/>
      <point x="449" y="475" type="curve" smooth="yes"/>
      <point x="390" y="475"/>
      <point x="368" y="556"/>
      <point x="268" y="556" type="curve" smooth="yes"/>
      <point x="158" y="556"/>
      <point x="90" y="457"/>
      <point x="90" y="294" type="curve" smooth="yes"/>
      <point x="90" y="105"/>
      <point x="182" y="-10"/>
      <point x="304" y="-10" type="curve" smooth="yes"/>
      <point x="354" y="-10"/>
      <point x="386" y="19"/>
      <point x="386" y="62" type="curve" smooth="yes"/>
      <point x="386" y="105"/>
      <point x="354" y="133"/>
      <point x="304" y="133" type="curve" smooth="yes"/>
      <point x="252" y="133"/>
      <point x="214" y="95"/>
      <point x="201" y="33" type="curve"/>
      <point x="224" y="33" type="line"/>
      <point x="234" y="82"/>
      <point x="264" y="112"/>
      <point x="304" y="112" type="curve" smooth="yes"/>
      <point x="340" y="112"/>
      <point x="363" y="94"/>
      <point x="363" y="63" type="curve" smooth="yes"/>
      <point x="363" y="32"/>
      <point x="339" y="12"/>
      <point x="303" y="12" type="curve" smooth="yes"/>
      <point x="197" y="12"/>
      <point x="114" y="117"/>
      <point x="114" y="294" type="curve" smooth="yes"/>
      <point x="114" y="444"/>
      <point x="173" y="534"/>
      <point x="270" y="534" type="curve" smooth="yes"/>
      <point x="357" y="534"/>
      <point x="379" y="454"/>
      <point x="449" y="454" type="curve" smooth="yes"/>
      <point x="519" y="454"/>
      <point x="541" y="534"/>
      <point x="628" y="534" type="curve" smooth="yes"/>
      <point x="706" y="534"/>
      <point x="755" y="483"/>
      <point x="755" y="402" type="curve" smooth="yes"/>
      <point x="755" y="359"/>
      <point x="741" y="319"/>
      <point x="715" y="290" type="curve"/>
      <point x="732" y="275" type="line"/>
      <point x="764" y="310"/>
      <point x="779" y="353"/>
    </contour>
  </outline>
</glyph>
<glyph name="va_cham" format="2">
  <advance width="955"/>
  <unicode hex="AA25"/>
  <note>
uniAA25
</note>
  <outline>
    <contour>
      <point x="666" y="-98" type="curve" smooth="yes"/>
      <point x="666" y="6"/>
      <point x="621" y="111"/>
      <point x="538" y="200" type="curve"/>
      <point x="516" y="191" type="line"/>
      <point x="598" y="107"/>
      <point x="642" y="7"/>
      <point x="642" y="-98" type="curve" smooth="yes"/>
      <point x="642" y="-179"/>
      <point x="616" y="-226"/>
      <point x="575" y="-226" type="curve" smooth="yes"/>
      <point x="540" y="-226"/>
      <point x="516" y="-188"/>
      <point x="516" y="-128" type="curve" smooth="yes"/>
      <point x="516" y="-31"/>
      <point x="574" y="65"/>
      <point x="675" y="189" type="curve"/>
      <point x="658" y="204" type="line"/>
      <point x="554" y="77"/>
      <point x="492" y="-25"/>
      <point x="492" y="-128" type="curve" smooth="yes"/>
      <point x="492" y="-201"/>
      <point x="525" y="-248"/>
      <point x="575" y="-248" type="curve" smooth="yes"/>
      <point x="633" y="-248"/>
      <point x="666" y="-192"/>
    </contour>
    <component base="dha_withcrossstroke"/>
  </outline>
</glyph>
<glyph name="ssa_cham" format="2">
  <advance width="974"/>
  <unicode hex="AA26"/>
  <note>
uniAA26
</note>
  <outline>
    <contour>
      <point x="914" y="408" type="curve" smooth="yes"/>
      <point x="914" y="498"/>
      <point x="852" y="556"/>
      <point x="761" y="556" type="curve" smooth="yes"/>
      <point x="666" y="556"/>
      <point x="607" y="500"/>
      <point x="607" y="416" type="curve" smooth="yes"/>
      <point x="607" y="377"/>
      <point x="622" y="339"/>
      <point x="622" y="313" type="curve" smooth="yes"/>
      <point x="622" y="196"/>
      <point x="448" y="210"/>
      <point x="448" y="94" type="curve" smooth="yes"/>
      <point x="448" y="64"/>
      <point x="460" y="38"/>
      <point x="483" y="4" type="curve"/>
      <point x="486" y="12" type="line"/>
      <point x="481" y="12"/>
      <point x="478" y="12"/>
      <point x="473" y="12" type="curve"/>
      <point x="379" y="12"/>
      <point x="322" y="66"/>
      <point x="322" y="156" type="curve" smooth="yes"/>
      <point x="322" y="240"/>
      <point x="386" y="306"/>
      <point x="386" y="400" type="curve" smooth="yes"/>
      <point x="386" y="495"/>
      <point x="323" y="556"/>
      <point x="225" y="556" type="curve" smooth="yes"/>
      <point x="130" y="556"/>
      <point x="60" y="497"/>
      <point x="60" y="399" type="curve" smooth="yes"/>
      <point x="60" y="315"/>
      <point x="115" y="251"/>
      <point x="181" y="251" type="curve" smooth="yes"/>
      <point x="218" y="251"/>
      <point x="242" y="275"/>
      <point x="242" y="308" type="curve" smooth="yes"/>
      <point x="242" y="339"/>
      <point x="214" y="360"/>
      <point x="183" y="360" type="curve" smooth="yes"/>
      <point x="132" y="360"/>
      <point x="95" y="309"/>
      <point x="92" y="220" type="curve"/>
      <point x="114" y="217" type="line"/>
      <point x="117" y="296"/>
      <point x="142" y="339"/>
      <point x="183" y="339" type="curve" smooth="yes"/>
      <point x="203" y="339"/>
      <point x="220" y="329"/>
      <point x="220" y="308" type="curve" smooth="yes"/>
      <point x="220" y="285"/>
      <point x="207" y="272"/>
      <point x="181" y="272" type="curve" smooth="yes"/>
      <point x="127" y="272"/>
      <point x="84" y="326"/>
      <point x="84" y="399" type="curve" smooth="yes"/>
      <point x="84" y="486"/>
      <point x="142" y="534"/>
      <point x="225" y="534" type="curve" smooth="yes"/>
      <point x="311" y="534"/>
      <point x="362" y="484"/>
      <point x="362" y="400" type="curve" smooth="yes"/>
      <point x="362" y="313"/>
      <point x="298" y="246"/>
      <point x="298" y="157" type="curve" smooth="yes"/>
      <point x="298" y="55"/>
      <point x="367" y="-10"/>
      <point x="473" y="-10" type="curve"/>
      <point x="484" y="-10"/>
      <point x="496" y="-10"/>
      <point x="507" y="-10" type="curve"/>
      <point x="512" y="3" type="line"/>
      <point x="485" y="35"/>
      <point x="472" y="65"/>
      <point x="472" y="94" type="curve" smooth="yes"/>
      <point x="472" y="200"/>
      <point x="645" y="179"/>
      <point x="645" y="313" type="curve" smooth="yes"/>
      <point x="645" y="345"/>
      <point x="631" y="377"/>
      <point x="631" y="417" type="curve" smooth="yes"/>
      <point x="631" y="489"/>
      <point x="678" y="534"/>
      <point x="761" y="534" type="curve" smooth="yes"/>
      <point x="840" y="534"/>
      <point x="890" y="487"/>
      <point x="890" y="408" type="curve" smooth="yes"/>
      <point x="890" y="365"/>
      <point x="872" y="324"/>
      <point x="845" y="295" type="curve"/>
      <point x="861" y="280" type="line"/>
      <point x="893" y="313"/>
      <point x="914" y="360"/>
    </contour>
  </outline>
</glyph>
<glyph name="sa_cham" format="2">
  <advance width="1119"/>
  <unicode hex="AA27"/>
  <note>
uniAA27
</note>
  <outline>
    <contour>
      <point x="1059" y="402" type="curve" smooth="yes"/>
      <point x="1059" y="497"/>
      <point x="1001" y="556"/>
      <point x="910" y="556" type="curve" smooth="yes"/>
      <point x="810" y="556"/>
      <point x="788" y="475"/>
      <point x="729" y="475" type="curve" smooth="yes"/>
      <point x="670" y="475"/>
      <point x="648" y="556"/>
      <point x="548" y="556" type="curve" smooth="yes"/>
      <point x="456" y="556"/>
      <point x="398" y="499"/>
      <point x="398" y="409" type="curve" smooth="yes"/>
      <point x="398" y="320"/>
      <point x="437" y="263"/>
      <point x="437" y="178" type="curve" smooth="yes"/>
      <point x="437" y="72"/>
      <point x="376" y="12"/>
      <point x="262" y="12" type="curve" smooth="yes"/>
      <point x="157" y="12"/>
      <point x="84" y="64"/>
      <point x="84" y="147" type="curve" smooth="yes"/>
      <point x="84" y="209"/>
      <point x="123" y="255"/>
      <point x="193" y="255" type="curve" smooth="yes"/>
      <point x="257" y="255"/>
      <point x="300" y="210"/>
      <point x="300" y="134" type="curve" smooth="yes"/>
      <point x="300" y="91"/>
      <point x="283" y="39"/>
      <point x="269" y="8" type="curve"/>
      <point x="293" y="8" type="line"/>
      <point x="306" y="37"/>
      <point x="324" y="85"/>
      <point x="324" y="134" type="curve" smooth="yes"/>
      <point x="324" y="221"/>
      <point x="269" y="276"/>
      <point x="192" y="276" type="curve" smooth="yes"/>
      <point x="111" y="276"/>
      <point x="60" y="220"/>
      <point x="60" y="147" type="curve" smooth="yes"/>
      <point x="60" y="53"/>
      <point x="145" y="-10"/>
      <point x="261" y="-10" type="curve" smooth="yes"/>
      <point x="388" y="-10"/>
      <point x="461" y="61"/>
      <point x="461" y="177" type="curve" smooth="yes"/>
      <point x="461" y="268"/>
      <point x="422" y="325"/>
      <point x="422" y="408" type="curve" smooth="yes"/>
      <point x="422" y="486"/>
      <point x="471" y="534"/>
      <point x="550" y="534" type="curve" smooth="yes"/>
      <point x="637" y="534"/>
      <point x="659" y="454"/>
      <point x="729" y="454" type="curve" smooth="yes"/>
      <point x="799" y="454"/>
      <point x="821" y="534"/>
      <point x="908" y="534" type="curve" smooth="yes"/>
      <point x="986" y="534"/>
      <point x="1035" y="483"/>
      <point x="1035" y="402" type="curve" smooth="yes"/>
      <point x="1035" y="359"/>
      <point x="1021" y="319"/>
      <point x="995" y="290" type="curve"/>
      <point x="1012" y="275" type="line"/>
      <point x="1044" y="310"/>
      <point x="1059" y="353"/>
    </contour>
  </outline>
</glyph>
<glyph name="ha_cham" format="2">
  <advance width="1088"/>
  <unicode hex="AA28"/>
  <note>
uniAA28
</note>
  <outline>
    <contour>
      <point x="1028" y="384" type="curve" smooth="yes"/>
      <point x="1028" y="485"/>
      <point x="967" y="556"/>
      <point x="868" y="556" type="curve" smooth="yes"/>
      <point x="771" y="556"/>
      <point x="701" y="491"/>
      <point x="701" y="374" type="curve"/>
      <point x="716" y="374" type="line"/>
      <point x="717" y="490"/>
      <point x="649" y="556"/>
      <point x="554" y="556" type="curve" smooth="yes"/>
      <point x="461" y="556"/>
      <point x="398" y="495"/>
      <point x="398" y="406" type="curve" smooth="yes"/>
      <point x="398" y="319"/>
      <point x="437" y="263"/>
      <point x="437" y="178" type="curve" smooth="yes"/>
      <point x="437" y="72"/>
      <point x="376" y="12"/>
      <point x="262" y="12" type="curve" smooth="yes"/>
      <point x="157" y="12"/>
      <point x="84" y="64"/>
      <point x="84" y="147" type="curve" smooth="yes"/>
      <point x="84" y="209"/>
      <point x="123" y="255"/>
      <point x="193" y="255" type="curve" smooth="yes"/>
      <point x="257" y="255"/>
      <point x="300" y="210"/>
      <point x="300" y="134" type="curve" smooth="yes"/>
      <point x="300" y="91"/>
      <point x="283" y="39"/>
      <point x="269" y="8" type="curve"/>
      <point x="293" y="8" type="line"/>
      <point x="306" y="37"/>
      <point x="324" y="85"/>
      <point x="324" y="134" type="curve" smooth="yes"/>
      <point x="324" y="221"/>
      <point x="269" y="276"/>
      <point x="192" y="276" type="curve" smooth="yes"/>
      <point x="111" y="276"/>
      <point x="60" y="220"/>
      <point x="60" y="147" type="curve" smooth="yes"/>
      <point x="60" y="53"/>
      <point x="145" y="-10"/>
      <point x="261" y="-10" type="curve" smooth="yes"/>
      <point x="388" y="-10"/>
      <point x="461" y="61"/>
      <point x="461" y="177" type="curve" smooth="yes"/>
      <point x="461" y="268"/>
      <point x="422" y="324"/>
      <point x="422" y="405" type="curve" smooth="yes"/>
      <point x="422" y="484"/>
      <point x="473" y="534"/>
      <point x="556" y="534" type="curve" smooth="yes"/>
      <point x="637" y="534"/>
      <point x="697" y="478"/>
      <point x="697" y="372" type="curve"/>
      <point x="720" y="372" type="line"/>
      <point x="720" y="479"/>
      <point x="783" y="534"/>
      <point x="867" y="534" type="curve" smooth="yes"/>
      <point x="955" y="534"/>
      <point x="1004" y="474"/>
      <point x="1004" y="384" type="curve" smooth="yes"/>
      <point x="1004" y="297"/>
      <point x="971" y="231"/>
      <point x="881" y="231" type="curve" smooth="yes"/>
      <point x="830" y="231"/>
      <point x="801" y="249"/>
      <point x="801" y="282" type="curve" smooth="yes"/>
      <point x="801" y="310"/>
      <point x="821" y="324"/>
      <point x="851" y="324" type="curve" smooth="yes"/>
      <point x="889" y="324"/>
      <point x="920" y="292"/>
      <point x="938" y="236" type="curve"/>
      <point x="958" y="247" type="line"/>
      <point x="936" y="309"/>
      <point x="898" y="345"/>
      <point x="851" y="345" type="curve" smooth="yes"/>
      <point x="809" y="345"/>
      <point x="778" y="320"/>
      <point x="778" y="282" type="curve" smooth="yes"/>
      <point x="778" y="238"/>
      <point x="818" y="209"/>
      <point x="881" y="209" type="curve" smooth="yes"/>
      <point x="983" y="209"/>
      <point x="1028" y="286"/>
    </contour>
  </outline>
</glyph>
<glyph name="aaSign_cham" format="2">
  <unicode hex="AA29"/>
  <note>
uniAA29
</note>
  <outline>
    <contour>
      <point x="76" y="823" type="curve" smooth="yes"/>
      <point x="76" y="895"/>
      <point x="23" y="946"/>
      <point x="-60" y="946" type="curve" smooth="yes"/>
      <point x="-142" y="946"/>
      <point x="-193" y="897"/>
      <point x="-193" y="825" type="curve" smooth="yes"/>
      <point x="-193" y="707"/>
      <point x="-39" y="667"/>
      <point x="-39" y="566" type="curve" smooth="yes"/>
      <point x="-39" y="534"/>
      <point x="-56" y="505"/>
      <point x="-90" y="489" type="curve"/>
      <point x="-80" y="469" type="line"/>
      <point x="-38" y="489"/>
      <point x="-15" y="526"/>
      <point x="-15" y="566" type="curve" smooth="yes"/>
      <point x="-15" y="679"/>
      <point x="-169" y="719"/>
      <point x="-169" y="825" type="curve" smooth="yes"/>
      <point x="-169" y="883"/>
      <point x="-127" y="924"/>
      <point x="-60" y="924" type="curve" smooth="yes"/>
      <point x="8" y="924"/>
      <point x="52" y="881"/>
      <point x="52" y="822" type="curve" smooth="yes"/>
      <point x="52" y="796"/>
      <point x="42" y="772"/>
      <point x="28" y="753" type="curve"/>
      <point x="46" y="739" type="line"/>
      <point x="66" y="764"/>
      <point x="76" y="791"/>
    </contour>
  </outline>
</glyph>
<glyph name="iSign_cham" format="2">
  <unicode hex="AA2A"/>
  <note>
uniAA2A
</note>
  <outline>
    <contour>
      <point x="28" y="780" type="curve" smooth="yes"/>
      <point x="28" y="880"/>
      <point x="-46" y="946"/>
      <point x="-142" y="946" type="curve" smooth="yes"/>
      <point x="-244" y="946"/>
      <point x="-309" y="881"/>
      <point x="-309" y="796" type="curve" smooth="yes"/>
      <point x="-309" y="724"/>
      <point x="-261" y="674"/>
      <point x="-180" y="674" type="curve" smooth="yes"/>
      <point x="-140" y="674" type="line" smooth="yes"/>
      <point x="-91" y="674"/>
      <point x="-71" y="655"/>
      <point x="-71" y="626" type="curve" smooth="yes"/>
      <point x="-71" y="593"/>
      <point x="-81" y="570"/>
      <point x="-128" y="527" type="curve"/>
      <point x="-111" y="511" type="line"/>
      <point x="-20" y="596"/>
      <point x="28" y="686"/>
    </contour>
    <contour>
      <point x="4" y="780" type="curve" smooth="yes"/>
      <point x="4" y="725"/>
      <point x="-15" y="668"/>
      <point x="-60" y="602" type="curve"/>
      <point x="-50" y="602" type="line"/>
      <point x="-50" y="626" type="line" smooth="yes"/>
      <point x="-50" y="670"/>
      <point x="-79" y="696"/>
      <point x="-137" y="696" type="curve" smooth="yes"/>
      <point x="-177" y="696" type="line" smooth="yes"/>
      <point x="-248" y="696"/>
      <point x="-285" y="736"/>
      <point x="-285" y="796" type="curve" smooth="yes"/>
      <point x="-285" y="870"/>
      <point x="-232" y="924"/>
      <point x="-142" y="924" type="curve" smooth="yes"/>
      <point x="-61" y="924"/>
      <point x="4" y="868"/>
    </contour>
  </outline>
</glyph>
<glyph name="uSign_cham" format="2">
  <unicode hex="AA2D"/>
  <note>
Used with double marks below. Right side-bearing is increased and kerned with following bases to accommodate marks shifted right.
</note>
  <outline>
    <contour>
      <point x="10" y="113" type="curve"/>
      <point x="-15" y="113" type="line"/>
      <point x="-21" y="52"/>
      <point x="-51" y="38"/>
      <point x="-80" y="38" type="curve" smooth="yes"/>
      <point x="-134" y="38"/>
      <point x="-160" y="113"/>
      <point x="-226" y="113" type="curve" smooth="yes"/>
      <point x="-277" y="113"/>
      <point x="-310" y="81"/>
      <point x="-315" y="15" type="curve"/>
      <point x="-290" y="15" type="line"/>
      <point x="-284" y="75"/>
      <point x="-255" y="89"/>
      <point x="-228" y="89" type="curve" smooth="yes"/>
      <point x="-170" y="89"/>
      <point x="-149" y="14"/>
      <point x="-81" y="14" type="curve" smooth="yes"/>
      <point x="-31" y="14"/>
      <point x="5" y="48"/>
    </contour>
  </outline>
</glyph>
<glyph name="oeSign_cham" format="2">
  <unicode hex="AA2E"/>
  <note>
uniAA2E
</note>
  <outline>
    <contour>
      <point x="-30" y="854" type="curve"/>
      <point x="-53" y="854" type="line"/>
      <point x="-53" y="761"/>
      <point x="-121" y="693"/>
      <point x="-211" y="693" type="curve" smooth="yes"/>
      <point x="-259" y="693"/>
      <point x="-306" y="707"/>
      <point x="-328" y="727" type="curve"/>
      <point x="-343" y="713" type="line"/>
      <point x="-317" y="687"/>
      <point x="-266" y="672"/>
      <point x="-211" y="672" type="curve" smooth="yes"/>
      <point x="-108" y="672"/>
      <point x="-30" y="750"/>
    </contour>
  </outline>
</glyph>
<glyph name="oSign_cham" format="2">
  <advance width="479"/>
  <unicode hex="AA2F"/>
  <note>
uniAA2F
</note>
  <outline>
    <contour>
      <point x="429" y="435" type="line"/>
      <point x="408" y="509"/>
      <point x="346" y="556"/>
      <point x="262" y="556" type="curve" smooth="yes"/>
      <point x="152" y="556"/>
      <point x="75" y="475"/>
      <point x="75" y="347" type="curve" smooth="yes"/>
      <point x="75" y="215"/>
      <point x="150" y="134"/>
      <point x="241" y="134" type="curve" smooth="yes"/>
      <point x="288" y="134"/>
      <point x="320" y="163"/>
      <point x="320" y="204" type="curve" smooth="yes"/>
      <point x="320" y="245"/>
      <point x="288" y="273"/>
      <point x="241" y="273" type="curve" smooth="yes"/>
      <point x="189" y="273"/>
      <point x="151" y="232"/>
      <point x="140" y="177" type="curve"/>
      <point x="163" y="177" type="line"/>
      <point x="173" y="219"/>
      <point x="201" y="252"/>
      <point x="241" y="252" type="curve" smooth="yes"/>
      <point x="274" y="252"/>
      <point x="297" y="234"/>
      <point x="297" y="205" type="curve" smooth="yes"/>
      <point x="297" y="176"/>
      <point x="273" y="156"/>
      <point x="240" y="156" type="curve" smooth="yes"/>
      <point x="164" y="156"/>
      <point x="99" y="228"/>
      <point x="99" y="347" type="curve" smooth="yes"/>
      <point x="99" y="462"/>
      <point x="167" y="534"/>
      <point x="262" y="534" type="curve" smooth="yes"/>
      <point x="334" y="534"/>
      <point x="389" y="493"/>
      <point x="408" y="428" type="curve"/>
    </contour>
  </outline>
</glyph>
<glyph name="auSign_cham" format="2">
  <unicode hex="AA31"/>
  <outline>
    <contour>
      <point x="176" y="964" type="curve"/>
      <point x="152" y="970" type="line"/>
      <point x="136" y="909"/>
      <point x="106" y="873"/>
      <point x="65" y="873" type="curve" smooth="yes"/>
      <point x="16" y="873"/>
      <point x="-51" y="925"/>
      <point x="-114" y="925" type="curve" smooth="yes"/>
      <point x="-172" y="925"/>
      <point x="-221" y="888"/>
      <point x="-221" y="833" type="curve" smooth="yes"/>
      <point x="-221" y="782"/>
      <point x="-187" y="758"/>
      <point x="-131" y="724" type="curve" smooth="yes"/>
      <point x="-74" y="690"/>
      <point x="-39" y="666"/>
      <point x="-39" y="610" type="curve" smooth="yes"/>
      <point x="-39" y="569"/>
      <point x="-59" y="537"/>
      <point x="-109" y="512" type="curve"/>
      <point x="-91" y="497" type="line"/>
      <point x="-47" y="521"/>
      <point x="-15" y="560"/>
      <point x="-15" y="610" type="curve" smooth="yes"/>
      <point x="-15" y="676"/>
      <point x="-54" y="703"/>
      <point x="-113" y="738" type="curve" smooth="yes"/>
      <point x="-167" y="770"/>
      <point x="-197" y="791"/>
      <point x="-197" y="833" type="curve" smooth="yes"/>
      <point x="-197" y="877"/>
      <point x="-160" y="903"/>
      <point x="-114" y="903" type="curve" smooth="yes"/>
      <point x="-57" y="903"/>
      <point x="10" y="851"/>
      <point x="65" y="851" type="curve" smooth="yes"/>
      <point x="118" y="851"/>
      <point x="157" y="894"/>
    </contour>
  </outline>
</glyph>
<glyph name="ueSign_cham" format="2">
  <unicode hex="AA32"/>
  <note>
uniAA32
</note>
  <outline>
    <contour>
      <point x="-95" y="79" type="curve"/>
      <point x="-113" y="67" type="line"/>
      <point x="-99" y="49"/>
      <point x="-92" y="22"/>
      <point x="-92" y="-8" type="curve" smooth="yes"/>
      <point x="-92" y="-57"/>
      <point x="-113" y="-112"/>
      <point x="-140" y="-158" type="curve"/>
      <point x="-119" y="-168" type="line"/>
      <point x="-92" y="-122"/>
      <point x="-68" y="-63"/>
      <point x="-68" y="-8" type="curve" smooth="yes"/>
      <point x="-68" y="32"/>
      <point x="-81" y="67"/>
    </contour>
  </outline>
</glyph>
<glyph name="yaMedial_cham" format="2">
  <advance width="473"/>
  <unicode hex="AA33"/>
  <note>
uniAA33
</note>
  <outline>
    <contour>
      <point x="413" y="408" type="curve" smooth="yes"/>
      <point x="413" y="497"/>
      <point x="350" y="556"/>
      <point x="258" y="556" type="curve" smooth="yes"/>
      <point x="164" y="556"/>
      <point x="105" y="500"/>
      <point x="105" y="418" type="curve" smooth="yes"/>
      <point x="105" y="377"/>
      <point x="120" y="342"/>
      <point x="120" y="311" type="curve" smooth="yes"/>
      <point x="120" y="280"/>
      <point x="108" y="248"/>
      <point x="81" y="228" type="curve"/>
      <point x="85" y="224" type="line"/>
      <point x="87" y="319"/>
      <point x="29" y="377"/>
      <point x="-68" y="384" type="curve"/>
      <point x="-70" y="363" type="line"/>
      <point x="15" y="359"/>
      <point x="64" y="308"/>
      <point x="64" y="229" type="curve" smooth="yes"/>
      <point x="64" y="224"/>
      <point x="64" y="220"/>
      <point x="64" y="215" type="curve"/>
      <point x="83" y="206" type="line"/>
      <point x="121" y="227"/>
      <point x="143" y="267"/>
      <point x="143" y="312" type="curve" smooth="yes"/>
      <point x="143" y="348"/>
      <point x="129" y="383"/>
      <point x="129" y="419" type="curve" smooth="yes"/>
      <point x="129" y="489"/>
      <point x="176" y="534"/>
      <point x="258" y="534" type="curve" smooth="yes"/>
      <point x="338" y="534"/>
      <point x="389" y="486"/>
      <point x="389" y="408" type="curve" smooth="yes"/>
      <point x="389" y="363"/>
      <point x="369" y="321"/>
      <point x="340" y="292" type="curve"/>
      <point x="356" y="276" type="line"/>
      <point x="390" y="309"/>
      <point x="413" y="357"/>
    </contour>
  </outline>
</glyph>
<glyph name="laMedial_cham" format="2">
  <unicode hex="AA35"/>
  <note>
uniAA35
</note>
  <outline>
    <contour>
      <point x="41" y="136" type="curve"/>
      <point x="18" y="141" type="line"/>
      <point x="11" y="91"/>
      <point x="-13" y="69"/>
      <point x="-47" y="69" type="curve" smooth="yes"/>
      <point x="-93" y="69"/>
      <point x="-114" y="96"/>
      <point x="-169" y="96" type="curve" smooth="yes"/>
      <point x="-238" y="96"/>
      <point x="-277" y="40"/>
      <point x="-277" y="-50" type="curve" smooth="yes"/>
      <point x="-277" y="-134"/>
      <point x="-239" y="-178"/>
      <point x="-185" y="-178" type="curve" smooth="yes"/>
      <point x="-147" y="-178"/>
      <point x="-121" y="-150"/>
      <point x="-121" y="-107" type="curve" smooth="yes"/>
      <point x="-121" y="-49"/>
      <point x="-169" y="-16"/>
      <point x="-231" y="-16" type="curve" smooth="yes"/>
      <point x="-245" y="-16"/>
      <point x="-257" y="-18"/>
      <point x="-270" y="-22" type="curve"/>
      <point x="-271" y="-46" type="line"/>
      <point x="-258" y="-41"/>
      <point x="-245" y="-39"/>
      <point x="-233" y="-39" type="curve" smooth="yes"/>
      <point x="-183" y="-39"/>
      <point x="-145" y="-62"/>
      <point x="-145" y="-107" type="curve" smooth="yes"/>
      <point x="-145" y="-138"/>
      <point x="-161" y="-156"/>
      <point x="-185" y="-156" type="curve" smooth="yes"/>
      <point x="-221" y="-156"/>
      <point x="-253" y="-121"/>
      <point x="-253" y="-50" type="curve" smooth="yes"/>
      <point x="-253" y="28"/>
      <point x="-223" y="73"/>
      <point x="-168" y="73" type="curve" smooth="yes"/>
      <point x="-118" y="73"/>
      <point x="-97" y="47"/>
      <point x="-46" y="47" type="curve" smooth="yes"/>
      <point x="1" y="47"/>
      <point x="34" y="78"/>
    </contour>
  </outline>
</glyph>
<glyph name="waMedial_cham" format="2">
  <unicode hex="AA36"/>
  <note>
uniAA36
</note>
  <outline>
    <contour>
      <point x="-46" y="111" type="line"/>
      <point x="-140" y="75"/>
      <point x="-196" y="-6"/>
      <point x="-196" y="-80" type="curve" smooth="yes"/>
      <point x="-196" y="-135"/>
      <point x="-165" y="-178"/>
      <point x="-118" y="-178" type="curve" smooth="yes"/>
      <point x="-72" y="-178"/>
      <point x="-40" y="-135"/>
      <point x="-40" y="-80" type="curve" smooth="yes"/>
      <point x="-40" y="-6"/>
      <point x="-96" y="75"/>
      <point x="-191" y="111" type="curve"/>
      <point x="-199" y="92" type="line"/>
      <point x="-113" y="59"/>
      <point x="-64" y="-16"/>
      <point x="-64" y="-80" type="curve" smooth="yes"/>
      <point x="-64" y="-124"/>
      <point x="-83" y="-156"/>
      <point x="-118" y="-156" type="curve" smooth="yes"/>
      <point x="-153" y="-156"/>
      <point x="-172" y="-124"/>
      <point x="-172" y="-80" type="curve" smooth="yes"/>
      <point x="-172" y="-16"/>
      <point x="-123" y="59"/>
      <point x="-38" y="92" type="curve"/>
    </contour>
  </outline>
</glyph>
<glyph name="kFinal_cham" format="2">
  <advance width="834"/>
  <unicode hex="AA40"/>
  <note>
uniAA40
</note>
  <outline>
    <contour>
      <point x="744" y="312" type="curve" smooth="yes"/>
      <point x="744" y="463"/>
      <point x="679" y="556"/>
      <point x="572" y="556" type="curve" smooth="yes"/>
      <point x="480" y="556"/>
      <point x="413" y="491"/>
      <point x="413" y="374" type="curve"/>
      <point x="428" y="374" type="line"/>
      <point x="429" y="490"/>
      <point x="361" y="556"/>
      <point x="265" y="556" type="curve" smooth="yes"/>
      <point x="171" y="556"/>
      <point x="108" y="495"/>
      <point x="108" y="406" type="curve" smooth="yes"/>
      <point x="108" y="316"/>
      <point x="170" y="244"/>
      <point x="170" y="151" type="curve" smooth="yes"/>
      <point x="170" y="65"/>
      <point x="126" y="5"/>
      <point x="51" y="-11" type="curve"/>
      <point x="56" y="-33" type="line"/>
      <point x="141" y="-15"/>
      <point x="194" y="54"/>
      <point x="194" y="151" type="curve" smooth="yes"/>
      <point x="194" y="250"/>
      <point x="132" y="322"/>
      <point x="132" y="406" type="curve" smooth="yes"/>
      <point x="132" y="484"/>
      <point x="183" y="534"/>
      <point x="266" y="534" type="curve" smooth="yes"/>
      <point x="349" y="534"/>
      <point x="409" y="478"/>
      <point x="409" y="372" type="curve"/>
      <point x="432" y="372" type="line"/>
      <point x="432" y="479"/>
      <point x="492" y="534"/>
      <point x="570" y="534" type="curve" smooth="yes"/>
      <point x="666" y="534"/>
      <point x="720" y="451"/>
      <point x="720" y="312" type="curve" smooth="yes"/>
      <point x="720" y="151"/>
      <point x="634" y="-5"/>
      <point x="497" y="-97" type="curve"/>
      <point x="509" y="-114" type="line"/>
      <point x="655" y="-20"/>
      <point x="744" y="145"/>
    </contour>
  </outline>
</glyph>
<glyph name="gFinal_cham" format="2">
  <advance width="855"/>
  <unicode hex="AA41"/>
  <note>
uniAA41
</note>
  <outline>
    <contour>
      <point x="765" y="312" type="curve" smooth="yes"/>
      <point x="765" y="463"/>
      <point x="699" y="556"/>
      <point x="592" y="556" type="curve" smooth="yes"/>
      <point x="495" y="556"/>
      <point x="426" y="491"/>
      <point x="426" y="374" type="curve"/>
      <point x="441" y="374" type="line"/>
      <point x="442" y="490"/>
      <point x="374" y="556"/>
      <point x="280" y="556" type="curve" smooth="yes"/>
      <point x="163" y="556"/>
      <point x="90" y="456"/>
      <point x="90" y="294" type="curve" smooth="yes"/>
      <point x="90" y="105"/>
      <point x="182" y="-10"/>
      <point x="304" y="-10" type="curve" smooth="yes"/>
      <point x="354" y="-10"/>
      <point x="386" y="19"/>
      <point x="386" y="62" type="curve" smooth="yes"/>
      <point x="386" y="105"/>
      <point x="354" y="133"/>
      <point x="304" y="133" type="curve" smooth="yes"/>
      <point x="252" y="133"/>
      <point x="214" y="95"/>
      <point x="201" y="33" type="curve"/>
      <point x="224" y="33" type="line"/>
      <point x="234" y="82"/>
      <point x="264" y="112"/>
      <point x="304" y="112" type="curve" smooth="yes"/>
      <point x="340" y="112"/>
      <point x="363" y="94"/>
      <point x="363" y="63" type="curve" smooth="yes"/>
      <point x="363" y="32"/>
      <point x="339" y="12"/>
      <point x="303" y="12" type="curve" smooth="yes"/>
      <point x="197" y="12"/>
      <point x="114" y="117"/>
      <point x="114" y="294" type="curve" smooth="yes"/>
      <point x="114" y="445"/>
      <point x="175" y="534"/>
      <point x="281" y="534" type="curve" smooth="yes"/>
      <point x="362" y="534"/>
      <point x="422" y="478"/>
      <point x="422" y="372" type="curve"/>
      <point x="445" y="372" type="line"/>
      <point x="445" y="479"/>
      <point x="507" y="534"/>
      <point x="591" y="534" type="curve" smooth="yes"/>
      <point x="686" y="534"/>
      <point x="741" y="451"/>
      <point x="741" y="312" type="curve" smooth="yes"/>
      <point x="741" y="151"/>
      <point x="655" y="-5"/>
      <point x="518" y="-97" type="curve"/>
      <point x="530" y="-114" type="line"/>
      <point x="676" y="-20"/>
      <point x="765" y="145"/>
    </contour>
  </outline>
</glyph>
<glyph name="ngSignFinal_cham" format="2">
  <unicode hex="AA43"/>
  <note>
uniAA43
</note>
  <outline>
    <contour>
      <point x="-60" y="840" type="line"/>
      <point x="-67" y="854" type="line"/>
      <point x="-362" y="708" type="line"/>
      <point x="-353" y="690" type="line"/>
    </contour>
  </outline>
</glyph>
<glyph name="tFinal_cham" format="2">
  <advance width="865"/>
  <unicode hex="AA45"/>
  <note>
uniAA45
</note>
  <outline>
    <contour>
      <point x="775" y="312" type="curve" smooth="yes"/>
      <point x="775" y="463"/>
      <point x="709" y="556"/>
      <point x="602" y="556" type="curve" smooth="yes"/>
      <point x="505" y="556"/>
      <point x="436" y="491"/>
      <point x="436" y="374" type="curve"/>
      <point x="451" y="374" type="line"/>
      <point x="452" y="490"/>
      <point x="383" y="556"/>
      <point x="288" y="556" type="curve" smooth="yes"/>
      <point x="166" y="556"/>
      <point x="90" y="456"/>
      <point x="90" y="294" type="curve" smooth="yes"/>
      <point x="90" y="106"/>
      <point x="169" y="-10"/>
      <point x="292" y="-10" type="curve" smooth="yes"/>
      <point x="374" y="-10"/>
      <point x="428" y="44"/>
      <point x="428" y="129" type="curve" smooth="yes"/>
      <point x="428" y="215"/>
      <point x="367" y="272"/>
      <point x="272" y="272" type="curve" smooth="yes"/>
      <point x="206" y="272"/>
      <point x="149" y="244"/>
      <point x="109" y="194" type="curve"/>
      <point x="119" y="170" type="line"/>
      <point x="156" y="223"/>
      <point x="209" y="251"/>
      <point x="272" y="251" type="curve" smooth="yes"/>
      <point x="355" y="251"/>
      <point x="404" y="204"/>
      <point x="404" y="129" type="curve" smooth="yes"/>
      <point x="404" y="55"/>
      <point x="362" y="12"/>
      <point x="292" y="12" type="curve" smooth="yes"/>
      <point x="181" y="12"/>
      <point x="114" y="117"/>
      <point x="114" y="294" type="curve" smooth="yes"/>
      <point x="114" y="445"/>
      <point x="178" y="534"/>
      <point x="289" y="534" type="curve" smooth="yes"/>
      <point x="371" y="534"/>
      <point x="432" y="478"/>
      <point x="432" y="372" type="curve"/>
      <point x="455" y="372" type="line"/>
      <point x="455" y="479"/>
      <point x="517" y="534"/>
      <point x="601" y="534" type="curve" smooth="yes"/>
      <point x="696" y="534"/>
      <point x="751" y="451"/>
      <point x="751" y="312" type="curve" smooth="yes"/>
      <point x="751" y="151"/>
      <point x="665" y="-5"/>
      <point x="528" y="-97" type="curve"/>
      <point x="540" y="-114" type="line"/>
      <point x="686" y="-20"/>
      <point x="775" y="145"/>
    </contour>
  </outline>
</glyph>
<glyph name="pFinal_cham" format="2">
  <advance width="1124"/>
  <unicode hex="AA47"/>
  <note>
uniAA47
</note>
  <outline>
    <contour>
      <point x="1034" y="312" type="curve" smooth="yes"/>
      <point x="1034" y="463"/>
      <point x="969" y="556"/>
      <point x="862" y="556" type="curve" smooth="yes"/>
      <point x="770" y="556"/>
      <point x="703" y="491"/>
      <point x="703" y="374" type="curve"/>
      <point x="718" y="374" type="line"/>
      <point x="719" y="490"/>
      <point x="651" y="556"/>
      <point x="554" y="556" type="curve" smooth="yes"/>
      <point x="461" y="556"/>
      <point x="398" y="495"/>
      <point x="398" y="406" type="curve" smooth="yes"/>
      <point x="398" y="319"/>
      <point x="437" y="263"/>
      <point x="437" y="178" type="curve" smooth="yes"/>
      <point x="437" y="72"/>
      <point x="376" y="12"/>
      <point x="262" y="12" type="curve" smooth="yes"/>
      <point x="157" y="12"/>
      <point x="84" y="64"/>
      <point x="84" y="147" type="curve" smooth="yes"/>
      <point x="84" y="209"/>
      <point x="123" y="255"/>
      <point x="193" y="255" type="curve" smooth="yes"/>
      <point x="257" y="255"/>
      <point x="300" y="210"/>
      <point x="300" y="134" type="curve" smooth="yes"/>
      <point x="300" y="91"/>
      <point x="283" y="39"/>
      <point x="269" y="8" type="curve"/>
      <point x="293" y="8" type="line"/>
      <point x="306" y="37"/>
      <point x="324" y="85"/>
      <point x="324" y="134" type="curve" smooth="yes"/>
      <point x="324" y="221"/>
      <point x="269" y="276"/>
      <point x="192" y="276" type="curve" smooth="yes"/>
      <point x="111" y="276"/>
      <point x="60" y="220"/>
      <point x="60" y="147" type="curve" smooth="yes"/>
      <point x="60" y="53"/>
      <point x="145" y="-10"/>
      <point x="261" y="-10" type="curve" smooth="yes"/>
      <point x="388" y="-10"/>
      <point x="461" y="61"/>
      <point x="461" y="177" type="curve" smooth="yes"/>
      <point x="461" y="268"/>
      <point x="422" y="324"/>
      <point x="422" y="405" type="curve" smooth="yes"/>
      <point x="422" y="484"/>
      <point x="473" y="534"/>
      <point x="556" y="534" type="curve" smooth="yes"/>
      <point x="639" y="534"/>
      <point x="699" y="478"/>
      <point x="699" y="372" type="curve"/>
      <point x="722" y="372" type="line"/>
      <point x="722" y="479"/>
      <point x="782" y="534"/>
      <point x="860" y="534" type="curve" smooth="yes"/>
      <point x="956" y="534"/>
      <point x="1010" y="451"/>
      <point x="1010" y="312" type="curve" smooth="yes"/>
      <point x="1010" y="151"/>
      <point x="924" y="-5"/>
      <point x="787" y="-97" type="curve"/>
      <point x="799" y="-114" type="line"/>
      <point x="945" y="-20"/>
      <point x="1034" y="145"/>
    </contour>
  </outline>
</glyph>
<glyph name="yFinal_cham" format="2">
  <advance width="1238"/>
  <unicode hex="AA48"/>
  <note>
uniAA48
</note>
  <outline>
    <contour>
      <point x="1148" y="312" type="curve" smooth="yes"/>
      <point x="1148" y="463"/>
      <point x="1082" y="556"/>
      <point x="975" y="556" type="curve" smooth="yes"/>
      <point x="878" y="556"/>
      <point x="809" y="491"/>
      <point x="809" y="374" type="curve"/>
      <point x="824" y="374" type="line"/>
      <point x="825" y="490"/>
      <point x="757" y="556"/>
      <point x="663" y="556" type="curve" smooth="yes"/>
      <point x="570" y="556"/>
      <point x="507" y="495"/>
      <point x="507" y="406" type="curve" smooth="yes"/>
      <point x="507" y="319"/>
      <point x="549" y="259"/>
      <point x="549" y="187" type="curve" smooth="yes"/>
      <point x="549" y="92"/>
      <point x="454" y="17"/>
      <point x="302" y="-9" type="curve"/>
      <point x="309" y="-14" type="line"/>
      <point x="359" y="108"/>
      <point x="387" y="241"/>
      <point x="387" y="334" type="curve" smooth="yes"/>
      <point x="387" y="481"/>
      <point x="321" y="556"/>
      <point x="222" y="556" type="curve" smooth="yes"/>
      <point x="126" y="556"/>
      <point x="60" y="498"/>
      <point x="60" y="408" type="curve" smooth="yes"/>
      <point x="60" y="360"/>
      <point x="81" y="313"/>
      <point x="113" y="280" type="curve"/>
      <point x="130" y="295" type="line"/>
      <point x="103" y="324"/>
      <point x="84" y="365"/>
      <point x="84" y="408" type="curve" smooth="yes"/>
      <point x="84" y="487"/>
      <point x="138" y="534"/>
      <point x="222" y="534" type="curve" smooth="yes"/>
      <point x="309" y="534"/>
      <point x="363" y="470"/>
      <point x="363" y="334" type="curve" smooth="yes"/>
      <point x="363" y="237"/>
      <point x="334" y="95"/>
      <point x="283" y="-18" type="curve"/>
      <point x="288" y="-33" type="line"/>
      <point x="475" y="-6"/>
      <point x="573" y="80"/>
      <point x="573" y="187" type="curve" smooth="yes"/>
      <point x="573" y="264"/>
      <point x="531" y="322"/>
      <point x="531" y="405" type="curve" smooth="yes"/>
      <point x="531" y="484"/>
      <point x="582" y="534"/>
      <point x="665" y="534" type="curve" smooth="yes"/>
      <point x="745" y="534"/>
      <point x="805" y="478"/>
      <point x="805" y="372" type="curve"/>
      <point x="828" y="372" type="line"/>
      <point x="828" y="479"/>
      <point x="890" y="534"/>
      <point x="974" y="534" type="curve" smooth="yes"/>
      <point x="1069" y="534"/>
      <point x="1124" y="451"/>
      <point x="1124" y="312" type="curve" smooth="yes"/>
      <point x="1124" y="151"/>
      <point x="1038" y="-5"/>
      <point x="901" y="-97" type="curve"/>
      <point x="913" y="-114" type="line"/>
      <point x="1059" y="-20"/>
      <point x="1148" y="145"/>
    </contour>
  </outline>
</glyph>
<glyph name="lFinal_cham" format="2">
  <advance width="899"/>
  <unicode hex="AA4A"/>
  <note>
uniAA4A
</note>
  <outline>
    <contour>
      <point x="809" y="308" type="curve" smooth="yes"/>
      <point x="809" y="462"/>
      <point x="738" y="556"/>
      <point x="624" y="556" type="curve" smooth="yes"/>
      <point x="527" y="556"/>
      <point x="512" y="475"/>
      <point x="450" y="475" type="curve" smooth="yes"/>
      <point x="388" y="475"/>
      <point x="373" y="556"/>
      <point x="276" y="556" type="curve" smooth="yes"/>
      <point x="161" y="556"/>
      <point x="90" y="457"/>
      <point x="90" y="294" type="curve" smooth="yes"/>
      <point x="90" y="105"/>
      <point x="182" y="-10"/>
      <point x="304" y="-10" type="curve" smooth="yes"/>
      <point x="354" y="-10"/>
      <point x="386" y="19"/>
      <point x="386" y="62" type="curve" smooth="yes"/>
      <point x="386" y="105"/>
      <point x="354" y="133"/>
      <point x="304" y="133" type="curve" smooth="yes"/>
      <point x="252" y="133"/>
      <point x="214" y="95"/>
      <point x="201" y="33" type="curve"/>
      <point x="224" y="33" type="line"/>
      <point x="234" y="82"/>
      <point x="264" y="112"/>
      <point x="304" y="112" type="curve" smooth="yes"/>
      <point x="340" y="112"/>
      <point x="363" y="94"/>
      <point x="363" y="63" type="curve" smooth="yes"/>
      <point x="363" y="32"/>
      <point x="339" y="12"/>
      <point x="303" y="12" type="curve" smooth="yes"/>
      <point x="197" y="12"/>
      <point x="114" y="117"/>
      <point x="114" y="294" type="curve" smooth="yes"/>
      <point x="114" y="444"/>
      <point x="176" y="534"/>
      <point x="278" y="534" type="curve" smooth="yes"/>
      <point x="363" y="534"/>
      <point x="378" y="454"/>
      <point x="450" y="454" type="curve" smooth="yes"/>
      <point x="522" y="454"/>
      <point x="537" y="534"/>
      <point x="622" y="534" type="curve" smooth="yes"/>
      <point x="723" y="534"/>
      <point x="785" y="449"/>
      <point x="785" y="308" type="curve" smooth="yes"/>
      <point x="785" y="146"/>
      <point x="698" y="-10"/>
      <point x="561" y="-98" type="curve"/>
      <point x="572" y="-115" type="line"/>
      <point x="719" y="-25"/>
      <point x="809" y="139"/>
    </contour>
  </outline>
</glyph>
<glyph name="ssFinal_cham" format="2">
  <advance width="1019"/>
  <unicode hex="AA4B"/>
  <note>
uniAA4B
</note>
  <outline>
    <contour>
      <point x="929" y="312" type="curve" smooth="yes"/>
      <point x="929" y="463"/>
      <point x="862" y="556"/>
      <point x="755" y="556" type="curve" smooth="yes"/>
      <point x="667" y="556"/>
      <point x="607" y="500"/>
      <point x="607" y="416" type="curve" smooth="yes"/>
      <point x="607" y="377"/>
      <point x="622" y="339"/>
      <point x="622" y="313" type="curve" smooth="yes"/>
      <point x="622" y="196"/>
      <point x="448" y="210"/>
      <point x="448" y="94" type="curve" smooth="yes"/>
      <point x="448" y="64"/>
      <point x="460" y="38"/>
      <point x="483" y="4" type="curve"/>
      <point x="486" y="12" type="line"/>
      <point x="481" y="12"/>
      <point x="478" y="12"/>
      <point x="473" y="12" type="curve"/>
      <point x="379" y="12"/>
      <point x="322" y="66"/>
      <point x="322" y="156" type="curve" smooth="yes"/>
      <point x="322" y="240"/>
      <point x="386" y="306"/>
      <point x="386" y="400" type="curve" smooth="yes"/>
      <point x="386" y="495"/>
      <point x="323" y="556"/>
      <point x="225" y="556" type="curve" smooth="yes"/>
      <point x="130" y="556"/>
      <point x="60" y="497"/>
      <point x="60" y="399" type="curve" smooth="yes"/>
      <point x="60" y="315"/>
      <point x="115" y="251"/>
      <point x="181" y="251" type="curve" smooth="yes"/>
      <point x="218" y="251"/>
      <point x="242" y="275"/>
      <point x="242" y="308" type="curve" smooth="yes"/>
      <point x="242" y="339"/>
      <point x="214" y="360"/>
      <point x="183" y="360" type="curve" smooth="yes"/>
      <point x="132" y="360"/>
      <point x="95" y="309"/>
      <point x="92" y="220" type="curve"/>
      <point x="114" y="217" type="line"/>
      <point x="117" y="296"/>
      <point x="142" y="339"/>
      <point x="183" y="339" type="curve" smooth="yes"/>
      <point x="203" y="339"/>
      <point x="220" y="329"/>
      <point x="220" y="308" type="curve" smooth="yes"/>
      <point x="220" y="285"/>
      <point x="207" y="272"/>
      <point x="181" y="272" type="curve" smooth="yes"/>
      <point x="127" y="272"/>
      <point x="84" y="326"/>
      <point x="84" y="399" type="curve" smooth="yes"/>
      <point x="84" y="486"/>
      <point x="142" y="534"/>
      <point x="225" y="534" type="curve" smooth="yes"/>
      <point x="311" y="534"/>
      <point x="362" y="484"/>
      <point x="362" y="400" type="curve" smooth="yes"/>
      <point x="362" y="313"/>
      <point x="298" y="246"/>
      <point x="298" y="157" type="curve" smooth="yes"/>
      <point x="298" y="55"/>
      <point x="367" y="-10"/>
      <point x="473" y="-10" type="curve"/>
      <point x="484" y="-10"/>
      <point x="496" y="-10"/>
      <point x="507" y="-10" type="curve"/>
      <point x="512" y="3" type="line"/>
      <point x="485" y="35"/>
      <point x="472" y="65"/>
      <point x="472" y="94" type="curve" smooth="yes"/>
      <point x="472" y="200"/>
      <point x="645" y="179"/>
      <point x="645" y="313" type="curve" smooth="yes"/>
      <point x="645" y="345"/>
      <point x="631" y="377"/>
      <point x="631" y="417" type="curve" smooth="yes"/>
      <point x="631" y="489"/>
      <point x="679" y="534"/>
      <point x="755" y="534" type="curve" smooth="yes"/>
      <point x="850" y="534"/>
      <point x="905" y="451"/>
      <point x="905" y="312" type="curve" smooth="yes"/>
      <point x="905" y="151"/>
      <point x="819" y="-5"/>
      <point x="682" y="-97" type="curve"/>
      <point x="694" y="-114" type="line"/>
      <point x="840" y="-20"/>
      <point x="929" y="145"/>
    </contour>
  </outline>
</glyph>
<glyph name="mSignFinal_cham" format="2">
  <unicode hex="AA4C"/>
  <note>
uniAA4C
</note>
  <outline>
    <contour>
      <point x="-212" y="705" type="curve" smooth="yes"/>
      <point x="-185" y="705"/>
      <point x="-169" y="721"/>
      <point x="-169" y="748" type="curve" smooth="yes"/>
      <point x="-169" y="774"/>
      <point x="-185" y="790"/>
      <point x="-212" y="790" type="curve" smooth="yes"/>
      <point x="-238" y="790"/>
      <point x="-254" y="774"/>
      <point x="-254" y="748" type="curve" smooth="yes"/>
      <point x="-254" y="721"/>
      <point x="-238" y="705"/>
    </contour>
  </outline>
</glyph>
<glyph name="hSignFinal_cham" format="2">
  <advance width="493"/>
  <unicode hex="AA4D"/>
  <note>
uniAA4D
</note>
  <outline>
    <contour>
      <point x="433" y="382" type="curve" smooth="yes"/>
      <point x="433" y="488"/>
      <point x="360" y="556"/>
      <point x="246" y="556" type="curve" smooth="yes"/>
      <point x="136" y="556"/>
      <point x="60" y="488"/>
      <point x="60" y="390" type="curve" smooth="yes"/>
      <point x="60" y="305"/>
      <point x="110" y="244"/>
      <point x="172" y="244" type="curve" smooth="yes"/>
      <point x="211" y="244"/>
      <point x="239" y="269"/>
      <point x="239" y="306" type="curve" smooth="yes"/>
      <point x="239" y="343"/>
      <point x="211" y="366"/>
      <point x="172" y="366" type="curve" smooth="yes"/>
      <point x="134" y="366"/>
      <point x="106" y="341"/>
      <point x="91" y="301" type="curve"/>
      <point x="109" y="285" type="line"/>
      <point x="119" y="321"/>
      <point x="139" y="345"/>
      <point x="171" y="345" type="curve" smooth="yes"/>
      <point x="199" y="345"/>
      <point x="217" y="332"/>
      <point x="217" y="306" type="curve" smooth="yes"/>
      <point x="217" y="280"/>
      <point x="199" y="265"/>
      <point x="172" y="265" type="curve" smooth="yes"/>
      <point x="122" y="265"/>
      <point x="84" y="315"/>
      <point x="84" y="390" type="curve" smooth="yes"/>
      <point x="84" y="477"/>
      <point x="148" y="534"/>
      <point x="246" y="534" type="curve" smooth="yes"/>
      <point x="348" y="534"/>
      <point x="409" y="477"/>
      <point x="409" y="381" type="curve" smooth="yes"/>
      <point x="409" y="325"/>
      <point x="386" y="270"/>
      <point x="317" y="229" type="curve" smooth="yes"/>
      <point x="271" y="202" type="line" smooth="yes"/>
      <point x="230" y="178"/>
      <point x="229" y="153"/>
      <point x="229" y="123" type="curve" smooth="yes"/>
      <point x="229" y="-248" type="line"/>
      <point x="253" y="-248" type="line"/>
      <point x="253" y="123" type="line" smooth="yes"/>
      <point x="253" y="152"/>
      <point x="258" y="168"/>
      <point x="289" y="186" type="curve" smooth="yes"/>
      <point x="332" y="211" type="line" smooth="yes"/>
      <point x="401" y="251"/>
      <point x="433" y="310"/>
    </contour>
  </outline>
</glyph>
<glyph name="zero_cham" format="2">
  <advance width="575"/>
  <unicode hex="AA50"/>
  <note>
uniAA50
</note>
  <outline>
    <contour>
      <point x="515" y="273" type="curve" smooth="yes"/>
      <point x="515" y="431"/>
      <point x="451" y="556"/>
      <point x="292" y="556" type="curve" smooth="yes"/>
      <point x="145" y="556"/>
      <point x="59" y="447"/>
      <point x="59" y="273" type="curve" smooth="yes"/>
      <point x="59" y="111"/>
      <point x="134" y="-10"/>
      <point x="286" y="-10" type="curve" smooth="yes"/>
      <point x="443" y="-10"/>
      <point x="515" y="113"/>
    </contour>
    <contour>
      <point x="83" y="273" type="curve" smooth="yes"/>
      <point x="83" y="437"/>
      <point x="158" y="534"/>
      <point x="292" y="534" type="curve" smooth="yes"/>
      <point x="435" y="534"/>
      <point x="491" y="418"/>
      <point x="491" y="273" type="curve" smooth="yes"/>
      <point x="491" y="121"/>
      <point x="428" y="12"/>
      <point x="286" y="12" type="curve" smooth="yes"/>
      <point x="149" y="12"/>
      <point x="83" y="119"/>
    </contour>
  </outline>
</glyph>
<glyph name="two_cham" format="2">
  <advance width="895"/>
  <unicode hex="AA52"/>
  <note>
uniAA52
</note>
  <outline>
    <contour>
      <point x="805" y="288" type="curve" smooth="yes"/>
      <point x="805" y="401" type="line" smooth="yes"/>
      <point x="805" y="500"/>
      <point x="757" y="556"/>
      <point x="678" y="556" type="curve" smooth="yes"/>
      <point x="634" y="556"/>
      <point x="610" y="538"/>
      <point x="581" y="512" type="curve" smooth="yes"/>
      <point x="558" y="491"/>
      <point x="543" y="477"/>
      <point x="520" y="477" type="curve" smooth="yes"/>
      <point x="497" y="477"/>
      <point x="481" y="491"/>
      <point x="459" y="512" type="curve" smooth="yes"/>
      <point x="430" y="539"/>
      <point x="406" y="556"/>
      <point x="363" y="556" type="curve" smooth="yes"/>
      <point x="280" y="556"/>
      <point x="230" y="491"/>
      <point x="230" y="393" type="curve" smooth="yes"/>
      <point x="230" y="257"/>
      <point x="290" y="190"/>
      <point x="386" y="190" type="curve" smooth="yes"/>
      <point x="430" y="190"/>
      <point x="469" y="219"/>
      <point x="469" y="264" type="curve" smooth="yes"/>
      <point x="469" y="304"/>
      <point x="437" y="332"/>
      <point x="393" y="332" type="curve" smooth="yes"/>
      <point x="345" y="332"/>
      <point x="313" y="293"/>
      <point x="305" y="228" type="curve"/>
      <point x="326" y="220" type="line"/>
      <point x="333" y="281"/>
      <point x="356" y="311"/>
      <point x="392" y="311" type="curve" smooth="yes"/>
      <point x="425" y="311"/>
      <point x="446" y="291"/>
      <point x="446" y="264" type="curve" smooth="yes"/>
      <point x="446" y="232"/>
      <point x="418" y="212"/>
      <point x="386" y="212" type="curve" smooth="yes"/>
      <point x="304" y="212"/>
      <point x="254" y="269"/>
      <point x="254" y="392" type="curve" smooth="yes"/>
      <point x="254" y="479"/>
      <point x="295" y="534"/>
      <point x="364" y="534" type="curve" smooth="yes"/>
      <point x="401" y="534"/>
      <point x="422" y="518"/>
      <point x="449" y="493" type="curve" smooth="yes"/>
      <point x="473" y="471"/>
      <point x="489" y="455"/>
      <point x="520" y="455" type="curve" smooth="yes"/>
      <point x="549" y="455"/>
      <point x="565" y="468"/>
      <point x="591" y="493" type="curve" smooth="yes"/>
      <point x="620" y="521"/>
      <point x="643" y="534"/>
      <point x="677" y="534" type="curve" smooth="yes"/>
      <point x="742" y="534"/>
      <point x="781" y="488"/>
      <point x="781" y="401" type="curve" smooth="yes"/>
      <point x="781" y="288" type="line" smooth="yes"/>
      <point x="781" y="114"/>
      <point x="661" y="12"/>
      <point x="462" y="12" type="curve" smooth="yes"/>
      <point x="242" y="12"/>
      <point x="114" y="99"/>
      <point x="114" y="257" type="curve" smooth="yes"/>
      <point x="114" y="630" type="line" smooth="yes"/>
      <point x="114" y="767"/>
      <point x="181" y="832"/>
      <point x="292" y="832" type="curve" smooth="yes"/>
      <point x="391" y="832"/>
      <point x="451" y="765"/>
      <point x="570" y="765" type="curve" smooth="yes"/>
      <point x="644" y="765"/>
      <point x="710" y="817"/>
      <point x="741" y="901" type="curve"/>
      <point x="719" y="909" type="line"/>
      <point x="691" y="832"/>
      <point x="634" y="787"/>
      <point x="570" y="787" type="curve" smooth="yes"/>
      <point x="461" y="787"/>
      <point x="401" y="854"/>
      <point x="292" y="854" type="curve" smooth="yes"/>
      <point x="167" y="854"/>
      <point x="90" y="779"/>
      <point x="90" y="630" type="curve" smooth="yes"/>
      <point x="90" y="257" type="line" smooth="yes"/>
      <point x="90" y="88"/>
      <point x="227" y="-10"/>
      <point x="462" y="-10" type="curve" smooth="yes"/>
      <point x="676" y="-10"/>
      <point x="805" y="103"/>
    </contour>
  </outline>
</glyph>
<glyph name="four_cham" format="2">
  <advance width="796"/>
  <unicode hex="AA54"/>
  <note>
uniAA54
</note>
  <outline>
    <contour>
      <point x="737" y="602" type="curve"/>
      <point x="715" y="611" type="line"/>
      <point x="684" y="531"/>
      <point x="626" y="489"/>
      <point x="567" y="489" type="curve" smooth="yes"/>
      <point x="456" y="489"/>
      <point x="400" y="556"/>
      <point x="294" y="556" type="curve" smooth="yes"/>
      <point x="170" y="556"/>
      <point x="90" y="457"/>
      <point x="90" y="294" type="curve" smooth="yes"/>
      <point x="90" y="105"/>
      <point x="166" y="-10"/>
      <point x="291" y="-10" type="curve" smooth="yes"/>
      <point x="376" y="-10"/>
      <point x="428" y="42"/>
      <point x="428" y="125" type="curve" smooth="yes"/>
      <point x="428" y="215"/>
      <point x="368" y="272"/>
      <point x="272" y="272" type="curve" smooth="yes"/>
      <point x="203" y="272"/>
      <point x="145" y="242"/>
      <point x="105" y="188" type="curve"/>
      <point x="120" y="172" type="line"/>
      <point x="157" y="223"/>
      <point x="210" y="251"/>
      <point x="272" y="251" type="curve" smooth="yes"/>
      <point x="354" y="251"/>
      <point x="404" y="203"/>
      <point x="404" y="125" type="curve" smooth="yes"/>
      <point x="404" y="54"/>
      <point x="361" y="12"/>
      <point x="291" y="12" type="curve" smooth="yes"/>
      <point x="181" y="12"/>
      <point x="114" y="117"/>
      <point x="114" y="294" type="curve" smooth="yes"/>
      <point x="114" y="444"/>
      <point x="184" y="534"/>
      <point x="293" y="534" type="curve" smooth="yes"/>
      <point x="394" y="534"/>
      <point x="451" y="467"/>
      <point x="566" y="467" type="curve" smooth="yes"/>
      <point x="639" y="467"/>
      <point x="705" y="514"/>
    </contour>
  </outline>
</glyph>
<glyph name="five_cham" format="2">
  <advance width="526"/>
  <unicode hex="AA55"/>
  <note>
uniAA55
</note>
  <outline>
    <contour>
      <point x="449" y="375" type="curve" smooth="yes"/>
      <point x="449" y="486"/>
      <point x="367" y="556"/>
      <point x="253" y="556" type="curve" smooth="yes"/>
      <point x="137" y="556"/>
      <point x="57" y="483"/>
      <point x="57" y="375" type="curve" smooth="yes"/>
      <point x="57" y="320"/>
      <point x="81" y="265"/>
      <point x="118" y="228" type="curve"/>
      <point x="135" y="243" type="line"/>
      <point x="103" y="274"/>
      <point x="81" y="324"/>
      <point x="81" y="375" type="curve" smooth="yes"/>
      <point x="81" y="472"/>
      <point x="149" y="534"/>
      <point x="253" y="534" type="curve" smooth="yes"/>
      <point x="356" y="534"/>
      <point x="425" y="475"/>
      <point x="425" y="374" type="curve" smooth="yes"/>
      <point x="425" y="314"/>
      <point x="396" y="247"/>
      <point x="326" y="220" type="curve"/>
      <point x="326" y="208" type="line"/>
      <point x="382" y="182"/>
      <point x="409" y="142"/>
      <point x="409" y="98" type="curve" smooth="yes"/>
      <point x="409" y="47"/>
      <point x="379" y="12"/>
      <point x="319" y="12" type="curve" smooth="yes"/>
      <point x="280" y="12"/>
      <point x="254" y="25"/>
      <point x="254" y="47" type="curve" smooth="yes"/>
      <point x="254" y="65"/>
      <point x="267" y="78"/>
      <point x="295" y="78" type="curve" smooth="yes"/>
      <point x="327" y="78"/>
      <point x="343" y="61"/>
      <point x="343" y="31" type="curve" smooth="yes"/>
      <point x="343" y="23"/>
      <point x="341" y="13"/>
      <point x="338" y="3" type="curve"/>
      <point x="361" y="8" type="line"/>
      <point x="363" y="16"/>
      <point x="364" y="24"/>
      <point x="364" y="32" type="curve" smooth="yes"/>
      <point x="364" y="74"/>
      <point x="341" y="99"/>
      <point x="295" y="99" type="curve" smooth="yes"/>
      <point x="254" y="99"/>
      <point x="231" y="77"/>
      <point x="231" y="47" type="curve" smooth="yes"/>
      <point x="231" y="11"/>
      <point x="268" y="-10"/>
      <point x="319" y="-10" type="curve" smooth="yes"/>
      <point x="392" y="-10"/>
      <point x="433" y="35"/>
      <point x="433" y="98" type="curve" smooth="yes"/>
      <point x="433" y="145"/>
      <point x="404" y="187"/>
      <point x="348" y="218" type="curve"/>
      <point x="349" y="207" type="line"/>
      <point x="415" y="235"/>
      <point x="449" y="314"/>
    </contour>
  </outline>
</glyph>
<glyph name="seven_cham" format="2">
  <advance width="841"/>
  <unicode hex="AA57"/>
  <note>
uniAA57
</note>
  <outline>
    <contour>
      <point x="733" y="322" type="curve" smooth="yes"/>
      <point x="733" y="463"/>
      <point x="668" y="556"/>
      <point x="554" y="556" type="curve" smooth="yes"/>
      <point x="461" y="556"/>
      <point x="398" y="495"/>
      <point x="398" y="406" type="curve" smooth="yes"/>
      <point x="398" y="319"/>
      <point x="437" y="263"/>
      <point x="437" y="178" type="curve" smooth="yes"/>
      <point x="437" y="72"/>
      <point x="376" y="12"/>
      <point x="262" y="12" type="curve" smooth="yes"/>
      <point x="157" y="12"/>
      <point x="84" y="64"/>
      <point x="84" y="147" type="curve" smooth="yes"/>
      <point x="84" y="209"/>
      <point x="123" y="255"/>
      <point x="193" y="255" type="curve" smooth="yes"/>
      <point x="257" y="255"/>
      <point x="300" y="210"/>
      <point x="300" y="134" type="curve" smooth="yes"/>
      <point x="300" y="91"/>
      <point x="283" y="39"/>
      <point x="269" y="8" type="curve"/>
      <point x="293" y="8" type="line"/>
      <point x="306" y="37"/>
      <point x="324" y="85"/>
      <point x="324" y="134" type="curve" smooth="yes"/>
      <point x="324" y="221"/>
      <point x="269" y="276"/>
      <point x="192" y="276" type="curve" smooth="yes"/>
      <point x="111" y="276"/>
      <point x="60" y="220"/>
      <point x="60" y="147" type="curve" smooth="yes"/>
      <point x="60" y="53"/>
      <point x="145" y="-10"/>
      <point x="261" y="-10" type="curve" smooth="yes"/>
      <point x="388" y="-10"/>
      <point x="461" y="61"/>
      <point x="461" y="177" type="curve" smooth="yes"/>
      <point x="461" y="268"/>
      <point x="422" y="324"/>
      <point x="422" y="405" type="curve" smooth="yes"/>
      <point x="422" y="484"/>
      <point x="473" y="534"/>
      <point x="554" y="534" type="curve" smooth="yes"/>
      <point x="655" y="534"/>
      <point x="709" y="451"/>
      <point x="709" y="322" type="curve" smooth="yes"/>
      <point x="709" y="165"/>
      <point x="642" y="82"/>
      <point x="539" y="4" type="curve" smooth="yes"/>
      <point x="427" y="-80"/>
      <point x="394" y="-123"/>
      <point x="394" y="-168" type="curve" smooth="yes"/>
      <point x="394" y="-213"/>
      <point x="427" y="-248"/>
      <point x="479" y="-248" type="curve" smooth="yes"/>
      <point x="586" y="-248"/>
      <point x="597" y="-82"/>
      <point x="676" y="-82" type="curve" smooth="yes"/>
      <point x="701" y="-82"/>
      <point x="720" y="-100"/>
      <point x="720" y="-124" type="curve" smooth="yes"/>
      <point x="720" y="-139"/>
      <point x="713" y="-157"/>
      <point x="702" y="-171" type="curve"/>
      <point x="720" y="-185" type="line"/>
      <point x="735" y="-166"/>
      <point x="744" y="-144"/>
      <point x="744" y="-124" type="curve" smooth="yes"/>
      <point x="744" y="-87"/>
      <point x="714" y="-60"/>
      <point x="676" y="-60" type="curve" smooth="yes"/>
      <point x="578" y="-60"/>
      <point x="567" y="-226"/>
      <point x="478" y="-226" type="curve" smooth="yes"/>
      <point x="441" y="-226"/>
      <point x="418" y="-200"/>
      <point x="418" y="-167" type="curve" smooth="yes"/>
      <point x="418" y="-129"/>
      <point x="445" y="-93"/>
      <point x="556" y="-10" type="curve" smooth="yes"/>
      <point x="662" y="69"/>
      <point x="733" y="156"/>
    </contour>
  </outline>
</glyph>
<glyph name="eight_cham" format="2">
  <advance width="942"/>
  <unicode hex="AA58"/>
  <note>
uniAA58
</note>
  <outline>
    <contour>
      <point x="852" y="365" type="curve" smooth="yes"/>
      <point x="852" y="479"/>
      <point x="787" y="556"/>
      <point x="686" y="556" type="curve" smooth="yes"/>
      <point x="603" y="556"/>
      <point x="543" y="509"/>
      <point x="529" y="415" type="curve" smooth="yes"/>
      <point x="514" y="316"/>
      <point x="485" y="304"/>
      <point x="367" y="274" type="curve" smooth="yes"/>
      <point x="243" y="243"/>
      <point x="174" y="174"/>
      <point x="174" y="82" type="curve" smooth="yes"/>
      <point x="174" y="26"/>
      <point x="206" y="-10"/>
      <point x="262" y="-10" type="curve" smooth="yes"/>
      <point x="366" y="-10"/>
      <point x="430" y="104"/>
      <point x="430" y="280" type="curve" smooth="yes"/>
      <point x="430" y="453"/>
      <point x="348" y="556"/>
      <point x="225" y="556" type="curve" smooth="yes"/>
      <point x="122" y="556"/>
      <point x="64" y="495"/>
      <point x="64" y="412" type="curve" smooth="yes"/>
      <point x="64" y="368"/>
      <point x="80" y="328"/>
      <point x="106" y="297" type="curve"/>
      <point x="124" y="311" type="line"/>
      <point x="102" y="338"/>
      <point x="88" y="373"/>
      <point x="88" y="412" type="curve" smooth="yes"/>
      <point x="88" y="483"/>
      <point x="135" y="534"/>
      <point x="226" y="534" type="curve" smooth="yes"/>
      <point x="334" y="534"/>
      <point x="406" y="441"/>
      <point x="406" y="280" type="curve" smooth="yes"/>
      <point x="406" y="116"/>
      <point x="350" y="12"/>
      <point x="261" y="12" type="curve" smooth="yes"/>
      <point x="221" y="12"/>
      <point x="198" y="43"/>
      <point x="198" y="83" type="curve" smooth="yes"/>
      <point x="198" y="163"/>
      <point x="258" y="225"/>
      <point x="375" y="254" type="curve" smooth="yes"/>
      <point x="499" y="285"/>
      <point x="537" y="304"/>
      <point x="552" y="411" type="curve" smooth="yes"/>
      <point x="564" y="494"/>
      <point x="616" y="534"/>
      <point x="685" y="534" type="curve" smooth="yes"/>
      <point x="776" y="534"/>
      <point x="828" y="469"/>
      <point x="828" y="365" type="curve" smooth="yes"/>
      <point x="828" y="228"/>
      <point x="766" y="121"/>
      <point x="632" y="42" type="curve" smooth="yes"/>
      <point x="476" y="-50"/>
      <point x="439" y="-120"/>
      <point x="439" y="-170" type="curve" smooth="yes"/>
      <point x="439" y="-214"/>
      <point x="471" y="-248"/>
      <point x="523" y="-248" type="curve" smooth="yes"/>
      <point x="630" y="-248"/>
      <point x="641" y="-82"/>
      <point x="720" y="-82" type="curve" smooth="yes"/>
      <point x="745" y="-82"/>
      <point x="764" y="-100"/>
      <point x="764" y="-124" type="curve" smooth="yes"/>
      <point x="764" y="-139"/>
      <point x="757" y="-157"/>
      <point x="746" y="-171" type="curve"/>
      <point x="764" y="-185" type="line"/>
      <point x="779" y="-166"/>
      <point x="788" y="-144"/>
      <point x="788" y="-124" type="curve" smooth="yes"/>
      <point x="788" y="-87"/>
      <point x="758" y="-60"/>
      <point x="720" y="-60" type="curve" smooth="yes"/>
      <point x="622" y="-60"/>
      <point x="611" y="-226"/>
      <point x="522" y="-226" type="curve" smooth="yes"/>
      <point x="485" y="-226"/>
      <point x="463" y="-201"/>
      <point x="463" y="-170" type="curve" smooth="yes"/>
      <point x="463" y="-131"/>
      <point x="490" y="-69"/>
      <point x="649" y="25" type="curve" smooth="yes"/>
      <point x="789" y="108"/>
      <point x="852" y="221"/>
    </contour>
  </outline>
</glyph>
<glyph name="nine_cham" format="2">
  <advance width="977"/>
  <unicode hex="AA59"/>
  <note>
uniAA59
</note>
  <outline>
    <contour>
      <point x="869" y="322" type="curve" smooth="yes"/>
      <point x="869" y="463"/>
      <point x="804" y="556"/>
      <point x="690" y="556" type="curve" smooth="yes"/>
      <point x="599" y="556"/>
      <point x="540" y="496"/>
      <point x="540" y="400" type="curve" smooth="yes"/>
      <point x="540" y="305"/>
      <point x="604" y="240"/>
      <point x="604" y="155" type="curve" smooth="yes"/>
      <point x="604" y="71"/>
      <point x="546" y="12"/>
      <point x="453" y="12" type="curve" smooth="yes"/>
      <point x="360" y="12"/>
      <point x="302" y="71"/>
      <point x="302" y="155" type="curve" smooth="yes"/>
      <point x="302" y="240"/>
      <point x="366" y="305"/>
      <point x="366" y="400" type="curve" smooth="yes"/>
      <point x="366" y="496"/>
      <point x="307" y="556"/>
      <point x="216" y="556" type="curve" smooth="yes"/>
      <point x="121" y="556"/>
      <point x="60" y="499"/>
      <point x="60" y="407" type="curve" smooth="yes"/>
      <point x="60" y="362"/>
      <point x="79" y="316"/>
      <point x="109" y="283" type="curve"/>
      <point x="126" y="298" type="line"/>
      <point x="101" y="326"/>
      <point x="84" y="367"/>
      <point x="84" y="407" type="curve" smooth="yes"/>
      <point x="84" y="488"/>
      <point x="133" y="534"/>
      <point x="216" y="534" type="curve" smooth="yes"/>
      <point x="295" y="534"/>
      <point x="342" y="485"/>
      <point x="342" y="400" type="curve" smooth="yes"/>
      <point x="342" y="312"/>
      <point x="278" y="246"/>
      <point x="278" y="158" type="curve" smooth="yes"/>
      <point x="278" y="59"/>
      <point x="347" y="-10"/>
      <point x="453" y="-10" type="curve" smooth="yes"/>
      <point x="559" y="-10"/>
      <point x="628" y="59"/>
      <point x="628" y="158" type="curve" smooth="yes"/>
      <point x="628" y="246"/>
      <point x="564" y="312"/>
      <point x="564" y="400" type="curve" smooth="yes"/>
      <point x="564" y="485"/>
      <point x="611" y="534"/>
      <point x="690" y="534" type="curve" smooth="yes"/>
      <point x="791" y="534"/>
      <point x="845" y="451"/>
      <point x="845" y="322" type="curve" smooth="yes"/>
      <point x="845" y="165"/>
      <point x="778" y="82"/>
      <point x="675" y="4" type="curve" smooth="yes"/>
      <point x="563" y="-81"/>
      <point x="530" y="-123"/>
      <point x="530" y="-168" type="curve" smooth="yes"/>
      <point x="530" y="-213"/>
      <point x="563" y="-248"/>
      <point x="615" y="-248" type="curve" smooth="yes"/>
      <point x="722" y="-248"/>
      <point x="733" y="-82"/>
      <point x="812" y="-82" type="curve" smooth="yes"/>
      <point x="837" y="-82"/>
      <point x="856" y="-100"/>
      <point x="856" y="-124" type="curve" smooth="yes"/>
      <point x="856" y="-139"/>
      <point x="849" y="-157"/>
      <point x="838" y="-171" type="curve"/>
      <point x="856" y="-185" type="line"/>
      <point x="871" y="-166"/>
      <point x="880" y="-144"/>
      <point x="880" y="-124" type="curve" smooth="yes"/>
      <point x="880" y="-87"/>
      <point x="850" y="-60"/>
      <point x="812" y="-60" type="curve" smooth="yes"/>
      <point x="714" y="-60"/>
      <point x="703" y="-226"/>
      <point x="614" y="-226" type="curve" smooth="yes"/>
      <point x="577" y="-226"/>
      <point x="554" y="-200"/>
      <point x="554" y="-167" type="curve" smooth="yes"/>
      <point x="554" y="-129"/>
      <point x="581" y="-93"/>
      <point x="692" y="-10" type="curve" smooth="yes"/>
      <point x="797" y="69"/>
      <point x="869" y="156"/>
    </contour>
  </outline>
</glyph>
<glyph name="spiral_cham" format="2">
  <advance width="847"/>
  <unicode hex="AA5C"/>
  <note>
uniAA5C
</note>
  <outline>
    <contour>
      <point x="787" y="286" type="curve" smooth="yes"/>
      <point x="787" y="493"/>
      <point x="666" y="622"/>
      <point x="470" y="622" type="curve" smooth="yes"/>
      <point x="291" y="622"/>
      <point x="180" y="514"/>
      <point x="180" y="340" type="curve" smooth="yes"/>
      <point x="180" y="176"/>
      <point x="275" y="74"/>
      <point x="427" y="74" type="curve" smooth="yes"/>
      <point x="561" y="74"/>
      <point x="646" y="156"/>
      <point x="646" y="284" type="curve" smooth="yes"/>
      <point x="646" y="399"/>
      <point x="579" y="473"/>
      <point x="471" y="473" type="curve" smooth="yes"/>
      <point x="380" y="473"/>
      <point x="321" y="415"/>
      <point x="321" y="331" type="curve" smooth="yes"/>
      <point x="321" y="258"/>
      <point x="366" y="208"/>
      <point x="434" y="208" type="curve" smooth="yes"/>
      <point x="486" y="208"/>
      <point x="518" y="239"/>
      <point x="518" y="280" type="curve" smooth="yes"/>
      <point x="518" y="316"/>
      <point x="491" y="342"/>
      <point x="453" y="342" type="curve" smooth="yes"/>
      <point x="404" y="342"/>
      <point x="367" y="304"/>
      <point x="365" y="241" type="curve"/>
      <point x="385" y="241" type="line"/>
      <point x="387" y="292"/>
      <point x="414" y="322"/>
      <point x="453" y="322" type="curve" smooth="yes"/>
      <point x="480" y="322"/>
      <point x="497" y="306"/>
      <point x="497" y="280" type="curve" smooth="yes"/>
      <point x="497" y="250"/>
      <point x="475" y="230"/>
      <point x="433" y="230" type="curve" smooth="yes"/>
      <point x="378" y="230"/>
      <point x="345" y="269"/>
      <point x="345" y="331" type="curve" smooth="yes"/>
      <point x="345" y="404"/>
      <point x="392" y="451"/>
      <point x="472" y="451" type="curve" smooth="yes"/>
      <point x="567" y="451"/>
      <point x="622" y="388"/>
      <point x="622" y="285" type="curve" smooth="yes"/>
      <point x="622" y="167"/>
      <point x="549" y="96"/>
      <point x="426" y="96" type="curve" smooth="yes"/>
      <point x="287" y="96"/>
      <point x="204" y="187"/>
      <point x="204" y="339" type="curve" smooth="yes"/>
      <point x="204" y="503"/>
      <point x="303" y="600"/>
      <point x="470" y="600" type="curve" smooth="yes"/>
      <point x="654" y="600"/>
      <point x="763" y="482"/>
      <point x="763" y="286" type="curve" smooth="yes"/>
      <point x="763" y="75"/>
      <point x="636" y="-53"/>
      <point x="424" y="-53" type="curve" smooth="yes"/>
      <point x="198" y="-53"/>
      <point x="63" y="90"/>
      <point x="63" y="327" type="curve"/>
      <point x="39" y="327" type="line"/>
      <point x="39" y="79"/>
      <point x="186" y="-75"/>
      <point x="424" y="-75" type="curve" smooth="yes"/>
      <point x="648" y="-75"/>
      <point x="787" y="64"/>
    </contour>
  </outline>
</glyph>
<glyph name="danda_cham" format="2">
  <advance width="406"/>
  <unicode hex="AA5D"/>
  <note>
uniAA5D
</note>
  <outline>
    <contour>
      <point x="233" y="319" type="curve" smooth="yes"/>
      <point x="233" y="418"/>
      <point x="216" y="505"/>
      <point x="186" y="561" type="curve"/>
      <point x="166" y="549" type="line"/>
      <point x="194" y="503"/>
      <point x="209" y="422"/>
      <point x="209" y="324" type="curve" smooth="yes"/>
      <point x="209" y="195"/>
      <point x="183" y="38"/>
      <point x="136" y="-112" type="curve"/>
      <point x="158" y="-119" type="line"/>
      <point x="206" y="36"/>
      <point x="233" y="194"/>
    </contour>
  </outline>
</glyph>
<glyph name="doubleDanda_cham" format="2">
  <advance width="618"/>
  <unicode hex="AA5E"/>
  <note>
uniAA5E
</note>
  <outline>
    <contour>
      <point x="242" y="329" type="curve" smooth="yes"/>
      <point x="242" y="412"/>
      <point x="227" y="486"/>
      <point x="201" y="534" type="curve"/>
      <point x="181" y="523" type="line"/>
      <point x="206" y="481"/>
      <point x="219" y="413"/>
      <point x="219" y="332" type="curve" smooth="yes"/>
      <point x="219" y="225"/>
      <point x="196" y="90"/>
      <point x="154" y="-42" type="curve"/>
      <point x="175" y="-49" type="line"/>
      <point x="218" y="88"/>
      <point x="242" y="224"/>
    </contour>
    <contour>
      <point x="445" y="319" type="curve" smooth="yes"/>
      <point x="445" y="418"/>
      <point x="428" y="505"/>
      <point x="398" y="561" type="curve"/>
      <point x="378" y="549" type="line"/>
      <point x="406" y="503"/>
      <point x="421" y="422"/>
      <point x="421" y="324" type="curve" smooth="yes"/>
      <point x="421" y="195"/>
      <point x="395" y="38"/>
      <point x="348" y="-112" type="curve"/>
      <point x="370" y="-119" type="line"/>
      <point x="418" y="36"/>
      <point x="445" y="194"/>
    </contour>
    <contour>
      <point x="178" y="653" type="curve" smooth="yes"/>
      <point x="205" y="653"/>
      <point x="221" y="669"/>
      <point x="221" y="696" type="curve" smooth="yes"/>
      <point x="221" y="722"/>
      <point x="205" y="738"/>
      <point x="178" y="738" type="curve" smooth="yes"/>
      <point x="152" y="738"/>
      <point x="136" y="722"/>
      <point x="136" y="696" type="curve" smooth="yes"/>
      <point x="136" y="669"/>
      <point x="152" y="653"/>
    </contour>
    <contour>
      <point x="329" y="681" type="curve" smooth="yes"/>
      <point x="356" y="681"/>
      <point x="372" y="697"/>
      <point x="372" y="724" type="curve" smooth="yes"/>
      <point x="372" y="750"/>
      <point x="356" y="766"/>
      <point x="329" y="766" type="curve" smooth="yes"/>
      <point x="303" y="766"/>
      <point x="287" y="750"/>
      <point x="287" y="724" type="curve" smooth="yes"/>
      <point x="287" y="697"/>
      <point x="303" y="681"/>
    </contour>
    <contour>
      <point x="225" y="799" type="curve" smooth="yes"/>
      <point x="252" y="799"/>
      <point x="268" y="815"/>
      <point x="268" y="842" type="curve" smooth="yes"/>
      <point x="268" y="868"/>
      <point x="252" y="884"/>
      <point x="225" y="884" type="curve" smooth="yes"/>
      <point x="199" y="884"/>
      <point x="183" y="868"/>
      <point x="183" y="842" type="curve" smooth="yes"/>
      <point x="183" y="815"/>
      <point x="199" y="799"/>
    </contour>
  </outline>
</glyph>
<glyph name="tripleDanda_cham" format="2">
  <advance width="795"/>
  <unicode hex="AA5F"/>
  <note>
uniAA5F
</note>
  <outline>
    <contour>
      <point x="216" y="339" type="curve" smooth="yes"/>
      <point x="216" y="406"/>
      <point x="203" y="467"/>
      <point x="180" y="507" type="curve"/>
      <point x="160" y="496" type="line"/>
      <point x="182" y="459"/>
      <point x="194" y="403"/>
      <point x="194" y="339" type="curve" smooth="yes"/>
      <point x="194" y="255"/>
      <point x="173" y="142"/>
      <point x="136" y="27" type="curve"/>
      <point x="156" y="20" type="line"/>
      <point x="194" y="139"/>
      <point x="216" y="254"/>
    </contour>
    <contour>
      <point x="419" y="329" type="curve" smooth="yes"/>
      <point x="419" y="412"/>
      <point x="404" y="486"/>
      <point x="378" y="534" type="curve"/>
      <point x="358" y="523" type="line"/>
      <point x="383" y="481"/>
      <point x="396" y="413"/>
      <point x="396" y="332" type="curve" smooth="yes"/>
      <point x="396" y="225"/>
      <point x="373" y="90"/>
      <point x="331" y="-42" type="curve"/>
      <point x="352" y="-49" type="line"/>
      <point x="395" y="88"/>
      <point x="419" y="224"/>
    </contour>
    <contour>
      <point x="622" y="319" type="curve" smooth="yes"/>
      <point x="622" y="418"/>
      <point x="605" y="505"/>
      <point x="575" y="561" type="curve"/>
      <point x="555" y="549" type="line"/>
      <point x="583" y="503"/>
      <point x="598" y="422"/>
      <point x="598" y="324" type="curve" smooth="yes"/>
      <point x="598" y="195"/>
      <point x="572" y="38"/>
      <point x="525" y="-112" type="curve"/>
      <point x="547" y="-119" type="line"/>
      <point x="595" y="36"/>
      <point x="622" y="194"/>
    </contour>
  </outline>
</glyph>
<glyph name="aaSign_oeSign_cham" format="2">
  <note>
g126
</note>
  <outline>
    <contour>
      <point x="76" y="823" type="curve" smooth="yes"/>
      <point x="76" y="895"/>
      <point x="23" y="946"/>
      <point x="-60" y="946" type="curve" smooth="yes"/>
      <point x="-142" y="946"/>
      <point x="-193" y="897"/>
      <point x="-193" y="825" type="curve" smooth="yes"/>
      <point x="-193" y="707"/>
      <point x="-39" y="667"/>
      <point x="-39" y="566" type="curve" smooth="yes"/>
      <point x="-39" y="534"/>
      <point x="-56" y="505"/>
      <point x="-90" y="489" type="curve"/>
      <point x="-80" y="469" type="line"/>
      <point x="-38" y="489"/>
      <point x="-15" y="526"/>
      <point x="-15" y="566" type="curve" smooth="yes"/>
      <point x="-15" y="679"/>
      <point x="-169" y="719"/>
      <point x="-169" y="825" type="curve" smooth="yes"/>
      <point x="-169" y="883"/>
      <point x="-127" y="924"/>
      <point x="-60" y="924" type="curve" smooth="yes"/>
      <point x="8" y="924"/>
      <point x="52" y="881"/>
      <point x="52" y="822" type="curve" smooth="yes"/>
      <point x="52" y="796"/>
      <point x="42" y="772"/>
      <point x="28" y="753" type="curve"/>
      <point x="46" y="739" type="line"/>
      <point x="66" y="764"/>
      <point x="76" y="791"/>
    </contour>
    <contour>
      <point x="262" y="946" type="curve"/>
      <point x="239" y="946" type="line"/>
      <point x="245" y="840"/>
      <point x="168" y="760"/>
      <point x="61" y="760" type="curve" smooth="yes"/>
      <point x="46" y="760" type="line"/>
      <point x="46" y="739" type="line"/>
      <point x="61" y="739" type="line" smooth="yes"/>
      <point x="180" y="739"/>
      <point x="268" y="828"/>
    </contour>
  </outline>
</glyph>
<glyph name="laMedial_cham.narrow" format="2">
  <outline>
    <contour>
      <point x="-159" y="136" type="curve"/>
      <point x="-182" y="141" type="line"/>
      <point x="-189" y="94"/>
      <point x="-205" y="73"/>
      <point x="-229" y="73" type="curve" smooth="yes"/>
      <point x="-260" y="73"/>
      <point x="-271" y="92"/>
      <point x="-309" y="92" type="curve" smooth="yes"/>
      <point x="-370" y="92"/>
      <point x="-404" y="38"/>
      <point x="-404" y="-50" type="curve" smooth="yes"/>
      <point x="-404" y="-134"/>
      <point x="-366" y="-178"/>
      <point x="-312" y="-178" type="curve" smooth="yes"/>
      <point x="-274" y="-178"/>
      <point x="-248" y="-150"/>
      <point x="-248" y="-107" type="curve" smooth="yes"/>
      <point x="-248" y="-49"/>
      <point x="-296" y="-16"/>
      <point x="-358" y="-16" type="curve" smooth="yes"/>
      <point x="-372" y="-16"/>
      <point x="-384" y="-18"/>
      <point x="-397" y="-22" type="curve"/>
      <point x="-398" y="-46" type="line"/>
      <point x="-385" y="-41"/>
      <point x="-372" y="-39"/>
      <point x="-360" y="-39" type="curve" smooth="yes"/>
      <point x="-310" y="-39"/>
      <point x="-272" y="-62"/>
      <point x="-272" y="-107" type="curve" smooth="yes"/>
      <point x="-272" y="-138"/>
      <point x="-288" y="-156"/>
      <point x="-312" y="-156" type="curve" smooth="yes"/>
      <point x="-348" y="-156"/>
      <point x="-380" y="-121"/>
      <point x="-380" y="-50" type="curve" smooth="yes"/>
      <point x="-380" y="25"/>
      <point x="-355" y="69"/>
      <point x="-308" y="69" type="curve" smooth="yes"/>
      <point x="-273" y="69"/>
      <point x="-263" y="51"/>
      <point x="-228" y="51" type="curve" smooth="yes"/>
      <point x="-191" y="51"/>
      <point x="-166" y="81"/>
    </contour>
  </outline>
</glyph>
<glyph name="raMedial_cham_pre" format="2">
  <advance width="363"/>
  <note>
uniAA34
</note>
  <outline>
    <contour>
      <point x="835" y="-308" type="curve"/>
      <point x="848" y="-290" type="line"/>
      <point x="752" y="-227"/>
      <point x="669" y="-193"/>
      <point x="605" y="-193" type="curve" smooth="yes"/>
      <point x="546" y="-193"/>
      <point x="494" y="-229"/>
      <point x="475" y="-294" type="curve"/>
      <point x="491" y="-288" type="line"/>
      <point x="327" y="-203"/>
      <point x="168" y="13"/>
      <point x="168" y="299" type="curve" smooth="yes"/>
      <point x="168" y="497"/>
      <point x="248" y="677"/>
      <point x="405" y="835" type="curve"/>
      <point x="396" y="854" type="line"/>
      <point x="199" y="854" type="line" smooth="yes"/>
      <point x="107" y="854"/>
      <point x="42" y="808"/>
      <point x="42" y="742" type="curve" smooth="yes"/>
      <point x="42" y="712"/>
      <point x="48" y="692"/>
      <point x="69" y="661" type="curve"/>
      <point x="88" y="673" type="line"/>
      <point x="71" y="700"/>
      <point x="66" y="717"/>
      <point x="66" y="742" type="curve" smooth="yes"/>
      <point x="66" y="795"/>
      <point x="119" y="832"/>
      <point x="199" y="832" type="curve" smooth="yes"/>
      <point x="396" y="832" type="line"/>
      <point x="387" y="850" type="line"/>
      <point x="227" y="688"/>
      <point x="144" y="502"/>
      <point x="144" y="299" type="curve" smooth="yes"/>
      <point x="144" y="7"/>
      <point x="311" y="-219"/>
      <point x="479" y="-307" type="curve"/>
      <point x="496" y="-300" type="line"/>
      <point x="512" y="-250"/>
      <point x="551" y="-215"/>
      <point x="606" y="-215" type="curve" smooth="yes"/>
      <point x="664" y="-215"/>
      <point x="743" y="-247"/>
    </contour>
  </outline>
</glyph>
